<svg xmlns="http://www.w3.org/2000/svg" xmlns:xlink="http://www.w3.org/1999/xlink" width="3800" zoomAndPan="magnify" viewBox="0 0 2850 239.999995" height="320" preserveAspectRatio="xMidYMid meet" version="1.0"><defs><g/></defs><g fill="#ff00ff" fill-opacity="1"><g transform="translate(543.701528, 202.177534)"><g><path d="M 167 -159.046875 L 7.953125 -159.046875 L 7.953125 -127.238281 L 71.570312 -127.238281 L 71.570312 0 L 103.378906 0 L 103.378906 -127.238281 L 167 -127.238281 Z M 167 -159.046875 "/></g></g></g><g fill="#ff00ff" fill-opacity="1"><g transform="translate(750.06337, 202.177534)"><g><path d="M 135.1875 0 C 152.683594 0 167 -14.3125 167 -31.808594 L 167 -159.046875 L 135.1875 -159.046875 L 135.1875 -31.808594 L 39.761719 -31.808594 L 39.761719 -159.046875 L 7.953125 -159.046875 L 7.953125 -31.808594 C 7.953125 -14.3125 22.265625 0 39.761719 0 Z M 135.1875 0 "/></g></g></g><g fill="#ff00ff" fill-opacity="1"><g transform="translate(956.425213, 202.177534)"><g/></g></g><g fill="#ff00ff" fill-opacity="1"><g transform="translate(1075.31192, 202.177534)"><g><path d="M 167 -127.238281 C 167 -144.53125 152.882812 -159.046875 135.1875 -159.046875 L 7.953125 -159.046875 L 7.953125 0 L 135.1875 0 C 152.882812 0 167 -14.511719 167 -31.808594 L 167 -63.617188 C 167 -72.367188 159.839844 -79.523438 151.09375 -79.523438 C 159.839844 -79.523438 167 -86.679688 167 -95.425781 Z M 135.1875 -127.238281 L 135.1875 -95.425781 L 39.761719 -95.425781 L 39.761719 -127.238281 Z M 39.761719 -31.808594 L 39.761719 -63.617188 L 135.1875 -63.617188 L 135.1875 -31.808594 Z M 39.761719 -31.808594 "/></g></g></g><g fill="#ff00ff" fill-opacity="1"><g transform="translate(1281.673732, 202.177534)"><g><path d="M 135.1875 0 C 152.882812 0 167 -14.511719 167 -31.808594 L 167 -127.238281 C 167 -144.730469 152.683594 -159.046875 135.1875 -159.046875 L 39.761719 -159.046875 C 22.265625 -159.046875 7.953125 -144.730469 7.953125 -127.238281 L 7.953125 -31.808594 C 7.953125 -14.3125 22.265625 0 39.761719 0 Z M 39.761719 -127.238281 L 135.1875 -127.238281 L 135.1875 -31.808594 L 39.761719 -31.808594 Z M 39.761719 -127.238281 "/></g></g></g><g fill="#ff00ff" fill-opacity="1"><g transform="translate(1488.035543, 202.177534)"><g><path d="M 135.1875 0 C 152.683594 0 167 -14.3125 167 -31.808594 L 167 -127.238281 C 167 -144.730469 152.683594 -159.046875 135.1875 -159.046875 L 7.953125 -159.046875 L 7.953125 0 Z M 39.761719 -127.238281 L 135.1875 -127.238281 L 135.1875 -31.808594 L 39.761719 -31.808594 Z M 39.761719 -127.238281 "/></g></g></g><g fill="#ff00ff" fill-opacity="1"><g transform="translate(1694.397354, 202.177534)"><g><path d="M 167 -159.046875 L 39.761719 -159.046875 C 22.265625 -159.046875 7.953125 -144.730469 7.953125 -127.238281 L 7.953125 -31.808594 C 7.953125 -14.3125 22.265625 0 39.761719 0 L 167 0 L 167 -31.808594 L 39.761719 -31.808594 L 39.761719 -63.617188 L 167 -63.617188 L 167 -95.425781 L 39.761719 -95.425781 L 39.761719 -127.238281 L 167 -127.238281 Z M 167 -159.046875 "/></g></g></g><g fill="#ff00ff" fill-opacity="1"><g transform="translate(1900.759166, 202.177534)"><g><path d="M 167 -159.046875 L 39.761719 -159.046875 C 22.265625 -159.046875 7.953125 -144.730469 7.953125 -127.238281 L 7.953125 -31.808594 C 7.953125 -14.3125 22.265625 0 39.761719 0 L 135.1875 0 C 152.882812 0 167 -14.511719 167 -31.808594 L 167 -95.425781 L 71.570312 -95.425781 L 71.570312 -63.617188 L 135.1875 -63.617188 L 135.1875 -31.808594 L 39.761719 -31.808594 L 39.761719 -127.238281 L 167 -127.238281 Z M 167 -159.046875 "/></g></g></g><g fill="#ff00ff" fill-opacity="1"><g transform="translate(2107.120977, 202.177534)"><g><path d="M 39.761719 -159.046875 C 22.265625 -159.046875 7.953125 -144.730469 7.953125 -127.238281 L 7.953125 0 L 39.761719 0 L 39.761719 -63.617188 L 135.1875 -63.617188 L 135.1875 0 L 167 0 L 167 -127.238281 C 167 -144.730469 152.683594 -159.046875 135.1875 -159.046875 Z M 39.761719 -127.238281 L 135.1875 -127.238281 L 135.1875 -95.425781 L 39.761719 -95.425781 Z M 39.761719 -127.238281 "/></g></g></g><g fill="#00ffff" fill-opacity="1"><g transform="translate(567.915507, 207.76777)"><g><path d="M 167 -159.046875 L 7.953125 -159.046875 L 7.953125 -127.238281 L 71.570312 -127.238281 L 71.570312 0 L 103.378906 0 L 103.378906 -127.238281 L 167 -127.238281 Z M 167 -159.046875 "/></g></g></g><g fill="#00ffff" fill-opacity="1"><g transform="translate(774.277349, 207.76777)"><g><path d="M 135.1875 0 C 152.683594 0 167 -14.3125 167 -31.808594 L 167 -159.046875 L 135.1875 -159.046875 L 135.1875 -31.808594 L 39.761719 -31.808594 L 39.761719 -159.046875 L 7.953125 -159.046875 L 7.953125 -31.808594 C 7.953125 -14.3125 22.265625 0 39.761719 0 Z M 135.1875 0 "/></g></g></g><g fill="#00ffff" fill-opacity="1"><g transform="translate(980.639192, 207.76777)"><g/></g></g><g fill="#00ffff" fill-opacity="1"><g transform="translate(1099.525899, 207.76777)"><g><path d="M 167 -127.238281 C 167 -144.53125 152.882812 -159.046875 135.1875 -159.046875 L 7.953125 -159.046875 L 7.953125 0 L 135.1875 0 C 152.882812 0 167 -14.511719 167 -31.808594 L 167 -63.617188 C 167 -72.367188 159.839844 -79.523438 151.09375 -79.523438 C 159.839844 -79.523438 167 -86.679688 167 -95.425781 Z M 135.1875 -127.238281 L 135.1875 -95.425781 L 39.761719 -95.425781 L 39.761719 -127.238281 Z M 39.761719 -31.808594 L 39.761719 -63.617188 L 135.1875 -63.617188 L 135.1875 -31.808594 Z M 39.761719 -31.808594 "/></g></g></g><g fill="#00ffff" fill-opacity="1"><g transform="translate(1305.887711, 207.76777)"><g><path d="M 135.1875 0 C 152.882812 0 167 -14.511719 167 -31.808594 L 167 -127.238281 C 167 -144.730469 152.683594 -159.046875 135.1875 -159.046875 L 39.761719 -159.046875 C 22.265625 -159.046875 7.953125 -144.730469 7.953125 -127.238281 L 7.953125 -31.808594 C 7.953125 -14.3125 22.265625 0 39.761719 0 Z M 39.761719 -127.238281 L 135.1875 -127.238281 L 135.1875 -31.808594 L 39.761719 -31.808594 Z M 39.761719 -127.238281 "/></g></g></g><g fill="#00ffff" fill-opacity="1"><g transform="translate(1512.249522, 207.76777)"><g><path d="M 135.1875 0 C 152.683594 0 167 -14.3125 167 -31.808594 L 167 -127.238281 C 167 -144.730469 152.683594 -159.046875 135.1875 -159.046875 L 7.953125 -159.046875 L 7.953125 0 Z M 39.761719 -127.238281 L 135.1875 -127.238281 L 135.1875 -31.808594 L 39.761719 -31.808594 Z M 39.761719 -127.238281 "/></g></g></g><g fill="#00ffff" fill-opacity="1"><g transform="translate(1718.611334, 207.76777)"><g><path d="M 167 -159.046875 L 39.761719 -159.046875 C 22.265625 -159.046875 7.953125 -144.730469 7.953125 -127.238281 L 7.953125 -31.808594 C 7.953125 -14.3125 22.265625 0 39.761719 0 L 167 0 L 167 -31.808594 L 39.761719 -31.808594 L 39.761719 -63.617188 L 167 -63.617188 L 167 -95.425781 L 39.761719 -95.425781 L 39.761719 -127.238281 L 167 -127.238281 Z M 167 -159.046875 "/></g></g></g><g fill="#00ffff" fill-opacity="1"><g transform="translate(1924.973145, 207.76777)"><g><path d="M 167 -159.046875 L 39.761719 -159.046875 C 22.265625 -159.046875 7.953125 -144.730469 7.953125 -127.238281 L 7.953125 -31.808594 C 7.953125 -14.3125 22.265625 0 39.761719 0 L 135.1875 0 C 152.882812 0 167 -14.511719 167 -31.808594 L 167 -95.425781 L 71.570312 -95.425781 L 71.570312 -63.617188 L 135.1875 -63.617188 L 135.1875 -31.808594 L 39.761719 -31.808594 L 39.761719 -127.238281 L 167 -127.238281 Z M 167 -159.046875 "/></g></g></g><g fill="#00ffff" fill-opacity="1"><g transform="translate(2131.334956, 207.76777)"><g><path d="M 39.761719 -159.046875 C 22.265625 -159.046875 7.953125 -144.730469 7.953125 -127.238281 L 7.953125 0 L 39.761719 0 L 39.761719 -63.617188 L 135.1875 -63.617188 L 135.1875 0 L 167 0 L 167 -127.238281 C 167 -144.730469 152.683594 -159.046875 135.1875 -159.046875 Z M 39.761719 -127.238281 L 135.1875 -127.238281 L 135.1875 -95.425781 L 39.761719 -95.425781 Z M 39.761719 -127.238281 "/></g></g></g><g fill="#ffffff" fill-opacity="1"><g transform="translate(555.808517, 204.972652)"><g><path d="M 167 -159.046875 L 7.953125 -159.046875 L 7.953125 -127.238281 L 71.570312 -127.238281 L 71.570312 0 L 103.378906 0 L 103.378906 -127.238281 L 167 -127.238281 Z M 167 -159.046875 "/></g></g></g><g fill="#ffffff" fill-opacity="1"><g transform="translate(762.17036, 204.972652)"><g><path d="M 135.1875 0 C 152.683594 0 167 -14.3125 167 -31.808594 L 167 -159.046875 L 135.1875 -159.046875 L 135.1875 -31.808594 L 39.761719 -31.808594 L 39.761719 -159.046875 L 7.953125 -159.046875 L 7.953125 -31.808594 C 7.953125 -14.3125 22.265625 0 39.761719 0 Z M 135.1875 0 "/></g></g></g><g fill="#ffffff" fill-opacity="1"><g transform="translate(968.532202, 204.972652)"><g/></g></g><g fill="#ffffff" fill-opacity="1"><g transform="translate(1087.41891, 204.972652)"><g><path d="M 167 -127.238281 C 167 -144.53125 152.882812 -159.046875 135.1875 -159.046875 L 7.953125 -159.046875 L 7.953125 0 L 135.1875 0 C 152.882812 0 167 -14.511719 167 -31.808594 L 167 -63.617188 C 167 -72.367188 159.839844 -79.523438 151.09375 -79.523438 C 159.839844 -79.523438 167 -86.679688 167 -95.425781 Z M 135.1875 -127.238281 L 135.1875 -95.425781 L 39.761719 -95.425781 L 39.761719 -127.238281 Z M 39.761719 -31.808594 L 39.761719 -63.617188 L 135.1875 -63.617188 L 135.1875 -31.808594 Z M 39.761719 -31.808594 "/></g></g></g><g fill="#ffffff" fill-opacity="1"><g transform="translate(1293.780721, 204.972652)"><g><path d="M 135.1875 0 C 152.882812 0 167 -14.511719 167 -31.808594 L 167 -127.238281 C 167 -144.730469 152.683594 -159.046875 135.1875 -159.046875 L 39.761719 -159.046875 C 22.265625 -159.046875 7.953125 -144.730469 7.953125 -127.238281 L 7.953125 -31.808594 C 7.953125 -14.3125 22.265625 0 39.761719 0 Z M 39.761719 -127.238281 L 135.1875 -127.238281 L 135.1875 -31.808594 L 39.761719 -31.808594 Z M 39.761719 -127.238281 "/></g></g></g><g fill="#ffffff" fill-opacity="1"><g transform="translate(1500.142533, 204.972652)"><g><path d="M 135.1875 0 C 152.683594 0 167 -14.3125 167 -31.808594 L 167 -127.238281 C 167 -144.730469 152.683594 -159.046875 135.1875 -159.046875 L 7.953125 -159.046875 L 7.953125 0 Z M 39.761719 -127.238281 L 135.1875 -127.238281 L 135.1875 -31.808594 L 39.761719 -31.808594 Z M 39.761719 -127.238281 "/></g></g></g><g fill="#ffffff" fill-opacity="1"><g transform="translate(1706.504344, 204.972652)"><g><path d="M 167 -159.046875 L 39.761719 -159.046875 C 22.265625 -159.046875 7.953125 -144.730469 7.953125 -127.238281 L 7.953125 -31.808594 C 7.953125 -14.3125 22.265625 0 39.761719 0 L 167 0 L 167 -31.808594 L 39.761719 -31.808594 L 39.761719 -63.617188 L 167 -63.617188 L 167 -95.425781 L 39.761719 -95.425781 L 39.761719 -127.238281 L 167 -127.238281 Z M 167 -159.046875 "/></g></g></g><g fill="#ffffff" fill-opacity="1"><g transform="translate(1912.866155, 204.972652)"><g><path d="M 167 -159.046875 L 39.761719 -159.046875 C 22.265625 -159.046875 7.953125 -144.730469 7.953125 -127.238281 L 7.953125 -31.808594 C 7.953125 -14.3125 22.265625 0 39.761719 0 L 135.1875 0 C 152.882812 0 167 -14.511719 167 -31.808594 L 167 -95.425781 L 71.570312 -95.425781 L 71.570312 -63.617188 L 135.1875 -63.617188 L 135.1875 -31.808594 L 39.761719 -31.808594 L 39.761719 -127.238281 L 167 -127.238281 Z M 167 -159.046875 "/></g></g></g><g fill="#ffffff" fill-opacity="1"><g transform="translate(2119.227967, 204.972652)"><g><path d="M 39.761719 -159.046875 C 22.265625 -159.046875 7.953125 -144.730469 7.953125 -127.238281 L 7.953125 0 L 39.761719 0 L 39.761719 -63.617188 L 135.1875 -63.617188 L 135.1875 0 L 167 0 L 167 -127.238281 C 167 -144.730469 152.683594 -159.046875 135.1875 -159.046875 Z M 39.761719 -127.238281 L 135.1875 -127.238281 L 135.1875 -95.425781 L 39.761719 -95.425781 Z M 39.761719 -127.238281 "/></g></g></g></svg>