<?xml version="1.0" encoding="utf-8"?>
<!-- Generator: Adobe Illustrator 26.0.3, SVG Export Plug-In . SVG Version: 6.00 Build 0)  -->
<svg version="1.1" id="Ebene_1" xmlns="http://www.w3.org/2000/svg" xmlns:xlink="http://www.w3.org/1999/xlink" x="0px" y="0px"
	 viewBox="0 0 477.8 81.4" style="enable-background:new 0 0 477.8 81.4;" xml:space="preserve">
<style type="text/css">
	.st0{fill:#FF008D;}
	.st1{fill:#00AFF4;}
	.st2{fill:#FFFFFF;}
</style>
<g>
	<path class="st0" d="M228.5,65.9h-3.1c0.5-0.5,1-1,1.5-1.7h-5.1l2.7-12.5h21.9l-3,14.2h3.1l-3,14h-15.6l0.7-3.1
		c-0.4,2.1-2.7,3.1-6.9,3.1c-11.6,0-17.7-4.7-18-14h-3.1c-0.1-2.3,0.2-5,0.8-7.9c0.6-2.8,1.4-5.3,2.4-7.5h3.1
		c4.3-9.6,12.3-14.4,24.2-14.4h18.8L247,48.6h-18.8c-1.9,0-3.4,0.6-4.8,1.9h-3.1c-1.6,1.5-2.8,4-3.5,7.5c-0.8,3.8-0.6,6.4,0.6,7.9
		h3.1c0.8,1,2,1.5,3.7,1.5C225.9,67.4,227.3,66.9,228.5,65.9z"/>
	<path class="st0" d="M261.3,50.5l8.8-14.4h13.4l2.2,14.4h-3.1l2.6,16.9h3.1l1.9,12.4h-16.8l-0.3-3.1h-11.5l-1.7,3.1h-16.8l7.6-12.4
		h-3.1l10.4-16.9H261.3z M269.1,64.3l-0.5-6.3l-3.3,6.3H269.1z"/>
	<path class="st0" d="M328,66.1h3.1l3,13.8h-15.6l-2.7-12.5h-4l-2.7,12.5h-15.6l2.9-13.8h-3.1l3.5-16.3h3.1l2.9-13.7h21.9
		c11.7,0,17,4.6,15.8,13.7h-3.1c-0.1,0.6-0.2,1.3-0.3,1.9c-1.3,6.1-4.4,10.4-9.2,13L328,66.1z M312.4,49.8l-1.1,5.1h6.2
		c2.1,0,3.3-1,3.8-3.1c0.2-0.8,0.2-1.4,0-1.9h3.1c-0.3-0.8-1.1-1.2-2.4-1.2h-6.2l-0.2,1.2H312.4z"/>
	<path class="st0" d="M351.9,50.5l8.8-14.4h13.4l2.2,14.4h-3.1l2.6,16.9h3.1l1.9,12.4h-16.8l-0.3-3.1h-11.5l-1.7,3.1h-16.8l7.6-12.4
		h-3.1l10.4-16.9H351.9z M359.8,64.3l-0.5-6.3l-3.3,6.3H359.8z"/>
	<path class="st0" d="M412.9,65.9h-3.1c0.5-0.5,1-1,1.5-1.7h-5.1l2.7-12.5h21.9l-3,14.2h3.1l-3,14h-15.6l0.7-3.1
		c-0.4,2.1-2.7,3.1-6.9,3.1c-11.6,0-17.7-4.7-18-14h-3.1c-0.1-2.3,0.2-5,0.8-7.9c0.6-2.8,1.4-5.3,2.4-7.5h3.1
		c4.3-9.6,12.3-14.4,24.2-14.4H434l-2.7,12.5h-18.8c-1.9,0-3.4,0.6-4.8,1.9h-3.1c-1.6,1.5-2.8,4-3.5,7.5c-0.8,3.8-0.6,6.4,0.6,7.9
		h3.1c0.8,1,2,1.5,3.7,1.5S411.7,66.9,412.9,65.9z"/>
	<path class="st0" d="M446.3,66.5h3.1l-0.2,0.9h21.9l-2.7,12.5H431l2.9-13.4h-3.1l3.3-15.8h3.1l3.1-14.5h37.5l-2.7,12.5h-21.9
		l-0.4,2h-3.1l-0.2,1.1h21.9l-2.7,12.5h-21.9L446.3,66.5z"/>
</g>
<g>
	<path class="st1" d="M223.5,61.9h-3.1c0.5-0.5,1-1,1.5-1.7h-5.1l2.7-12.5h21.9l-3,14.2h3.1l-3,14h-15.6l0.7-3.1
		c-0.4,2.1-2.7,3.1-6.9,3.1c-11.6,0-17.7-4.7-18-14h-3.1c-0.1-2.3,0.2-5,0.8-7.9c0.6-2.8,1.4-5.3,2.4-7.5h3.1
		c4.3-9.6,12.3-14.4,24.2-14.4h18.8L242,44.6h-18.8c-1.9,0-3.4,0.6-4.8,1.9h-3.1c-1.6,1.5-2.8,4-3.5,7.5c-0.8,3.8-0.6,6.4,0.6,7.9
		h3.1c0.8,1,2,1.5,3.7,1.5C220.9,63.4,222.3,62.9,223.5,61.9z"/>
	<path class="st1" d="M256.3,46.5l8.8-14.4h13.4l2.2,14.4h-3.1l2.6,16.9h3.1l1.9,12.4h-16.8l-0.3-3.1h-11.5l-1.7,3.1h-16.8l7.6-12.4
		h-3.1l10.4-16.9H256.3z M264.1,60.3l-0.5-6.2l-3.3,6.2H264.1z"/>
	<path class="st1" d="M323,62.1h3.1l3,13.8h-15.6l-2.7-12.5h-4l-2.7,12.5h-15.6l2.9-13.8h-3.1l3.5-16.3h3.1l2.9-13.7h21.9
		c11.7,0,17,4.6,15.8,13.7h-3.1c-0.1,0.6-0.2,1.3-0.3,1.9c-1.3,6.1-4.4,10.4-9.2,13L323,62.1z M307.4,45.8l-1.1,5.1h6.2
		c2.1,0,3.3-1,3.8-3.1c0.2-0.8,0.2-1.4,0-1.9h3.1c-0.3-0.8-1.1-1.2-2.4-1.2h-6.2l-0.2,1.2H307.4z"/>
	<path class="st1" d="M346.9,46.5l8.8-14.4h13.4l2.2,14.4h-3.1l2.6,16.9h3.1l1.9,12.4h-16.8l-0.3-3.1h-11.5l-1.7,3.1h-16.8l7.6-12.4
		h-3.1l10.4-16.9H346.9z M354.8,60.3l-0.5-6.2l-3.3,6.2H354.8z"/>
	<path class="st1" d="M407.9,61.9h-3.1c0.5-0.5,1-1,1.5-1.7h-5.1l2.7-12.5h21.9l-3,14.2h3.1l-3,14h-15.6l0.7-3.1
		c-0.4,2.1-2.7,3.1-6.9,3.1c-11.6,0-17.7-4.7-18-14h-3.1c-0.1-2.3,0.2-5,0.8-7.9c0.6-2.8,1.4-5.3,2.4-7.5h3.1
		c4.3-9.6,12.3-14.4,24.2-14.4H429l-2.7,12.5h-18.8c-1.9,0-3.4,0.6-4.8,1.9h-3.1c-1.6,1.5-2.8,4-3.5,7.5c-0.8,3.8-0.6,6.4,0.6,7.9
		h3.1c0.8,1,2,1.5,3.7,1.5S406.7,62.9,407.9,61.9z"/>
	<path class="st1" d="M441.3,62.5h3.1l-0.2,0.9h21.9l-2.7,12.5H426l2.9-13.4h-3.1l3.3-15.8h3.1l3.1-14.5h37.5l-2.7,12.5h-21.9
		l-0.4,2h-3.1l-0.2,1.1h21.9l-2.7,12.5h-21.9L441.3,62.5z"/>
</g>
<g>
	<g>
		<path class="st2" d="M226,63.7h-3.1c0.5-0.5,1-1,1.5-1.7h-5.1l2.7-12.5h21.9l-3,14.2h3.1l-3,14h-15.6l0.7-3.1
			c-0.4,2.1-2.7,3.1-6.9,3.1c-11.6,0-17.7-4.7-18-14h-3.1c-0.1-2.3,0.2-5,0.8-7.9c0.6-2.8,1.4-5.3,2.4-7.5h3.1
			c4.3-9.6,12.3-14.4,24.2-14.4h18.8l-2.7,12.5h-18.8c-1.9,0-3.4,0.6-4.8,1.9h-3.1c-1.6,1.5-2.8,4-3.5,7.5c-0.8,3.8-0.6,6.4,0.6,7.9
			h3.1c0.8,1,2,1.5,3.7,1.5C223.3,65.2,224.8,64.7,226,63.7z"/>
	</g>
	<g>
		<path class="st2" d="M258.7,48.3l8.8-14.4H281l2.2,14.4h-3.1l2.6,16.9h3.1l1.9,12.4H271l-0.3-3.1h-11.5l-1.7,3.1h-16.8l7.6-12.4
			h-3.1l10.4-16.9H258.7z M266.6,62.1l-0.5-6.2l-3.3,6.2H266.6z"/>
	</g>
	<g>
		<path class="st2" d="M325.4,63.9h3.1l3,13.8h-15.6l-2.7-12.5h-4l-2.7,12.5h-15.6l2.9-13.8h-3.1l3.5-16.3h3.1l2.9-13.7h21.9
			c11.7,0,17,4.6,15.7,13.7h-3.1c-0.1,0.6-0.2,1.3-0.3,1.9c-1.3,6.1-4.4,10.4-9.2,13L325.4,63.9z M309.8,47.6l-1.1,5.1h6.2
			c2.1,0,3.3-1,3.8-3.1c0.2-0.8,0.2-1.4,0-1.9h3.1c-0.3-0.8-1.1-1.2-2.4-1.2h-6.2l-0.2,1.2H309.8z"/>
	</g>
	<g>
		<path class="st2" d="M349.3,48.3l8.8-14.4h13.4l2.2,14.4h-3.1l2.6,16.9h3.1l1.9,12.4h-16.8l-0.3-3.1h-11.5l-1.7,3.1h-16.8
			l7.6-12.4h-3.1l10.4-16.9H349.3z M357.2,62.1l-0.5-6.2l-3.3,6.2H357.2z"/>
	</g>
	<g>
		<path class="st2" d="M410.3,63.7h-3.1c0.5-0.5,1-1,1.5-1.7h-5.1l2.7-12.5h21.9l-3,14.2h3.1l-3,14h-15.6l0.7-3.1
			c-0.4,2.1-2.7,3.1-6.9,3.1c-11.6,0-17.7-4.7-18-14h-3.1c-0.1-2.3,0.2-5,0.8-7.9c0.6-2.8,1.4-5.3,2.4-7.5h3.1
			c4.3-9.6,12.3-14.4,24.2-14.4h18.8l-2.7,12.5h-18.8c-1.9,0-3.4,0.6-4.8,1.9h-3.1c-1.6,1.5-2.8,4-3.5,7.5c-0.8,3.8-0.6,6.4,0.6,7.9
			h3.1c0.8,1,2,1.5,3.7,1.5C407.7,65.2,409.1,64.7,410.3,63.7z"/>
	</g>
	<g>
		<path class="st2" d="M443.7,64.3h3.1l-0.2,0.9h21.9l-2.7,12.5h-37.5l2.9-13.4h-3.1l3.3-15.8h3.1l3.1-14.5h37.5l-2.7,12.5h-21.9
			l-0.4,2h-3.1l-0.2,1.1h21.9l-2.7,12.5h-21.9L443.7,64.3z"/>
	</g>
</g>
<g>
	<path class="st0" d="M9.8,51.8L5,37.6h17.2l2.7,9.4l6.8-9.4h17.2L37.8,51.8h-3.1L26.2,63l-0.9,4.5h3.1l-3,14H9.8l3-14H9.6l0.9-4.5
		L6.7,51.8H9.8z"/>
	<path class="st0" d="M48.6,54.6c3.9-11.3,12.3-16.9,25.2-16.9c12.8,0,18.8,5.6,18,16.9h-3.1c-0.1,1.5-0.4,3.2-0.8,4.9
		c-0.6,2.7-1.4,5.2-2.3,7.4h3.1c-4.3,9.6-12.3,14.5-24.2,14.5c-11.9,0-17.9-4.8-18-14.5h-3.1c0-2.2,0.2-4.7,0.8-7.4
		c0.4-1.8,0.8-3.4,1.4-4.9H48.6z M75.8,54.6c-0.2-3-1.8-4.4-4.7-4.4s-5.1,1.5-6.6,4.4h-3.1c-0.7,1.3-1.2,3-1.7,4.9
		c-0.7,3.4-0.6,5.9,0.2,7.4h3.1c0.8,1.3,2.1,2,4,2c1.9,0,3.5-0.7,4.8-2h-3.1c1.5-1.5,2.7-4,3.4-7.4c0.4-2,0.6-3.6,0.4-4.9H75.8z"/>
	<path class="st0" d="M95.7,52l3.1-14.4h15.6L111.3,52h-3.1l-1.6,7.5c-0.7,3.4-0.6,5.9,0.2,7.4h3.1c0.8,1.3,2.1,2,4,2
		c1.9,0,3.5-0.7,4.8-2h-3.1c1.5-1.5,2.7-4,3.4-7.4l1.6-7.5h3.1l3.1-14.4h15.6L139.4,52h-3.1l-1.6,7.5c-0.6,2.7-1.4,5.2-2.3,7.4h3.1
		c-4.3,9.6-12.3,14.5-24.2,14.5c-11.9,0-17.9-4.8-18-14.5h-3.1c0-2.2,0.2-4.7,0.8-7.4l1.6-7.5H95.7z"/>
</g>
<g>
	<path class="st1" d="M4.8,47.8L0,33.6h17.2l2.7,9.4l6.8-9.4h17.2L32.8,47.8h-3.1L21.2,59l-0.9,4.5h3.1l-3,14H4.8l3-14H4.6L5.5,59
		L1.7,47.8H4.8z"/>
	<path class="st1" d="M43.6,50.6c3.9-11.3,12.3-16.9,25.2-16.9c12.8,0,18.8,5.6,18,16.9h-3.1c-0.1,1.5-0.4,3.2-0.8,4.9
		c-0.6,2.7-1.4,5.2-2.3,7.4h3.1c-4.3,9.6-12.3,14.5-24.2,14.5c-11.9,0-17.9-4.8-18-14.5h-3.1c0-2.2,0.2-4.7,0.8-7.4
		c0.4-1.8,0.8-3.4,1.4-4.9H43.6z M70.8,50.6c-0.2-3-1.8-4.4-4.7-4.4s-5.1,1.5-6.6,4.4h-3.1c-0.7,1.3-1.2,3-1.7,4.9
		c-0.7,3.4-0.6,5.9,0.2,7.4h3.1c0.8,1.3,2.1,2,4,2c1.9,0,3.5-0.7,4.8-2h-3.1c1.5-1.5,2.7-4,3.4-7.4c0.4-2,0.6-3.6,0.4-4.9H70.8z"/>
	<path class="st1" d="M90.7,48l3.1-14.4h15.6L106.3,48h-3.1l-1.6,7.5c-0.7,3.4-0.6,5.9,0.2,7.4h3.1c0.8,1.3,2.1,2,4,2
		c1.9,0,3.5-0.7,4.8-2h-3.1c1.5-1.5,2.7-4,3.4-7.4l1.6-7.5h3.1l3.1-14.4h15.6L134.4,48h-3.1l-1.6,7.5c-0.6,2.7-1.4,5.2-2.3,7.4h3.1
		c-4.3,9.6-12.3,14.5-24.2,14.5c-11.9,0-17.9-4.8-18-14.5h-3.1c0-2.2,0.2-4.7,0.8-7.4l1.6-7.5H90.7z"/>
</g>
<g>
	<g>
		<path class="st2" d="M7.3,49.6L2.4,35.5h17.2l2.7,9.4l6.8-9.4h17.2L35.3,49.6h-3.1l-8.6,11.1l-0.9,4.5h3.1l-3,14H7.2l3-14H7
			L8,60.8L4.2,49.6H7.3z"/>
	</g>
	<g>
		<path class="st2" d="M46,52.4C50,41.1,58.4,35.5,71.2,35.5c12.8,0,18.8,5.6,18,16.9H86c-0.1,1.5-0.4,3.2-0.8,4.9
			c-0.6,2.7-1.4,5.2-2.3,7.4h3.1c-4.3,9.6-12.3,14.5-24.2,14.5c-11.9,0-17.9-4.8-18-14.5h-3.1c0-2.2,0.2-4.7,0.8-7.4
			c0.4-1.8,0.8-3.4,1.4-4.9H46z M73.2,52.4c-0.2-3-1.8-4.4-4.7-4.4s-5.1,1.5-6.6,4.4h-3.1c-0.7,1.3-1.2,3-1.7,4.9
			c-0.7,3.4-0.6,5.9,0.2,7.4h3.1c0.8,1.3,2.1,2,4,2c1.9,0,3.5-0.7,4.8-2h-3.1c1.5-1.5,2.7-4,3.4-7.4c0.4-2,0.6-3.6,0.4-4.9H73.2z"/>
	</g>
	<g>
		<path class="st2" d="M93.1,49.8l3.1-14.4h15.6l-3.1,14.4h-3.1l-1.6,7.5c-0.7,3.4-0.6,5.9,0.2,7.4h3.1c0.8,1.3,2.1,2,4,2
			c1.9,0,3.5-0.7,4.8-2h-3.1c1.5-1.5,2.7-4,3.4-7.4l1.6-7.5h3.1l3.1-14.4h15.6l-3.1,14.4h-3.1l-1.6,7.5c-0.6,2.7-1.4,5.2-2.3,7.4
			h3.1c-4.3,9.6-12.3,14.5-24.2,14.5c-11.9,0-17.9-4.8-18-14.5h-3.1c0-2.2,0.2-4.7,0.8-7.4l1.6-7.5H93.1z"/>
	</g>
</g>
<path class="st0" d="M174.2,66.2h3.1l3,13.8h-15.6L162,67.5h-4L155.3,80h-15.6l2.9-12.8h-3.1l3.5-16.3h3.1l2.9-13.7l21.9-1
	c11.7,0,17,4.6,15.8,13.7h-3.1c-0.1,0.6-0.2,1.3-0.3,1.9c-1.3,6.1-4.4,10.4-9.2,13L174.2,66.2z M158.6,49.9l-1.1,5.1h6.2
	c2.1,0,3.3-1,3.8-3.1c0.2-0.8,0.2-1.4,0-1.9h3.1c-0.3-0.8-1.1-1.2-2.4-1.2h-6.2l-0.2,1.2H158.6z"/>
<path class="st1" d="M169.2,62.2h3.1l3,13.8h-15.6L157,63.5h-4L150.3,76h-15.6l2.9-12.8h-3.1l3.5-16.3h3.1l2.9-13.7l21.9-1
	c11.7,0,17,4.6,15.8,13.7h-3.1c-0.1,0.6-0.2,1.3-0.3,1.9c-1.3,6.1-4.4,10.4-9.2,13L169.2,62.2z M153.6,45.9l-1.1,5.1h6.2
	c2.1,0,3.3-1,3.8-3.1c0.2-0.8,0.2-1.4,0-1.9h3.1c-0.3-0.8-1.1-1.2-2.4-1.2h-6.2l-0.2,1.2H153.6z"/>
<g>
	<path class="st2" d="M171.6,64h3.1l3,13.8h-15.6l-2.7-12.5h-4l-2.7,12.5h-15.6L140,65h-3.1l3.5-16.3h3.1l2.9-13.7l21.9-1
		c11.7,0,17,4.6,15.7,13.7h-3.1c-0.1,0.6-0.2,1.3-0.3,1.9c-1.3,6.1-4.4,10.4-9.2,13L171.6,64z M156,47.7l-1.1,5.1h6.2
		c2.1,0,3.3-1,3.8-3.1c0.2-0.8,0.2-1.4,0-1.9h3.1c-0.3-0.8-1.1-1.2-2.4-1.2h-6.2l-0.2,1.2H156z"/>
</g>
<g>
	<path class="st0" d="M19.3,14.7h1.3c-0.9,3.9-4,5.9-9.3,5.9H1.9l1.1-5.4h9.4c0.7,0,1.2-0.2,1.4-0.5h-1.3c0-0.1,0.1-0.1,0.1-0.2
		c0.1-0.4-0.3-0.5-1.2-0.5h-1.3C4.7,14,2.4,12,3.3,8c0-0.1,0-0.2,0.1-0.3h1.3c1-3.9,4.1-5.8,9.3-5.8h9.4l-1.1,5.4h-9.4
		c-0.6,0-1.1,0.1-1.3,0.4h-1.3C10.1,7.7,10,7.9,10,8c-0.1,0.4,0.3,0.5,1.2,0.5h1.3c5.4,0,7.6,2,6.8,5.9L19.3,14.7z"/>
	<path class="st0" d="M24.8,8.1L26,1.9h6.7l-1.3,6.2h-1.3l-0.7,3.2c-0.3,1.5-0.3,2.5,0.1,3.2h1.3c0.3,0.5,0.9,0.8,1.7,0.8
		c0.8,0,1.5-0.3,2.1-0.8h-1.3c0.6-0.6,1.1-1.7,1.5-3.2l0.7-3.2h1.3l1.4-6.2h6.7l-1.3,6.2h-1.3l-0.7,3.2c-0.2,1.2-0.6,2.2-1,3.2h1.3
		c-1.8,4.1-5.3,6.2-10.4,6.2s-7.6-2.1-7.7-6.2h-1.3c0-1,0.1-2,0.4-3.2l0.7-3.2H24.8z"/>
	<path class="st0" d="M56.8,14.7h1.3c-1.2,0.4-2.5,0.5-4.1,0.5h-2.7l-1.1,5.4h-6.7l1.3-5.9h-1.3l1.5-7h1.3l1.2-5.8h9.4
		c5,0,7.2,1.9,6.8,5.8h-1.3c0,0.3-0.1,0.6-0.2,0.9C61.5,11.8,59.7,13.8,56.8,14.7z M51.7,7.7l-0.5,2.2h2.7c0.9,0,1.4-0.5,1.6-1.3
		c0.1-0.4,0.1-0.7,0-0.9h1.3c-0.1-0.3-0.5-0.4-1-0.4H53L53,7.7H51.7z"/>
	<path class="st0" d="M70.3,14.9h1.3l-0.1,0.4h9.4l-1.1,5.4H63.7l1.2-5.8h-1.3L65,8.1h1.3l1.3-6.2h16.1l-1.1,5.4h-9.4l-0.2,0.9h-1.3
		l-0.1,0.5H81l-1.1,5.4h-9.4L70.3,14.9z"/>
	<path class="st0" d="M97.3,14.7h1.3l1.3,5.9h-6.7l-1.1-5.4h-1.7l-1.1,5.4h-6.7l1.3-5.9h-1.3l1.5-7h1.3l1.2-5.9h9.4
		c5,0,7.3,2,6.8,5.9h-1.3c0,0.3-0.1,0.5-0.1,0.8c-0.5,2.6-1.9,4.5-4,5.6L97.3,14.7z M90.6,7.7l-0.5,2.2h2.7c0.9,0,1.4-0.5,1.6-1.3
		c0.1-0.3,0-0.6,0-0.8h1.3c-0.1-0.3-0.5-0.5-1.1-0.5h-2.7L92,7.7C92,7.7,90.6,7.7,90.6,7.7z"/>
	<path class="st0" d="M109.2,15h1.3l-1.2,5.7h-6.7l1.2-5.7h-1.3l1.5-7.1h1.3l1.3-5.9h16.1l-1.1,5.4h-9.4l-0.1,0.6h-1.3l-0.2,0.8h9.4
		l-1.1,5.4h-9.4L109.2,15z"/>
	<path class="st0" d="M127.7,8.1l3.8-6.2h5.8l1,6.2h-1.3l1.1,7.3h1.3l0.8,5.4H133l-0.1-1.3h-4.9l-0.7,1.3H120l3.2-5.4h-1.3l4.5-7.3
		C126.4,8.1,127.7,8.1,127.7,8.1z M131.1,14l-0.2-2.7l-1.4,2.7H131.1z"/>
	<path class="st0" d="M160.3,14.7h1.3c-1,3.9-4,5.9-9.3,5.9h-9.4l1.1-5.4h9.4c0.7,0,1.2-0.2,1.4-0.5h-1.3c0-0.1,0.1-0.1,0.1-0.2
		c0.1-0.4-0.3-0.5-1.2-0.5h-1.3c-5.4,0-7.6-2-6.8-5.9c0-0.1,0-0.2,0.1-0.4h1.3c1-3.9,4.1-5.8,9.2-5.8h9.4l-1.1,5.4h-9.4
		c-0.6,0-1.1,0.1-1.3,0.4h-1.3C151.1,7.7,151,7.9,151,8c-0.1,0.4,0.3,0.5,1.2,0.5h1.3c5.4,0,7.6,2,6.8,5.9L160.3,14.7z"/>
	<path class="st0" d="M175.1,14.5h1.3l-1.3,6.2h-6.7l1.3-6.2h-1.3l1.4-6.4h1.3l0.2-0.8H166l1.1-5.3h17.4l-1.1,5.4H178l-0.2,0.8h-1.3
		L175.1,14.5z"/>
	<path class="st0" d="M191,15.3l-1.1,5.4h-6.7l1.1-5.4H191z"/>
	<path class="st0" d="M212.4,8.6c0,0.4,0,0.8-0.1,1.3h-6.7c0-0.5,0-0.9-0.1-1.3h1.3c-0.2-0.9-0.9-1.4-1.9-1.4s-1.9,0.5-2.5,1.4H201
		c-0.5,0.6-0.8,1.6-1,2.7c-0.2,1-0.3,1.7-0.2,2.4h1.3c0.2,1.1,0.8,1.6,2,1.6c1.1,0,2.1-0.5,2.7-1.6h-1.3c0.2-0.3,0.3-0.6,0.5-1h6.7
		c-0.1,0.4-0.2,0.7-0.3,1h1.3c-1.6,4.7-5.2,7-10.7,7s-8-2.3-7.7-7h-1.3c0-0.7,0.1-1.5,0.3-2.4c0.2-1,0.5-1.8,0.8-2.7h1.3
		c1.8-4.4,5.4-6.7,10.7-6.7s7.9,2.2,7.7,6.7H212.4z"/>
	<path class="st0" d="M220.4,8.1l3.8-6.2h5.8l1,6.2h-1.3l1.1,7.3h1.3l0.8,5.4h-7.2l-0.1-1.3h-4.9l-0.7,1.3h-7.2l3.2-5.4h-1.3
		l4.5-7.3C219,8.1,220.4,8.1,220.4,8.1z M223.8,14l-0.2-2.7l-1.4,2.7H223.8z"/>
	<path class="st0" d="M250.4,14.7h1.3l1.3,5.9h-6.7l-1.1-5.4h-1.7l-1.1,5.4h-6.7l1.3-5.9h-1.3l1.5-7h1.3l1.1-5.9h9.4
		c5,0,7.3,2,6.8,5.9h-1.3c0,0.3-0.1,0.5-0.1,0.8c-0.5,2.6-1.9,4.5-4,5.6L250.4,14.7z M243.7,7.7l-0.5,2.2h2.7c0.9,0,1.4-0.5,1.6-1.3
		c0.1-0.3,0-0.6,0-0.8h1.3c-0.1-0.3-0.5-0.5-1.1-0.5h-2.7L245,7.7C245,7.7,243.7,7.7,243.7,7.7z"/>
	<path class="st0" d="M274,14.6h1.3c-1.9,4-5.3,6-10.3,6h-9.4l1.3-6h-1.3l1.2-5.8h1.3l1.5-7h9.4c5.4,0,8,2.3,7.7,7h-1.3
		c0,0.7-0.1,1.6-0.3,2.4C274.9,12.5,274.5,13.6,274,14.6z M262.3,14.6h1.3l-0.1,0.6h2.7c0.7,0,1.3-0.2,1.8-0.6h-1.3
		c0.8-0.6,1.4-1.8,1.7-3.4c0.2-1,0.3-1.8,0.1-2.4h1.3c-0.2-1.1-0.8-1.6-2-1.6h-2.7l-0.4,1.6h-1.3L262.3,14.6z"/>
	<path class="st0" d="M294.5,14.7h1.3c-1,3.9-4,5.9-9.3,5.9h-9.4l1.1-5.4h9.4c0.7,0,1.2-0.2,1.4-0.5h-1.3c0-0.1,0.1-0.1,0.1-0.2
		c0.1-0.4-0.3-0.5-1.2-0.5h-1.3c-5.4,0-7.6-2-6.8-5.9c0-0.1,0-0.2,0.1-0.4h1.3c1-3.9,4-5.8,9.2-5.8h9.4l-1.1,5.4h-9.4
		c-0.6,0-1.1,0.1-1.3,0.4h-1.3c-0.1,0.1-0.1,0.2-0.2,0.4c-0.1,0.4,0.3,0.5,1.2,0.5h1.3c5.4,0,7.6,2,6.8,5.9L294.5,14.7z"/>
</g>
<g>
	<path class="st1" d="M17.4,12.9h1.3c-0.9,3.9-4,5.9-9.3,5.9H0.1l1.1-5.4h9.4c0.7,0,1.2-0.2,1.4-0.5h-1.3c0-0.1,0.1-0.1,0.1-0.2
		c0.1-0.4-0.3-0.5-1.2-0.5H8.2c-5.4,0-7.6-2-6.8-5.9c0-0.1,0-0.2,0.1-0.3h1.3C3.9,2,6.9,0,12.1,0h9.4l-1.1,5.4H11
		c-0.6,0-1.1,0.1-1.3,0.4H8.3C8.2,5.9,8.2,6,8.2,6.2C8.1,6.5,8.5,6.7,9.4,6.7h1.3c5.4,0,7.6,2,6.8,5.9L17.4,12.9z"/>
	<path class="st1" d="M22.9,6.2L24.2,0h6.7l-1.3,6.2h-1.3l-0.7,3.2c-0.3,1.5-0.3,2.5,0.1,3.2H29c0.3,0.5,0.9,0.8,1.7,0.8
		c0.8,0,1.5-0.3,2.1-0.8h-1.3c0.6-0.6,1.1-1.7,1.5-3.2l0.7-3.2h1.3L36.3,0H43l-1.3,6.2h-1.3l-0.7,3.2c-0.2,1.2-0.6,2.2-1,3.2H40
		c-1.8,4.1-5.3,6.2-10.4,6.2s-7.6-2.1-7.7-6.2h-1.3c0-1,0.1-2,0.4-3.2l0.7-3.2H22.9z"/>
	<path class="st1" d="M55,12.9h1.3c-1.2,0.4-2.5,0.5-4.1,0.5h-2.7l-1.1,5.4h-6.7l1.3-5.9h-1.3l1.5-7h1.3L45.7,0h9.4
		c5,0,7.2,1.9,6.8,5.8h-1.3c0,0.3-0.1,0.6-0.2,0.9C59.7,9.9,57.9,12,55,12.9z M49.8,5.9l-0.5,2.2H52c0.9,0,1.4-0.5,1.6-1.3
		c0.1-0.4,0.1-0.7,0-0.9h1.3c-0.1-0.3-0.5-0.4-1-0.4h-2.7l-0.1,0.4C51.1,5.9,49.8,5.9,49.8,5.9z"/>
	<path class="st1" d="M68.5,13h1.3l-0.1,0.4h9.4l-1.1,5.4H61.9l1.2-5.8h-1.3l1.4-6.8h1.3L65.9,0H82l-1.1,5.4h-9.4l-0.2,0.9h-1.3
		l-0.1,0.5h9.4l-1.1,5.4h-9.4L68.5,13z"/>
	<path class="st1" d="M95.5,12.9h1.3l1.3,5.9h-6.7l-1.1-5.4h-1.7l-1.1,5.4h-6.7l1.3-5.9h-1.3l1.5-7h1.3L84.7,0H94c5,0,7.3,2,6.8,5.9
		h-1.3c0,0.3-0.1,0.5-0.1,0.8c-0.5,2.6-1.9,4.5-4,5.6L95.5,12.9z M88.8,5.9l-0.5,2.2H91c0.9,0,1.4-0.5,1.6-1.3c0.1-0.3,0-0.6,0-0.8
		H94c-0.1-0.3-0.5-0.5-1.1-0.5h-2.7l-0.1,0.5H88.8z"/>
	<path class="st1" d="M107.4,13.1h1.3l-1.2,5.7h-6.7l1.2-5.7h-1.3l1.5-7.1h1.3l1.3-5.9h16.1l-1.1,5.4h-9.4l-0.1,0.6h-1.3l-0.2,0.8
		h9.4l-1.1,5.4h-9.4L107.4,13.1z"/>
	<path class="st1" d="M125.9,6.2l3.8-6.2h5.8l1,6.2h-1.3l1.1,7.3h1.3l0.8,5.4h-7.2l-0.1-1.3h-4.9l-0.7,1.3h-7.2l3.2-5.4h-1.3
		l4.5-7.3C124.6,6.2,125.9,6.2,125.9,6.2z M129.3,12.1l-0.2-2.7l-1.4,2.7H129.3z"/>
	<path class="st1" d="M158.4,12.9h1.3c-1,3.9-4,5.9-9.3,5.9h-9.4l1.1-5.4h9.4c0.7,0,1.2-0.2,1.4-0.5h-1.3c0-0.1,0.1-0.1,0.1-0.2
		c0.1-0.4-0.3-0.5-1.2-0.5h-1.3c-5.4,0-7.6-2-6.8-5.9c0-0.1,0-0.2,0.1-0.4h1.3c1-3.9,4.1-5.8,9.2-5.8h9.4l-1.1,5.4H152
		c-0.6,0-1.1,0.1-1.3,0.4h-1.3c-0.1,0.1-0.1,0.2-0.2,0.4c-0.1,0.4,0.3,0.5,1.2,0.5h1.3c5.4,0,7.6,2,6.8,5.9L158.4,12.9z"/>
	<path class="st1" d="M173.3,12.6h1.3l-1.3,6.2h-6.7l1.3-6.2h-1.3l1.4-6.4h1.3l0.2-0.8h-5.4l1.1-5.3h17.4l-1.1,5.4h-5.4L176,6.2
		h-1.3L173.3,12.6z"/>
	<path class="st1" d="M189.2,13.5l-1.1,5.4h-6.7l1.1-5.4H189.2z"/>
	<path class="st1" d="M210.5,6.8c0,0.4,0,0.8-0.1,1.3h-6.7c0-0.5,0-0.9-0.1-1.3h1.3c-0.2-0.9-0.9-1.4-1.9-1.4
		c-1.1,0-1.9,0.5-2.5,1.4h-1.4c-0.5,0.6-0.8,1.6-1,2.7c-0.2,1-0.3,1.7-0.2,2.4h1.3c0.2,1.1,0.8,1.6,2,1.6s2.1-0.5,2.7-1.6h-1.3
		c0.2-0.3,0.3-0.6,0.5-1h6.7c-0.1,0.4-0.2,0.7-0.3,1h1.3c-1.6,4.7-5.2,7-10.7,7c-5.4,0-8-2.3-7.7-7h-1.3c0-0.7,0.1-1.5,0.3-2.4
		c0.2-1,0.5-1.8,0.8-2.7h1.3c1.8-4.4,5.4-6.7,10.7-6.7s7.9,2.2,7.7,6.7H210.5z"/>
	<path class="st1" d="M218.5,6.2l3.8-6.2h5.8l1,6.2h-1.3l1.1,7.3h1.3l0.8,5.4h-7.2l-0.1-1.3h-4.9l-0.7,1.3h-7.2l3.2-5.4h-1.3
		l4.5-7.3C217.2,6.2,218.5,6.2,218.5,6.2z M221.9,12.1l-0.2-2.7l-1.4,2.7H221.9z"/>
	<path class="st1" d="M248.6,12.9h1.3l1.3,5.9h-6.7l-1.1-5.4h-1.7l-1.1,5.4h-6.7l1.3-5.9h-1.3l1.5-7h1.3l1.1-5.9h9.4
		c5,0,7.3,2,6.8,5.9h-1.3c0,0.3-0.1,0.5-0.1,0.8c-0.5,2.6-1.9,4.5-4,5.6L248.6,12.9z M241.8,5.9l-0.5,2.2h2.7c0.9,0,1.4-0.5,1.6-1.3
		c0.1-0.3,0-0.6,0-0.8h1.3c-0.1-0.3-0.5-0.5-1.1-0.5h-2.7l-0.1,0.5H241.8z"/>
	<path class="st1" d="M272.2,12.8h1.3c-1.9,4-5.3,6-10.3,6h-9.4l1.3-6h-1.3l1.2-5.8h1.3l1.5-7h9.4c5.4,0,8,2.3,7.7,7h-1.3
		c0,0.7-0.1,1.6-0.3,2.4C273,10.7,272.7,11.8,272.2,12.8z M260.5,12.8h1.3l-0.1,0.6h2.7c0.7,0,1.3-0.2,1.8-0.6h-1.3
		c0.8-0.6,1.4-1.8,1.7-3.4c0.2-1,0.3-1.8,0.1-2.4h1.3c-0.2-1.1-0.8-1.6-2-1.6h-2.7L263,7h-1.3L260.5,12.8z"/>
	<path class="st1" d="M292.7,12.9h1.3c-1,3.9-4,5.9-9.3,5.9h-9.4l1.1-5.4h9.4c0.7,0,1.2-0.2,1.4-0.5H286c0-0.1,0.1-0.1,0.1-0.2
		c0.1-0.4-0.3-0.5-1.2-0.5h-1.3c-5.4,0-7.6-2-6.8-5.9c0-0.1,0-0.2,0.1-0.4h1.3c1-3.9,4-5.8,9.2-5.8h9.4l-1.1,5.4h-9.4
		c-0.6,0-1.1,0.1-1.3,0.4h-1.3c-0.1,0.1-0.1,0.2-0.2,0.4c-0.1,0.4,0.3,0.5,1.2,0.5h1.3c5.4,0,7.6,2,6.8,5.9L292.7,12.9z"/>
</g>
<g>
	<g>
		<path class="st2" d="M18.4,13.8h1.3c-0.9,3.9-4,5.9-9.3,5.9H1l1.1-5.4h9.4c0.7,0,1.2-0.2,1.4-0.5h-1.3c0-0.1,0.1-0.1,0.1-0.2
			c0.1-0.4-0.3-0.5-1.2-0.5H9.2c-5.4,0-7.6-2-6.8-5.9c0-0.1,0-0.2,0.1-0.3h1.3C4.8,2.9,7.8,1,13.1,1h9.4l-1.1,5.4h-9.4
			c-0.6,0-1.1,0.1-1.3,0.4H9.3C9.2,6.8,9.1,7,9.1,7.1C9,7.5,9.4,7.6,10.3,7.6h1.3c5.4,0,7.6,2,6.8,5.9L18.4,13.8z"/>
	</g>
	<g>
		<path class="st2" d="M23.9,7.1L25.1,1h6.7l-1.3,6.2h-1.3l-0.7,3.2c-0.3,1.5-0.3,2.5,0.1,3.2h1.3c0.3,0.5,0.9,0.8,1.7,0.8
			c0.8,0,1.5-0.3,2.1-0.8h-1.3c0.6-0.6,1.1-1.7,1.5-3.2l0.7-3.2h1.3L37.2,1h6.7l-1.3,6.2h-1.3l-0.7,3.2c-0.2,1.2-0.6,2.2-1,3.2h1.3
			c-1.8,4.1-5.3,6.2-10.4,6.2s-7.6-2.1-7.7-6.2h-1.3c0-1,0.1-2,0.4-3.2l0.7-3.2H23.9z"/>
	</g>
	<g>
		<path class="st2" d="M55.9,13.8h1.3c-1.2,0.4-2.5,0.5-4.1,0.5h-2.7l-1.1,5.4h-6.7l1.3-5.9h-1.3l1.5-7h1.3L46.6,1H56
			c5,0,7.2,1.9,6.8,5.8h-1.3c0,0.3-0.1,0.6-0.2,0.9C60.6,10.8,58.8,12.9,55.9,13.8z M50.8,6.8L50.3,9H53c0.9,0,1.4-0.5,1.6-1.3
			c0.1-0.4,0.1-0.7,0-0.9h1.3c-0.1-0.3-0.5-0.4-1-0.4h-2.7L52,6.8C52,6.8,50.8,6.8,50.8,6.8z"/>
	</g>
	<g>
		<polygon class="st2" points="69.4,14 70.7,14 70.6,14.4 80,14.4 78.9,19.7 62.8,19.7 64,14 62.7,14 64.1,7.2 65.4,7.2 66.8,1 
			82.9,1 81.7,6.3 72.4,6.3 72.2,7.2 70.8,7.2 70.8,7.6 80.1,7.6 79,13 69.6,13 		"/>
	</g>
	<g>
		<path class="st2" d="M96.4,13.8h1.3l1.3,5.9h-6.7l-1.1-5.4h-1.7l-1.1,5.4h-6.7l1.3-5.9h-1.3l1.5-7h1.3L85.6,1H95
			c5,0,7.3,2,6.8,5.9h-1.3c0,0.3-0.1,0.5-0.1,0.8c-0.5,2.6-1.9,4.5-4,5.6L96.4,13.8z M89.7,6.8L89.2,9h2.7c0.9,0,1.4-0.5,1.6-1.3
			c0.1-0.3,0-0.6,0-0.8h1.3c-0.1-0.3-0.5-0.5-1.1-0.5h-2.7l-0.1,0.5H89.7z"/>
	</g>
	<g>
		<polygon class="st2" points="108.3,14 109.6,14 108.4,19.7 101.7,19.7 103,14 101.6,14 103.1,6.9 104.5,6.9 105.8,0.9 121.8,0.9 
			120.7,6.3 111.3,6.3 111.2,6.9 109.8,6.9 109.6,7.6 119,7.6 117.9,13 108.5,13 		"/>
	</g>
	<g>
		<path class="st2" d="M126.8,7.1l3.8-6.2h5.8l1,6.2H136l1.1,7.3h1.3l0.8,5.4h-7.2l-0.1-1.3H127l-0.7,1.3h-7.2l3.2-5.4H121l4.5-7.3
			C125.5,7.1,126.8,7.1,126.8,7.1z M130.2,13l-0.2-2.7l-1.4,2.7H130.2z"/>
	</g>
	<g>
		<path class="st2" d="M159.3,13.8h1.3c-1,3.9-4,5.9-9.3,5.9H142l1.1-5.4h9.4c0.7,0,1.2-0.2,1.4-0.5h-1.3c0-0.1,0.1-0.1,0.1-0.2
			c0.1-0.4-0.3-0.5-1.2-0.5h-1.3c-5.4,0-7.6-2-6.8-5.9c0-0.1,0-0.2,0.1-0.4h1.3c1-3.9,4.1-5.8,9.2-5.8h9.4l-1.1,5.4h-9.4
			c-0.6,0-1.1,0.1-1.3,0.4h-1.3c-0.1,0.1-0.1,0.2-0.2,0.4c-0.1,0.4,0.3,0.5,1.2,0.5h1.3c5.4,0,7.6,2,6.8,5.9L159.3,13.8z"/>
	</g>
	<g>
		<polygon class="st2" points="174.2,13.5 175.5,13.5 174.2,19.7 167.5,19.7 168.9,13.5 167.5,13.5 168.9,7.1 170.2,7.1 170.4,6.3 
			165.1,6.3 166.2,1 183.6,1 182.4,6.3 177.1,6.3 176.9,7.1 175.6,7.1 		"/>
	</g>
	<g>
		<polygon class="st2" points="190.1,14.4 189,19.7 182.3,19.7 183.4,14.4 		"/>
	</g>
	<g>
		<path class="st2" d="M211.5,7.7c0,0.4,0,0.8-0.1,1.3h-6.7c0-0.5,0-0.9-0.1-1.3h1.3c-0.2-0.9-0.9-1.4-1.9-1.4
			c-1.1,0-1.9,0.5-2.5,1.4h-1.4c-0.5,0.6-0.8,1.6-1,2.7c-0.2,1-0.3,1.7-0.2,2.4h1.3c0.2,1.1,0.8,1.6,2,1.6s2.1-0.5,2.7-1.6h-1.3
			c0.2-0.3,0.3-0.6,0.5-1h6.7c-0.1,0.4-0.2,0.7-0.3,1h1.3c-1.6,4.7-5.2,7-10.7,7c-5.4,0-8-2.3-7.7-7H192c0-0.7,0.1-1.5,0.3-2.4
			c0.2-1,0.5-1.8,0.8-2.7h1.3c1.8-4.4,5.4-6.7,10.7-6.7c5.3,0,7.9,2.2,7.7,6.7H211.5z"/>
	</g>
	<g>
		<path class="st2" d="M219.5,7.1l3.8-6.2h5.8l1,6.2h-1.3l1.1,7.3h1.3l0.8,5.4h-7.2l-0.1-1.3h-4.9l-0.7,1.3h-7.2l3.2-5.4h-1.3
			l4.5-7.3C218.1,7.1,219.5,7.1,219.5,7.1z M222.8,13l-0.2-2.7l-1.4,2.7H222.8z"/>
	</g>
	<g>
		<path class="st2" d="M249.5,13.8h1.3l1.3,5.9h-6.7l-1.1-5.4h-1.7l-1.1,5.4h-6.7l1.3-5.9h-1.3l1.5-7h1.3l1.1-5.9h9.4
			c5,0,7.3,2,6.8,5.9h-1.3c0,0.3-0.1,0.5-0.1,0.8c-0.5,2.6-1.9,4.5-4,5.6L249.5,13.8z M242.8,6.8L242.3,9h2.7c0.9,0,1.4-0.5,1.6-1.3
			c0.1-0.3,0-0.6,0-0.8h1.3c-0.1-0.3-0.5-0.5-1.1-0.5h-2.7l-0.1,0.5H242.8z"/>
	</g>
	<g>
		<path class="st2" d="M273.1,13.7h1.3c-1.9,4-5.3,6-10.3,6h-9.4l1.3-6h-1.3l1.2-5.8h1.3l1.5-7h9.4c5.4,0,8,2.3,7.7,7h-1.3
			c0,0.7-0.1,1.6-0.3,2.4C274,11.6,273.6,12.7,273.1,13.7z M261.4,13.7h1.3l-0.1,0.6h2.7c0.7,0,1.3-0.2,1.8-0.6h-1.3
			c0.8-0.6,1.4-1.8,1.7-3.4c0.2-1,0.3-1.8,0.1-2.4h1.3c-0.2-1.1-0.8-1.6-2-1.6h-2.7l-0.4,1.6h-1.3L261.4,13.7z"/>
	</g>
	<g>
		<path class="st2" d="M293.6,13.8h1.3c-1,3.9-4,5.9-9.3,5.9h-9.4l1.1-5.4h9.4c0.7,0,1.2-0.2,1.4-0.5h-1.3c0-0.1,0.1-0.1,0.1-0.2
			c0.1-0.4-0.3-0.5-1.2-0.5h-1.3c-5.4,0-7.6-2-6.8-5.9c0-0.1,0-0.2,0.1-0.4h1.3c1-3.9,4-5.8,9.2-5.8h9.4l-1.1,5.4h-9.4
			c-0.6,0-1.1,0.1-1.3,0.4h-1.3c-0.1,0.1-0.1,0.2-0.2,0.4c-0.1,0.4,0.3,0.5,1.2,0.5h1.3c5.4,0,7.6,2,6.8,5.9L293.6,13.8z"/>
	</g>
</g>
</svg>
