<?xml version="1.0" encoding="utf-8"?>
<!-- Generator: Adobe Illustrator 26.0.3, SVG Export Plug-In . SVG Version: 6.00 Build 0)  -->
<svg version="1.1" id="Ebene_1" xmlns="http://www.w3.org/2000/svg" xmlns:xlink="http://www.w3.org/1999/xlink" x="0px" y="0px"
	 viewBox="0 0 511.2 79.4" style="enable-background:new 0 0 511.2 79.4;" xml:space="preserve">
<style type="text/css">
	.st0{fill:#FF008D;}
	.st1{fill:#00AFF4;}
	.st2{fill:#FFFFFF;}
</style>
<g>
	<path class="st0" d="M20.7,14.7H22c-0.9,3.9-4,5.9-9.3,5.9H3.3l1.1-5.4h9.4c0.7,0,1.2-0.2,1.4-0.5h-1.3c0-0.1,0.1-0.1,0.1-0.2
		c0.1-0.4-0.3-0.5-1.2-0.5h-1.3C6.1,14,3.8,12,4.7,8c0-0.1,0-0.2,0.1-0.3h1.3c1-3.9,4.1-5.8,9.3-5.8h9.4l-1.1,5.4h-9.4
		c-0.6,0-1.1,0.1-1.3,0.4h-1.3c-0.1,0.1-0.1,0.2-0.2,0.4c-0.1,0.4,0.3,0.5,1.2,0.5h1.3c5.4,0,7.6,2,6.8,5.9L20.7,14.7z"/>
	<path class="st0" d="M26.2,8.1l1.3-6.2h6.7l-1.3,6.2h-1.3l-0.7,3.2c-0.3,1.5-0.3,2.5,0.1,3.2h1.3c0.3,0.5,0.9,0.8,1.7,0.8
		s1.5-0.3,2.1-0.8h-1.3c0.6-0.6,1.1-1.7,1.5-3.2l0.7-3.2h1.3l1.4-6.2h6.7l-1.3,6.2h-1.3l-0.7,3.2c-0.2,1.2-0.6,2.2-1,3.2h1.3
		c-1.8,4.1-5.3,6.2-10.4,6.2s-7.6-2.1-7.7-6.2h-1.3c0-1,0.1-2,0.4-3.2l0.7-3.2H26.2z"/>
	<path class="st0" d="M58.2,14.7h1.3c-1.2,0.4-2.5,0.5-4.1,0.5h-2.7l-1.1,5.4H45l1.3-5.9h-1.3l1.5-7h1.3l1.2-5.8h9.4
		c5,0,7.2,1.9,6.8,5.8h-1.3c0,0.3-0.1,0.6-0.2,0.9C62.9,11.8,61.1,13.8,58.2,14.7z M53.1,7.7l-0.5,2.2h2.7c0.9,0,1.4-0.5,1.6-1.3
		c0.1-0.4,0.1-0.7,0-0.9h1.3c-0.1-0.3-0.5-0.4-1-0.4h-2.7l-0.1,0.4H53.1z"/>
	<path class="st0" d="M71.7,14.9H73l-0.1,0.4h9.4l-1.1,5.4H65.1l1.2-5.8H65l1.4-6.8h1.3l1.3-6.2h16.1L84,7.2h-9.4l-0.2,0.9h-1.3
		l-0.1,0.5h9.4l-1.1,5.4h-9.4L71.7,14.9z"/>
	<path class="st0" d="M98.7,14.7h1.3l1.3,5.9h-6.7l-1.1-5.4h-1.7l-1.1,5.4h-6.7l1.3-5.9h-1.3l1.5-7h1.3l1.2-5.9h9.4
		c5,0,7.3,2,6.8,5.9h-1.3c0,0.3-0.1,0.5-0.1,0.8c-0.5,2.6-1.9,4.5-4,5.6L98.7,14.7z M92,7.7l-0.5,2.2h2.7c0.9,0,1.4-0.5,1.6-1.3
		c0.1-0.3,0-0.6,0-0.8h1.3c-0.1-0.3-0.5-0.5-1.1-0.5h-2.7l-0.1,0.5C93.4,7.7,92,7.7,92,7.7z"/>
	<path class="st0" d="M110.6,15h1.3l-1.2,5.7H104l1.2-5.7h-1.3l1.5-7.1h1.3l1.3-5.9h16.1L123,7.2h-9.4l-0.1,0.6h-1.3L112,8.6h9.4
		l-1.1,5.4h-9.4L110.6,15z"/>
	<path class="st0" d="M129.1,8.1l3.8-6.2h5.8l1,6.2h-1.3l1.1,7.3h1.3l0.8,5.4h-7.2l-0.1-1.3h-4.9l-0.7,1.3h-7.2l3.2-5.4h-1.3
		l4.5-7.3C127.8,8.1,129.1,8.1,129.1,8.1z M132.5,14l-0.2-2.7l-1.4,2.7H132.5z"/>
	<path class="st0" d="M161.6,14.7h1.3c-1,3.9-4,5.9-9.3,5.9h-9.4l1.1-5.4h9.4c0.7,0,1.2-0.2,1.4-0.5h-1.3c0-0.1,0.1-0.1,0.1-0.2
		c0.1-0.4-0.3-0.5-1.2-0.5h-1.3c-5.4,0-7.6-2-6.8-5.9c0-0.1,0-0.2,0.1-0.4h1.3c1-3.9,4.1-5.8,9.2-5.8h9.4l-1.1,5.4h-9.4
		c-0.6,0-1.1,0.1-1.3,0.4h-1.3c-0.1,0.1-0.1,0.2-0.2,0.4c-0.1,0.4,0.3,0.5,1.2,0.5h1.3c5.4,0,7.6,2,6.8,5.9L161.6,14.7z"/>
	<path class="st0" d="M176.5,14.5h1.3l-1.3,6.2h-6.7l1.3-6.2h-1.3l1.4-6.4h1.3l0.2-0.8h-5.4l1.1-5.3h17.4l-1.1,5.4h-5.4l-0.2,0.8
		h-1.3L176.5,14.5z"/>
	<path class="st0" d="M192.4,15.3l-1.1,5.4h-6.7l1.1-5.4H192.4z"/>
	<path class="st0" d="M213.8,8.6c0,0.4,0,0.8-0.1,1.3h-6.7c0-0.5,0-0.9-0.1-1.3h1.3c-0.2-0.9-0.9-1.4-1.9-1.4s-1.9,0.5-2.5,1.4h-1.4
		c-0.5,0.6-0.8,1.6-1,2.7c-0.2,1-0.3,1.7-0.2,2.4h1.3c0.2,1.1,0.8,1.6,2,1.6s2.1-0.5,2.7-1.6h-1.3c0.2-0.3,0.3-0.6,0.5-1h6.7
		c-0.1,0.4-0.2,0.7-0.3,1h1.3c-1.6,4.7-5.2,7-10.7,7c-5.4,0-8-2.3-7.7-7h-1.3c0-0.7,0.1-1.5,0.3-2.4c0.2-1,0.5-1.8,0.8-2.7h1.3
		c1.8-4.4,5.4-6.7,10.7-6.7s7.9,2.2,7.7,6.7H213.8z"/>
	<path class="st0" d="M221.8,8.1l3.8-6.2h5.8l1,6.2H231l1.1,7.3h1.3l0.8,5.4H227l-0.1-1.3h-4.9l-0.7,1.3H214l3.2-5.4h-1.3l4.5-7.3
		C220.4,8.1,221.8,8.1,221.8,8.1z M225.2,14l-0.2-2.7l-1.4,2.7H225.2z"/>
	<path class="st0" d="M251.8,14.7h1.3l1.3,5.9h-6.7l-1.1-5.4h-1.7l-1.1,5.4H237l1.3-5.9H237l1.5-7h1.3l1.1-5.9h9.4
		c5,0,7.3,2,6.8,5.9h-1.3c0,0.3-0.1,0.5-0.1,0.8c-0.5,2.6-1.9,4.5-4,5.6L251.8,14.7z M245.1,7.7l-0.5,2.2h2.7c0.9,0,1.4-0.5,1.6-1.3
		c0.1-0.3,0-0.6,0-0.8h1.3c-0.1-0.3-0.5-0.5-1.1-0.5h-2.7l-0.1,0.5C246.4,7.7,245.1,7.7,245.1,7.7z"/>
	<path class="st0" d="M275.4,14.6h1.3c-1.9,4-5.3,6-10.3,6h-9.4l1.3-6H257l1.2-5.8h1.3l1.5-7h9.4c5.4,0,8,2.3,7.7,7h-1.3
		c0,0.7-0.1,1.6-0.3,2.4C276.3,12.5,275.9,13.6,275.4,14.6z M263.7,14.6h1.3l-0.1,0.6h2.7c0.7,0,1.3-0.2,1.8-0.6h-1.3
		c0.8-0.6,1.4-1.8,1.7-3.4c0.2-1,0.3-1.8,0.1-2.4h1.3c-0.2-1.1-0.8-1.6-2-1.6h-2.7l-0.4,1.6h-1.3L263.7,14.6z"/>
	<path class="st0" d="M295.9,14.7h1.3c-1,3.9-4,5.9-9.3,5.9h-9.4l1.1-5.4h9.4c0.7,0,1.2-0.2,1.4-0.5h-1.3c0-0.1,0.1-0.1,0.1-0.2
		c0.1-0.4-0.3-0.5-1.2-0.5h-1.3c-5.4,0-7.6-2-6.8-5.9c0-0.1,0-0.2,0.1-0.4h1.3c1-3.9,4-5.8,9.2-5.8h9.4l-1.1,5.4h-9.4
		c-0.6,0-1.1,0.1-1.3,0.4h-1.3c-0.1,0.1-0.1,0.2-0.2,0.4c-0.1,0.4,0.3,0.5,1.2,0.5h1.3c5.4,0,7.6,2,6.8,5.9L295.9,14.7z"/>
</g>
<g>
	<path class="st1" d="M18.8,12.9h1.3c-0.9,3.9-4,5.9-9.3,5.9H1.5l1.1-5.4H12c0.7,0,1.2-0.2,1.4-0.5h-1.3c0-0.1,0.1-0.1,0.1-0.2
		c0.1-0.4-0.3-0.5-1.2-0.5H9.6c-5.4,0-7.6-2-6.8-5.9c0-0.1,0-0.2,0.1-0.3h1.3C5.2,2,8.3,0,13.5,0h9.4l-1.1,5.4h-9.4
		c-0.6,0-1.1,0.1-1.3,0.4H9.7C9.6,5.9,9.6,6,9.5,6.2c-0.1,0.4,0.3,0.5,1.2,0.5h1.3c5.4,0,7.6,2,6.8,5.9L18.8,12.9z"/>
	<path class="st1" d="M24.3,6.2L25.6,0h6.7L31,6.2h-1.3l-0.7,3.2c-0.3,1.5-0.3,2.5,0.1,3.2h1.3c0.3,0.5,0.9,0.8,1.7,0.8
		c0.8,0,1.5-0.3,2.1-0.8h-1.3c0.6-0.6,1.1-1.7,1.5-3.2L35,6.2h1.3L37.7,0h6.7L43,6.2h-1.3l-0.7,3.2c-0.2,1.2-0.6,2.2-1,3.2h1.3
		c-1.8,4.1-5.3,6.2-10.4,6.2s-7.6-2.1-7.7-6.2h-1.3c0-1,0.1-2,0.4-3.2L23,6.2H24.3z"/>
	<path class="st1" d="M56.4,12.9h1.3c-1.2,0.4-2.5,0.5-4.1,0.5h-2.7l-1.1,5.4h-6.7l1.3-5.9h-1.3l1.5-7h1.3L47.1,0h9.4
		c5,0,7.2,1.9,6.8,5.8h-1.3c0,0.3-0.1,0.6-0.2,0.9C61.1,9.9,59.3,12,56.4,12.9z M51.2,5.9l-0.5,2.2h2.7c0.9,0,1.4-0.5,1.6-1.3
		c0.1-0.4,0.1-0.7,0-0.9h1.3c-0.1-0.3-0.5-0.4-1-0.4h-2.7l-0.1,0.4C52.5,5.9,51.2,5.9,51.2,5.9z"/>
	<path class="st1" d="M69.9,13h1.3l-0.1,0.4h9.4l-1.1,5.4H63.3l1.2-5.8h-1.3l1.4-6.8h1.3L67.2,0h16.1l-1.1,5.4h-9.4l-0.2,0.9h-1.3
		l-0.1,0.5h9.4l-1.1,5.4h-9.4L69.9,13z"/>
	<path class="st1" d="M96.9,12.9h1.3l1.3,5.9h-6.7l-1.1-5.4h-1.7l-1.1,5.4h-6.7l1.3-5.9H82l1.5-7h1.3L86.1,0h9.4c5,0,7.3,2,6.8,5.9
		h-1.3c0,0.3-0.1,0.5-0.1,0.8c-0.5,2.6-1.9,4.5-4,5.6L96.9,12.9z M90.2,5.9l-0.5,2.2h2.7c0.9,0,1.4-0.5,1.6-1.3c0.1-0.3,0-0.6,0-0.8
		h1.3c-0.1-0.3-0.5-0.5-1.1-0.5h-2.7l-0.1,0.5H90.2z"/>
	<path class="st1" d="M108.7,13.1h1.3l-1.2,5.7h-6.7l1.2-5.7h-1.3l1.5-7.1h1.3l1.3-5.9h16.1l-1.1,5.4h-9.4l-0.1,0.6h-1.3l-0.2,0.8
		h9.4l-1.1,5.4H109L108.7,13.1z"/>
	<path class="st1" d="M127.3,6.2l3.8-6.2h5.8l1,6.2h-1.3l1.1,7.3h1.3l0.8,5.4h-7.2l-0.1-1.3h-4.9l-0.7,1.3h-7.2l3.2-5.4h-1.3
		l4.5-7.3C126,6.2,127.3,6.2,127.3,6.2z M130.7,12.1l-0.2-2.7l-1.4,2.7H130.7z"/>
	<path class="st1" d="M159.8,12.9h1.3c-1,3.9-4,5.9-9.3,5.9h-9.4l1.1-5.4h9.4c0.7,0,1.2-0.2,1.4-0.5h-1.3c0-0.1,0.1-0.1,0.1-0.2
		c0.1-0.4-0.3-0.5-1.2-0.5h-1.3c-5.4,0-7.6-2-6.8-5.9c0-0.1,0-0.2,0.1-0.4h1.3c1-3.9,4.1-5.8,9.2-5.8h9.4l-1.1,5.4h-9.4
		c-0.6,0-1.1,0.1-1.3,0.4h-1.3c-0.1,0.1-0.1,0.2-0.2,0.4c-0.1,0.4,0.3,0.5,1.2,0.5h1.3c5.4,0,7.6,2,6.8,5.9L159.8,12.9z"/>
	<path class="st1" d="M174.7,12.6h1.3l-1.3,6.2H168l1.3-6.2H168l1.4-6.4h1.3l0.2-0.8h-5.4l1.1-5.3h17.4l-1.1,5.4h-5.4l-0.2,0.8h-1.3
		L174.7,12.6z"/>
	<path class="st1" d="M190.6,13.5l-1.1,5.4h-6.7l1.1-5.4H190.6z"/>
	<path class="st1" d="M211.9,6.8c0,0.4,0,0.8-0.1,1.3h-6.7c0-0.5,0-0.9-0.1-1.3h1.3c-0.2-0.9-0.9-1.4-1.9-1.4
		c-1.1,0-1.9,0.5-2.5,1.4h-1.4c-0.5,0.6-0.8,1.6-1,2.7c-0.2,1-0.3,1.7-0.2,2.4h1.3c0.2,1.1,0.8,1.6,2,1.6s2.1-0.5,2.7-1.6H204
		c0.2-0.3,0.3-0.6,0.5-1h6.7c-0.1,0.4-0.2,0.7-0.3,1h1.3c-1.6,4.7-5.2,7-10.7,7c-5.4,0-8-2.3-7.7-7h-1.3c0-0.7,0.1-1.5,0.3-2.4
		c0.2-1,0.5-1.8,0.8-2.7h1.3c1.8-4.4,5.4-6.7,10.7-6.7c5.3,0,7.9,2.2,7.7,6.7H211.9z"/>
	<path class="st1" d="M219.9,6.2l3.8-6.2h5.8l1,6.2h-1.3l1.1,7.3h1.3l0.8,5.4h-7.2l-0.1-1.3h-4.9l-0.7,1.3h-7.2l3.2-5.4h-1.3
		l4.5-7.3C218.6,6.2,219.9,6.2,219.9,6.2z M223.3,12.1l-0.2-2.7l-1.4,2.7H223.3z"/>
	<path class="st1" d="M250,12.9h1.3l1.3,5.9h-6.7l-1.1-5.4H243l-1.1,5.4h-6.7l1.3-5.9h-1.3l1.5-7h1.3l1.1-5.9h9.4c5,0,7.3,2,6.8,5.9
		h-1.3c0,0.3-0.1,0.5-0.1,0.8c-0.5,2.6-1.9,4.5-4,5.6L250,12.9z M243.2,5.9l-0.5,2.2h2.7c0.9,0,1.4-0.5,1.6-1.3c0.1-0.3,0-0.6,0-0.8
		h1.3c-0.1-0.3-0.5-0.5-1.1-0.5h-2.7l-0.1,0.5H243.2z"/>
	<path class="st1" d="M273.6,12.8h1.3c-1.9,4-5.3,6-10.3,6h-9.4l1.3-6h-1.3l1.2-5.8h1.3l1.5-7h9.4c5.4,0,8,2.3,7.7,7h-1.3
		c0,0.7-0.1,1.6-0.3,2.4C274.4,10.7,274.1,11.8,273.6,12.8z M261.9,12.8h1.3l-0.1,0.6h2.7c0.7,0,1.3-0.2,1.8-0.6h-1.3
		c0.8-0.6,1.4-1.8,1.7-3.4c0.2-1,0.3-1.8,0.1-2.4h1.3c-0.2-1.1-0.8-1.6-2-1.6h-2.7L264.4,7h-1.3L261.9,12.8z"/>
	<path class="st1" d="M294.1,12.9h1.3c-1,3.9-4,5.9-9.3,5.9h-9.4l1.1-5.4h9.4c0.7,0,1.2-0.2,1.4-0.5h-1.3c0-0.1,0.1-0.1,0.1-0.2
		c0.1-0.4-0.3-0.5-1.2-0.5h-1.3c-5.4,0-7.6-2-6.8-5.9c0-0.1,0-0.2,0.1-0.4h1.3c1-3.9,4-5.8,9.2-5.8h9.4L297,5.4h-9.4
		c-0.6,0-1.1,0.1-1.3,0.4H285c-0.1,0.1-0.1,0.2-0.2,0.4c-0.1,0.4,0.3,0.5,1.2,0.5h1.3c5.4,0,7.6,2,6.8,5.9L294.1,12.9z"/>
</g>
<g>
	<g>
		<path class="st2" d="M19.8,13.8h1.3c-0.9,3.9-4,5.9-9.3,5.9H2.4l1.1-5.4h9.4c0.7,0,1.2-0.2,1.4-0.5H13c0-0.1,0.1-0.1,0.1-0.2
			c0.1-0.4-0.3-0.5-1.2-0.5h-1.3c-5.4,0-7.6-2-6.8-5.9c0-0.1,0-0.2,0.1-0.3h1.3C6.2,2.9,9.2,1,14.4,1h9.4l-1.1,5.4h-9.4
			c-0.6,0-1.1,0.1-1.3,0.4h-1.3c-0.1,0.1-0.1,0.2-0.2,0.4c-0.1,0.4,0.3,0.5,1.2,0.5H13c5.4,0,7.6,2,6.8,5.9L19.8,13.8z"/>
	</g>
	<g>
		<path class="st2" d="M25.2,7.1L26.5,1h6.7l-1.3,6.2h-1.3l-0.7,3.2c-0.3,1.5-0.3,2.5,0.1,3.2h1.3c0.3,0.5,0.9,0.8,1.7,0.8
			s1.5-0.3,2.1-0.8h-1.3c0.6-0.6,1.1-1.7,1.5-3.2l0.7-3.2h1.3L38.6,1h6.7L44,7.1h-1.3L42,10.3c-0.2,1.2-0.6,2.2-1,3.2h1.3
			c-1.8,4.1-5.3,6.2-10.4,6.2s-7.6-2.1-7.7-6.2h-1.3c0-1,0.1-2,0.4-3.2l0.7-3.2H25.2z"/>
	</g>
	<g>
		<path class="st2" d="M57.3,13.8h1.3c-1.2,0.4-2.5,0.5-4.1,0.5h-2.7l-1.1,5.4H44l1.3-5.9H44l1.5-7h1.3L48,1h9.4
			c5,0,7.2,1.9,6.8,5.8h-1.3c0,0.3-0.1,0.6-0.2,0.9C62,10.8,60.2,12.9,57.3,13.8z M52.1,6.8L51.6,9h2.7c0.9,0,1.4-0.5,1.6-1.3
			C56,7.3,56,7,55.9,6.8h1.3c-0.1-0.3-0.5-0.4-1-0.4h-2.7l-0.1,0.4C53.4,6.8,52.1,6.8,52.1,6.8z"/>
	</g>
	<g>
		<polygon class="st2" points="70.8,14 72.1,14 72,14.4 81.4,14.4 80.2,19.7 64.2,19.7 65.4,14 64.1,14 65.5,7.2 66.8,7.2 68.2,1 
			84.3,1 83.1,6.3 73.7,6.3 73.6,7.2 72.2,7.2 72.1,7.6 81.5,7.6 80.4,13 71,13 		"/>
	</g>
	<g>
		<path class="st2" d="M97.8,13.8h1.3l1.3,5.9h-6.7l-1.1-5.4h-1.7l-1.1,5.4H83l1.3-5.9h-1.3l1.5-7h1.3L87,1h9.4c5,0,7.3,2,6.8,5.9
			h-1.3c0,0.3-0.1,0.5-0.1,0.8c-0.5,2.6-1.9,4.5-4,5.6L97.8,13.8z M91.1,6.8L90.6,9h2.7c0.9,0,1.4-0.5,1.6-1.3c0.1-0.3,0-0.6,0-0.8
			h1.3c-0.1-0.3-0.5-0.5-1.1-0.5h-2.7l-0.1,0.5H91.1z"/>
	</g>
	<g>
		<polygon class="st2" points="109.7,14 111,14 109.8,19.7 103.1,19.7 104.4,14 103,14 104.5,6.9 105.9,6.9 107.1,0.9 123.2,0.9 
			122.1,6.3 112.7,6.3 112.5,6.9 111.2,6.9 111,7.6 120.4,7.6 119.3,13 109.9,13 		"/>
	</g>
	<g>
		<path class="st2" d="M128.2,7.1L132,1h5.8l1,6.2h-1.3l1.1,7.3h1.3l0.8,5.4h-7.2l-0.1-1.3h-4.9l-0.7,1.3h-7.2l3.2-5.4h-1.3l4.5-7.3
			C126.9,7.1,128.2,7.1,128.2,7.1z M131.6,13l-0.2-2.7L130,13H131.6z"/>
	</g>
	<g>
		<path class="st2" d="M160.7,13.8h1.3c-1,3.9-4,5.9-9.3,5.9h-9.4l1.1-5.4h9.4c0.7,0,1.2-0.2,1.4-0.5H154c0-0.1,0.1-0.1,0.1-0.2
			c0.1-0.4-0.3-0.5-1.2-0.5h-1.3c-5.4,0-7.6-2-6.8-5.9c0-0.1,0-0.2,0.1-0.4h1.3c1-3.9,4.1-5.8,9.2-5.8h9.4l-1.1,5.4h-9.4
			c-0.6,0-1.1,0.1-1.3,0.4h-1.3c-0.1,0.1-0.1,0.2-0.2,0.4c-0.1,0.4,0.3,0.5,1.2,0.5h1.3c5.4,0,7.6,2,6.8,5.9L160.7,13.8z"/>
	</g>
	<g>
		<polygon class="st2" points="175.6,13.5 176.9,13.5 175.6,19.7 168.9,19.7 170.2,13.5 168.9,13.5 170.3,7.1 171.6,7.1 171.8,6.3 
			166.4,6.3 167.5,1 185,1 183.8,6.3 178.5,6.3 178.3,7.1 177,7.1 		"/>
	</g>
	<g>
		<polygon class="st2" points="191.5,14.4 190.4,19.7 183.7,19.7 184.8,14.4 		"/>
	</g>
	<g>
		<path class="st2" d="M212.8,7.7c0,0.4,0,0.8-0.1,1.3H206c0-0.5,0-0.9-0.1-1.3h1.3c-0.2-0.9-0.9-1.4-1.9-1.4s-1.9,0.5-2.5,1.4h-1.4
			c-0.5,0.6-0.8,1.6-1,2.7c-0.2,1-0.3,1.7-0.2,2.4h1.3c0.2,1.1,0.8,1.6,2,1.6c1.1,0,2.1-0.5,2.7-1.6h-1.3c0.2-0.3,0.3-0.6,0.5-1h6.7
			c-0.1,0.4-0.2,0.7-0.3,1h1.3c-1.6,4.7-5.2,7-10.7,7c-5.4,0-8-2.3-7.7-7h-1.3c0-0.7,0.1-1.5,0.3-2.4c0.2-1,0.5-1.8,0.8-2.7h1.3
			c1.8-4.4,5.4-6.7,10.7-6.7s7.9,2.2,7.7,6.7H212.8z"/>
	</g>
	<g>
		<path class="st2" d="M220.9,7.1l3.8-6.2h5.8l1,6.2H230l1.1,7.3h1.3l0.8,5.4h-7.2l-0.1-1.3H221l-0.7,1.3h-7.2l3.2-5.4H215l4.5-7.3
			C219.5,7.1,220.9,7.1,220.9,7.1z M224.2,13l-0.2-2.7l-1.4,2.7H224.2z"/>
	</g>
	<g>
		<path class="st2" d="M250.9,13.8h1.3l1.3,5.9h-6.7l-1.1-5.4h-1.7l-1.1,5.4h-6.7l1.3-5.9H236l1.5-7h1.3L240,1h9.4
			c5,0,7.3,2,6.8,5.9h-1.3c0,0.3-0.1,0.5-0.1,0.8c-0.5,2.6-1.9,4.5-4,5.6L250.9,13.8z M244.1,6.8L243.7,9h2.7c0.9,0,1.4-0.5,1.6-1.3
			c0.1-0.3,0-0.6,0-0.8h1.3c-0.1-0.3-0.5-0.5-1.1-0.5h-2.7l-0.1,0.5H244.1z"/>
	</g>
	<g>
		<path class="st2" d="M274.5,13.7h1.3c-1.9,4-5.3,6-10.3,6h-9.4l1.3-6h-1.3l1.2-5.8h1.3l1.5-7h9.4c5.4,0,8,2.3,7.7,7H276
			c0,0.7-0.1,1.6-0.3,2.4C275.3,11.6,275,12.7,274.5,13.7z M262.8,13.7h1.3l-0.1,0.6h2.7c0.7,0,1.3-0.2,1.8-0.6h-1.3
			c0.8-0.6,1.4-1.8,1.7-3.4c0.2-1,0.3-1.8,0.1-2.4h1.3c-0.2-1.1-0.8-1.6-2-1.6h-2.7l-0.4,1.6H264L262.8,13.7z"/>
	</g>
	<g>
		<path class="st2" d="M295,13.8h1.3c-1,3.9-4,5.9-9.3,5.9h-9.4l1.1-5.4h9.4c0.7,0,1.2-0.2,1.4-0.5h-1.3c0-0.1,0.1-0.1,0.1-0.2
			c0.1-0.4-0.3-0.5-1.2-0.5h-1.3c-5.4,0-7.6-2-6.8-5.9c0-0.1,0-0.2,0.1-0.4h1.3c1-3.9,4-5.8,9.2-5.8h9.4l-1.1,5.4h-9.4
			c-0.6,0-1.1,0.1-1.3,0.4h-1.3c-0.1,0.1-0.1,0.2-0.2,0.4c-0.1,0.4,0.3,0.5,1.2,0.5h1.3c5.4,0,7.6,2,6.8,5.9L295,13.8z"/>
	</g>
</g>
<g>
	<path class="st1" d="M31.1,61.7h3.1c-2.7,0.9-5.9,1.3-9.5,1.3h-6.2l-2.7,12.5H0.2l2.9-13.8H0l3.5-16.5h3.1l2.9-13.5h21.9
		c11.6,0,16.9,4.5,15.8,13.5H44c-0.1,0.7-0.2,1.4-0.4,2.1C42.1,54.8,37.9,59.6,31.1,61.7z M19.1,45.3L18,50.5h6.2
		c2.1,0,3.3-1,3.8-3.1c0.2-0.9,0.2-1.6-0.1-2.1H31c-0.4-0.7-1.1-1-2.3-1h-6.2l-0.2,1H19.1z"/>
	<path class="st1" d="M59.3,62.1h3.1L62.2,63h21.9l-2.7,12.5H43.9l2.9-13.4h-3.1L47,46.3h3.1l3.1-14.5h37.5l-2.7,12.5H66.2l-0.4,2
		h-3.1l-0.2,1.1h21.9l-2.7,12.5H59.8L59.3,62.1z"/>
	<path class="st1" d="M112.7,61.1h3.1l-3.1,14.5H97.1l3.1-14.5H97l3.2-14.9h3.1l0.4-1.9H91.2l2.7-12.5h40.6l-2.7,12.5h-12.5
		l-0.4,1.9h-3.1L112.7,61.1z"/>
	<path class="st1" d="M162.8,61.7h3.1l3,13.8h-15.6L150.6,63h-4l-2.7,12.5h-15.6l2.9-13.8h-3.1l3.5-16.3h3.1l2.9-13.7h21.9
		c11.7,0,17,4.6,15.8,13.7h-3.1c-0.1,0.6-0.2,1.3-0.3,1.9c-1.3,6.1-4.4,10.4-9.2,13L162.8,61.7z M147.2,45.5l-1.1,5.1h6.2
		c2.1,0,3.3-1,3.8-3.1c0.2-0.8,0.2-1.4,0-1.9h3.1c-0.3-0.8-1.1-1.2-2.4-1.2h-6.2l-0.2,1.2H147.2z"/>
	<path class="st1" d="M178.1,48.7c3.9-11.3,12.3-16.9,25.2-16.9c12.8,0,18.8,5.6,18,16.9h-3.1c-0.1,1.5-0.4,3.2-0.8,4.9
		c-0.6,2.7-1.4,5.2-2.3,7.4h3.1c-4.3,9.6-12.3,14.5-24.2,14.5c-11.9,0-17.9-4.8-18-14.5h-3.1c0-2.2,0.2-4.7,0.8-7.4
		c0.4-1.8,0.8-3.4,1.4-4.9H178.1z M205.3,48.7c-0.2-3-1.8-4.4-4.7-4.4s-5.1,1.5-6.6,4.4h-3.1c-0.7,1.3-1.2,3-1.7,4.9
		c-0.7,3.4-0.6,5.9,0.2,7.4h3.1c0.8,1.3,2.1,2,4,2c1.9,0,3.5-0.7,4.8-2h-3.1c1.5-1.5,2.7-4,3.4-7.4c0.4-2,0.6-3.6,0.4-4.9H205.3z"/>
	<path class="st1" d="M234.4,61.4h3.1l-0.3,1.6h21.9l-2.7,12.5h-37.5l3-14.1h-3.1l3.5-16.6h3.1l2.8-13h15.6l-2.8,13H238L234.4,61.4z
		"/>
	<path class="st1" d="M303.5,61.1h3.1l-3.1,14.5h-15.6l3.1-14.5h-3.1l3.2-14.9h3.1l0.4-1.9h-12.5l2.7-12.5h40.6l-2.7,12.5h-12.5
		l-0.4,1.9h-3.1L303.5,61.1z"/>
	<path class="st1" d="M325.2,48.7c3.9-11.3,12.3-16.9,25.2-16.9c12.8,0,18.8,5.6,18,16.9h-3.1c-0.1,1.5-0.4,3.2-0.8,4.9
		c-0.6,2.7-1.4,5.2-2.3,7.4h3.1c-4.3,9.6-12.3,14.5-24.2,14.5c-11.9,0-17.9-4.8-18-14.5h-3.1c0-2.2,0.2-4.7,0.8-7.4
		c0.4-1.8,0.8-3.4,1.4-4.9H325.2z M352.4,48.7c-0.2-3-1.8-4.4-4.7-4.4s-5.1,1.5-6.6,4.4H338c-0.7,1.3-1.2,3-1.7,4.9
		c-0.7,3.4-0.6,5.9,0.2,7.4h3.1c0.8,1.3,2.1,2,4,2c1.9,0,3.5-0.7,4.8-2h-3.1c1.5-1.5,2.7-4,3.4-7.4c0.4-2,0.6-3.6,0.4-4.9H352.4z"/>
	<path class="st1" d="M390.3,46.3L402,31.8h17.2l-12,14.5H404l-6,7.3l3.3,8.5h3.1l5.3,13.4h-17.2l-5-13.4h-3.1l-2.9,13.4h-15.6
		l2.9-13.4h-3.1l3.3-15.8h3.1l3.1-14.5H391l-3.1,14.5H390.3z M381.4,62.1h3.1l-2-5.3L381.4,62.1z M384.7,46.3l-0.9,4.2l3.3-4.2
		H384.7z"/>
	<path class="st1" d="M428.3,62.1h3.1l-0.2,0.9h21.9l-2.7,12.5h-37.5l2.9-13.4h-3.1l3.3-15.8h3.1l3.1-14.5h37.5l-2.7,12.5h-21.9
		l-0.4,2h-3.1l-0.2,1.1h21.9l-2.7,12.5h-21.9L428.3,62.1z"/>
	<path class="st1" d="M459.8,46l3-14.2h15.6l6.1,14.2h-3.1l2.2,5.2l1.1-5.2h3.1l3-14.2h15.6l-3,14.2h-3.1l-3.4,15.9h3.1l-2.9,13.6
		h-15.6l-5.9-13.6h-3.1l-2.5-5.8l-1.2,5.8h3.1l-2.9,13.6h-15.6l2.9-13.6h-3.1l3.4-15.9H459.8z"/>
</g>
<g>
	<path class="st0" d="M35.6,65.6h3.1c-2.7,0.9-5.9,1.3-9.5,1.3H23l-2.7,12.5H4.8l2.9-13.8H4.6l3.5-16.5h3.1l2.9-13.5H36
		c11.6,0,16.9,4.5,15.8,13.5h-3.1c-0.1,0.7-0.2,1.4-0.4,2.1C46.7,58.7,42.5,63.5,35.6,65.6z M23.7,49.1l-1.1,5.2h6.2
		c2.1,0,3.3-1,3.8-3.1c0.2-0.9,0.2-1.6-0.1-2.1h3.1c-0.4-0.7-1.1-1-2.3-1H27l-0.2,1H23.7z"/>
	<path class="st0" d="M63.9,66H67l-0.2,0.9h21.9L86,79.4H48.5L51.4,66h-3.1l3.3-15.8h3.1l3.1-14.5h37.5l-2.7,12.5H70.8l-0.4,2h-3.1
		L67,51.3h21.9l-2.7,12.5H64.3L63.9,66z"/>
	<path class="st0" d="M117.2,64.9h3.1l-3.1,14.5h-15.6l3.1-14.5h-3.1l3.2-14.9h3.1l0.4-1.9H95.8l2.7-12.5h40.6l-2.7,12.5h-12.5
		l-0.4,1.9h-3.1L117.2,64.9z"/>
	<path class="st0" d="M167.4,65.6h3.1l3,13.8h-15.6l-2.7-12.5h-4l-2.7,12.5h-15.6l2.9-13.8h-3.1l3.5-16.3h3.1l2.9-13.7h21.9
		c11.7,0,17,4.6,15.8,13.7h-3.1c-0.1,0.6-0.2,1.3-0.3,1.9c-1.3,6.1-4.4,10.4-9.2,13L167.4,65.6z M151.8,49.3l-1.1,5.1h6.2
		c2.1,0,3.3-1,3.8-3.1c0.2-0.8,0.2-1.4,0-1.9h3.1c-0.3-0.8-1.1-1.2-2.4-1.2h-6.2l-0.2,1.2H151.8z"/>
	<path class="st0" d="M182.7,52.6c3.9-11.3,12.3-16.9,25.2-16.9c12.8,0,18.8,5.6,18,16.9h-3.1c-0.1,1.5-0.4,3.2-0.8,4.9
		c-0.6,2.7-1.4,5.2-2.3,7.4h3.1c-4.3,9.6-12.3,14.5-24.2,14.5c-11.9,0-17.9-4.8-18-14.5h-3.1c0-2.2,0.2-4.7,0.8-7.4
		c0.4-1.8,0.8-3.4,1.4-4.9H182.7z M209.9,52.6c-0.2-3-1.8-4.4-4.7-4.4s-5.1,1.5-6.6,4.4h-3.1c-0.7,1.3-1.2,3-1.7,4.9
		c-0.7,3.4-0.6,5.9,0.2,7.4h3.1c0.8,1.3,2.1,2,4,2c1.9,0,3.5-0.7,4.8-2h-3.1c1.5-1.5,2.7-4,3.4-7.4c0.4-2,0.6-3.6,0.4-4.9H209.9z"/>
	<path class="st0" d="M239,65.3h3.1l-0.3,1.6h21.9L261,79.4h-37.5l3-14.1h-3.1l3.5-16.6h3.1l2.8-13h15.6l-2.8,13h-3.1L239,65.3z"/>
	<path class="st0" d="M308.1,64.9h3.1l-3.1,14.5h-15.6l3.1-14.5h-3.1l3.2-14.9h3.1l0.4-1.9h-12.5l2.7-12.5H330l-2.7,12.5h-12.5
		l-0.4,1.9h-3.1L308.1,64.9z"/>
	<path class="st0" d="M329.8,52.6c3.9-11.3,12.3-16.9,25.2-16.9c12.8,0,18.8,5.6,18,16.9h-3.1c-0.1,1.5-0.4,3.2-0.8,4.9
		c-0.6,2.7-1.4,5.2-2.3,7.4h3.1c-4.3,9.6-12.3,14.5-24.2,14.5c-11.9,0-17.9-4.8-18-14.5h-3.1c0-2.2,0.2-4.7,0.8-7.4
		c0.4-1.8,0.8-3.4,1.4-4.9H329.8z M357,52.6c-0.2-3-1.8-4.4-4.7-4.4s-5.1,1.5-6.6,4.4h-3.1c-0.7,1.3-1.2,3-1.7,4.9
		c-0.7,3.4-0.6,5.9,0.2,7.4h3.1c0.8,1.3,2.1,2,4,2c1.9,0,3.5-0.7,4.8-2H350c1.5-1.5,2.7-4,3.4-7.4c0.4-2,0.6-3.6,0.4-4.9H357z"/>
	<path class="st0" d="M394.9,50.2l11.6-14.5h17.2l-12,14.5h-3.1l-6,7.3L406,66h3.1l5.3,13.4h-17.2l-5-13.4h-3.1l-2.9,13.4h-15.6
		l2.9-13.4h-3.1l3.3-15.8h3.1l3.1-14.5h15.6l-3.1,14.5H394.9z M386,66h3.1l-2-5.3L386,66z M389.3,50.2l-0.9,4.2l3.3-4.2H389.3z"/>
	<path class="st0" d="M432.9,66h3.1l-0.2,0.9h21.9L455,79.4h-37.5l2.9-13.4h-3.1l3.3-15.8h3.1l3.1-14.5h37.5l-2.7,12.5h-21.9l-0.4,2
		h-3.1l-0.2,1.1h21.9l-2.7,12.5h-21.9L432.9,66z"/>
	<path class="st0" d="M464.4,49.8l3-14.2h15.6l6.1,14.2H486l2.2,5.2l1.1-5.2h3.1l3-14.2h15.6l-3,14.2H505l-3.4,15.9h3.1l-2.9,13.6
		h-15.6l-5.9-13.6h-3.1l-2.5-5.8l-1.2,5.8h3.1l-2.9,13.6h-15.6l2.9-13.6h-3.1l3.4-15.9H464.4z"/>
</g>
<g>
	<g>
		<path class="st2" d="M33.4,63.4l3.1,0c-2.7,0.9-5.9,1.3-9.5,1.3l-6.2,0l-2.7,12.5l-15.6,0l2.9-13.8l-3.1,0l3.5-16.5l3.1,0
			l2.9-13.5l21.9,0c11.6,0,16.9,4.5,15.8,13.5l-3.1,0c-0.1,0.7-0.2,1.4-0.4,2.1C44.5,56.5,40.3,61.3,33.4,63.4z M21.5,46.9l-1.1,5.2
			l6.2,0c2.1,0,3.3-1,3.8-3.1c0.2-0.9,0.2-1.6-0.1-2.1l3.1,0c-0.4-0.7-1.1-1-2.3-1l-6.2,0l-0.2,1L21.5,46.9z"/>
	</g>
	<g>
		<path class="st2" d="M61.7,63.8l3.1,0l-0.2,0.9l21.9,0l-2.7,12.5l-37.5,0l2.9-13.4l-3.1,0L49.4,48l3.1,0l3.1-14.5l37.5,0L90.5,46
			l-21.9,0l-0.4,2L65,48l-0.3,1.1l21.9,0L84,61.6l-21.9,0L61.7,63.8z"/>
	</g>
	<g>
		<path class="st2" d="M115,62.8l3.1,0l-3.1,14.5l-15.6,0l3.1-14.5l-3.1,0l3.2-14.9l3.1,0l0.4-1.9l-12.5,0l2.7-12.5l40.6,0L134.2,46
			l-12.5,0l-0.4,1.9l-3.1,0L115,62.8z"/>
	</g>
	<g>
		<path class="st2" d="M165.2,63.5l3.1,0l3,13.8l-15.6,0L153,64.8l-4,0l-2.7,12.5l-15.6,0l2.9-13.8l-3.1,0l3.5-16.3l3.1,0l2.9-13.7
			l21.9,0c11.7,0,17,4.6,15.7,13.7l-3.1,0c-0.1,0.6-0.2,1.3-0.3,1.9c-1.3,6.1-4.4,10.4-9.3,13L165.2,63.5z M149.6,47.2l-1.1,5.1
			l6.2,0c2.1,0,3.3-1,3.8-3.1c0.2-0.8,0.2-1.4,0-1.9l3.1,0c-0.3-0.8-1.1-1.2-2.4-1.2l-6.2,0l-0.3,1.2L149.6,47.2z"/>
	</g>
	<g>
		<path class="st2" d="M180.5,50.5c3.9-11.3,12.3-16.9,25.2-16.9c12.8,0,18.8,5.7,18,16.9l-3.1,0c-0.1,1.5-0.4,3.2-0.8,4.9
			c-0.6,2.7-1.4,5.2-2.3,7.4l3.1,0c-4.3,9.6-12.3,14.5-24.2,14.5c-11.9,0-17.9-4.8-18-14.5l-3.1,0c0-2.2,0.2-4.7,0.8-7.4
			c0.4-1.7,0.8-3.4,1.4-4.9L180.5,50.5z M207.7,50.5c-0.2-3-1.8-4.4-4.7-4.4c-2.9,0-5.1,1.5-6.6,4.4l-3.1,0c-0.7,1.3-1.2,3-1.7,4.9
			c-0.7,3.4-0.6,5.9,0.2,7.4l3.1,0c0.7,1.3,2.1,2,4,2c1.9,0,3.5-0.7,4.8-2l-3.1,0c1.5-1.5,2.7-4,3.4-7.4c0.4-2,0.6-3.6,0.4-4.9
			L207.7,50.5z"/>
	</g>
	<g>
		<path class="st2" d="M236.8,63.2l3.1,0l-0.3,1.6l21.9,0l-2.7,12.5l-37.5,0l3-14.1l-3.1,0l3.5-16.6l3.1,0l2.8-13l15.6,0l-2.8,13
			l-3.1,0L236.8,63.2z"/>
	</g>
	<g>
		<path class="st2" d="M305.9,62.9l3.1,0l-3.1,14.5l-15.6,0l3.1-14.5l-3.1,0l3.2-14.9l3.1,0l0.4-1.9l-12.5,0l2.7-12.5l40.6,0
			l-2.7,12.5l-12.5,0l-0.4,1.9l-3.1,0L305.9,62.9z"/>
	</g>
	<g>
		<path class="st2" d="M327.6,50.5c3.9-11.3,12.3-16.9,25.2-16.9c12.8,0,18.8,5.7,18,16.9l-3.1,0c-0.1,1.5-0.4,3.2-0.8,4.9
			c-0.6,2.7-1.4,5.2-2.3,7.4l3.1,0c-4.3,9.6-12.3,14.5-24.2,14.5c-11.9,0-17.9-4.8-18-14.5l-3.1,0c0-2.2,0.2-4.7,0.8-7.4
			c0.4-1.7,0.8-3.4,1.4-4.9L327.6,50.5z M354.8,50.5c-0.2-3-1.8-4.4-4.7-4.4s-5.1,1.5-6.6,4.4l-3.1,0c-0.7,1.3-1.2,3-1.7,4.9
			c-0.7,3.4-0.6,5.9,0.2,7.4l3.1,0c0.7,1.3,2.1,2,4,2c1.9,0,3.5-0.7,4.8-2l-3.1,0c1.5-1.5,2.7-4,3.4-7.4c0.4-2,0.6-3.6,0.4-4.9
			L354.8,50.5z"/>
	</g>
	<g>
		<path class="st2" d="M392.7,48.2l11.6-14.5l17.2,0l-12,14.5l-3.1,0l-6,7.3l3.3,8.5l3.1,0l5.3,13.4l-17.2,0l-5-13.4l-3.1,0
			l-2.9,13.4l-15.6,0l2.9-13.4l-3.1,0l3.4-15.8l3.1,0l3.1-14.5l15.6,0l-3.1,14.5L392.7,48.2z M383.8,63.9l3.1,0l-2-5.3L383.8,63.9z
			 M387.1,48.2l-0.9,4.2l3.3-4.2L387.1,48.2z"/>
	</g>
	<g>
		<path class="st2" d="M430.7,64l3.1,0l-0.2,0.9l21.9,0l-2.7,12.5l-37.5,0l2.9-13.4l-3.1,0l3.4-15.8l3.1,0l3.1-14.5l37.5,0
			l-2.7,12.5l-21.9,0l-0.4,2l-3.1,0l-0.3,1.1l21.9,0L453,61.8l-21.9,0L430.7,64z"/>
	</g>
	<g>
		<path class="st2" d="M462.2,47.9l3-14.2l15.6,0l6.1,14.2l-3.1,0l2.2,5.3l1.1-5.2l3.1,0l3-14.2l15.6,0l-3,14.2l-3.1,0l-3.4,15.9
			l3.1,0l-2.9,13.6l-15.6,0l-5.9-13.6l-3.1,0l-2.5-5.8l-1.2,5.8l3.1,0l-2.9,13.6l-15.6,0l2.9-13.6l-3.1,0l3.4-15.9L462.2,47.9z"/>
	</g>
</g>
</svg>
