<svg xmlns="http://www.w3.org/2000/svg" xmlns:xlink="http://www.w3.org/1999/xlink" width="3800" zoomAndPan="magnify" viewBox="0 0 2850 239.999995" height="320" preserveAspectRatio="xMidYMid meet" version="1.0"><defs><g/></defs><g fill="#ff00ff" fill-opacity="1"><g transform="translate(337.338702, 202.177534)"><g><path d="M 87.476562 0 C 94.433594 0 101.589844 -2.585938 107.355469 -7.554688 L 161.035156 -53.679688 C 164.8125 -57.058594 166.800781 -61.234375 166.800781 -66.402344 L 167 -159.046875 L 135.1875 -159.046875 L 135.1875 -73.558594 L 87.476562 -32.40625 L 39.761719 -73.558594 L 39.761719 -159.046875 L 7.953125 -159.046875 L 7.953125 -66.402344 C 7.953125 -61.429688 10.140625 -57.058594 13.917969 -53.679688 L 67.59375 -7.554688 C 73.558594 -2.585938 80.515625 0 87.476562 0 Z M 87.476562 0 "/></g></g></g><g fill="#ff00ff" fill-opacity="1"><g transform="translate(543.700544, 202.177534)"><g><path d="M 167 0 L 167 -31.808594 L 103.378906 -31.808594 L 103.378906 -127.238281 L 167 -127.238281 L 167 -159.046875 L 7.953125 -159.046875 L 7.953125 -127.238281 L 71.570312 -127.238281 L 71.570312 -31.808594 L 7.953125 -31.808594 L 7.953125 0 Z M 167 0 "/></g></g></g><g fill="#ff00ff" fill-opacity="1"><g transform="translate(750.062386, 202.177534)"><g><path d="M 39.761719 0 L 39.761719 -104.769531 L 139.761719 -4.769531 C 142.742188 -1.789062 146.71875 0 151.09375 0 C 159.839844 0 167 -7.15625 167 -15.90625 L 167 -159.046875 L 135.1875 -159.046875 L 135.1875 -54.273438 L 35.1875 -154.273438 C 32.207031 -157.257812 28.230469 -159.046875 23.855469 -159.046875 C 15.109375 -159.046875 7.953125 -151.890625 7.953125 -143.140625 L 7.953125 0 Z M 39.761719 0 "/></g></g></g><g fill="#ff00ff" fill-opacity="1"><g transform="translate(956.42426, 202.177534)"><g><path d="M 135.1875 0 C 152.683594 0 167 -14.3125 167 -31.808594 L 167 -159.046875 L 135.1875 -159.046875 L 135.1875 -31.808594 L 39.761719 -31.808594 L 39.761719 -159.046875 L 7.953125 -159.046875 L 7.953125 -31.808594 C 7.953125 -14.3125 22.265625 0 39.761719 0 Z M 135.1875 0 "/></g></g></g><g fill="#ff00ff" fill-opacity="1"><g transform="translate(1162.786071, 202.177534)"><g><path d="M 39.761719 -159.046875 C 22.265625 -159.046875 7.953125 -144.730469 7.953125 -127.238281 L 7.953125 0 L 39.761719 0 L 39.761719 -127.238281 L 71.570312 -127.238281 L 71.570312 0 L 103.378906 0 L 103.378906 -127.238281 L 135.1875 -127.238281 L 135.1875 0 L 167 0 L 167 -127.238281 C 167 -144.730469 152.683594 -159.046875 135.1875 -159.046875 Z M 39.761719 -159.046875 "/></g></g></g><g fill="#ff00ff" fill-opacity="1"><g transform="translate(1369.147883, 202.177534)"><g/></g></g><g fill="#ff00ff" fill-opacity="1"><g transform="translate(1488.034527, 202.177534)"><g><path d="M 167 -159.046875 L 7.953125 -159.046875 L 7.953125 -127.238281 L 71.570312 -127.238281 L 71.570312 0 L 103.378906 0 L 103.378906 -127.238281 L 167 -127.238281 Z M 167 -159.046875 "/></g></g></g><g fill="#ff00ff" fill-opacity="1"><g transform="translate(1694.396339, 202.177534)"><g><path d="M 135.1875 0 C 152.882812 0 167 -14.511719 167 -31.808594 L 167 -127.238281 C 167 -144.730469 152.683594 -159.046875 135.1875 -159.046875 L 39.761719 -159.046875 C 22.265625 -159.046875 7.953125 -144.730469 7.953125 -127.238281 L 7.953125 -31.808594 C 7.953125 -14.3125 22.265625 0 39.761719 0 Z M 39.761719 -127.238281 L 135.1875 -127.238281 L 135.1875 -31.808594 L 39.761719 -31.808594 Z M 39.761719 -127.238281 "/></g></g></g><g fill="#ff00ff" fill-opacity="1"><g transform="translate(1900.75815, 202.177534)"><g><path d="M 167 -159.046875 L 128.828125 -159.046875 C 124.453125 -159.046875 120.476562 -157.457031 117.296875 -154.273438 L 58.449219 -95.425781 L 39.761719 -95.425781 L 39.761719 -159.046875 L 7.953125 -159.046875 L 7.953125 0 L 39.761719 0 L 39.761719 -63.617188 L 58.449219 -63.617188 L 117.296875 -4.769531 C 120.476562 -1.589844 124.453125 0 128.828125 0 L 167 0 L 167 -31.808594 L 135.1875 -31.808594 L 87.476562 -79.523438 L 135.1875 -127.238281 L 167 -127.238281 Z M 167 -159.046875 "/></g></g></g><g fill="#ff00ff" fill-opacity="1"><g transform="translate(2107.119961, 202.177534)"><g><path d="M 167 -159.046875 L 39.761719 -159.046875 C 22.265625 -159.046875 7.953125 -144.730469 7.953125 -127.238281 L 7.953125 -31.808594 C 7.953125 -14.3125 22.265625 0 39.761719 0 L 167 0 L 167 -31.808594 L 39.761719 -31.808594 L 39.761719 -63.617188 L 167 -63.617188 L 167 -95.425781 L 39.761719 -95.425781 L 39.761719 -127.238281 L 167 -127.238281 Z M 167 -159.046875 "/></g></g></g><g fill="#ff00ff" fill-opacity="1"><g transform="translate(2313.481773, 202.177534)"><g><path d="M 39.761719 0 L 39.761719 -104.769531 L 139.761719 -4.769531 C 142.742188 -1.789062 146.71875 0 151.09375 0 C 159.839844 0 167 -7.15625 167 -15.90625 L 167 -159.046875 L 135.1875 -159.046875 L 135.1875 -54.273438 L 35.1875 -154.273438 C 32.207031 -157.257812 28.230469 -159.046875 23.855469 -159.046875 C 15.109375 -159.046875 7.953125 -151.890625 7.953125 -143.140625 L 7.953125 0 Z M 39.761719 0 "/></g></g></g><g fill="#00ffff" fill-opacity="1"><g transform="translate(361.552681, 207.76777)"><g><path d="M 87.476562 0 C 94.433594 0 101.589844 -2.585938 107.355469 -7.554688 L 161.035156 -53.679688 C 164.8125 -57.058594 166.800781 -61.234375 166.800781 -66.402344 L 167 -159.046875 L 135.1875 -159.046875 L 135.1875 -73.558594 L 87.476562 -32.40625 L 39.761719 -73.558594 L 39.761719 -159.046875 L 7.953125 -159.046875 L 7.953125 -66.402344 C 7.953125 -61.429688 10.140625 -57.058594 13.917969 -53.679688 L 67.59375 -7.554688 C 73.558594 -2.585938 80.515625 0 87.476562 0 Z M 87.476562 0 "/></g></g></g><g fill="#00ffff" fill-opacity="1"><g transform="translate(567.914523, 207.76777)"><g><path d="M 167 0 L 167 -31.808594 L 103.378906 -31.808594 L 103.378906 -127.238281 L 167 -127.238281 L 167 -159.046875 L 7.953125 -159.046875 L 7.953125 -127.238281 L 71.570312 -127.238281 L 71.570312 -31.808594 L 7.953125 -31.808594 L 7.953125 0 Z M 167 0 "/></g></g></g><g fill="#00ffff" fill-opacity="1"><g transform="translate(774.276366, 207.76777)"><g><path d="M 39.761719 0 L 39.761719 -104.769531 L 139.761719 -4.769531 C 142.742188 -1.789062 146.71875 0 151.09375 0 C 159.839844 0 167 -7.15625 167 -15.90625 L 167 -159.046875 L 135.1875 -159.046875 L 135.1875 -54.273438 L 35.1875 -154.273438 C 32.207031 -157.257812 28.230469 -159.046875 23.855469 -159.046875 C 15.109375 -159.046875 7.953125 -151.890625 7.953125 -143.140625 L 7.953125 0 Z M 39.761719 0 "/></g></g></g><g fill="#00ffff" fill-opacity="1"><g transform="translate(980.638239, 207.76777)"><g><path d="M 135.1875 0 C 152.683594 0 167 -14.3125 167 -31.808594 L 167 -159.046875 L 135.1875 -159.046875 L 135.1875 -31.808594 L 39.761719 -31.808594 L 39.761719 -159.046875 L 7.953125 -159.046875 L 7.953125 -31.808594 C 7.953125 -14.3125 22.265625 0 39.761719 0 Z M 135.1875 0 "/></g></g></g><g fill="#00ffff" fill-opacity="1"><g transform="translate(1187.00005, 207.76777)"><g><path d="M 39.761719 -159.046875 C 22.265625 -159.046875 7.953125 -144.730469 7.953125 -127.238281 L 7.953125 0 L 39.761719 0 L 39.761719 -127.238281 L 71.570312 -127.238281 L 71.570312 0 L 103.378906 0 L 103.378906 -127.238281 L 135.1875 -127.238281 L 135.1875 0 L 167 0 L 167 -127.238281 C 167 -144.730469 152.683594 -159.046875 135.1875 -159.046875 Z M 39.761719 -159.046875 "/></g></g></g><g fill="#00ffff" fill-opacity="1"><g transform="translate(1393.361862, 207.76777)"><g/></g></g><g fill="#00ffff" fill-opacity="1"><g transform="translate(1512.248506, 207.76777)"><g><path d="M 167 -159.046875 L 7.953125 -159.046875 L 7.953125 -127.238281 L 71.570312 -127.238281 L 71.570312 0 L 103.378906 0 L 103.378906 -127.238281 L 167 -127.238281 Z M 167 -159.046875 "/></g></g></g><g fill="#00ffff" fill-opacity="1"><g transform="translate(1718.610318, 207.76777)"><g><path d="M 135.1875 0 C 152.882812 0 167 -14.511719 167 -31.808594 L 167 -127.238281 C 167 -144.730469 152.683594 -159.046875 135.1875 -159.046875 L 39.761719 -159.046875 C 22.265625 -159.046875 7.953125 -144.730469 7.953125 -127.238281 L 7.953125 -31.808594 C 7.953125 -14.3125 22.265625 0 39.761719 0 Z M 39.761719 -127.238281 L 135.1875 -127.238281 L 135.1875 -31.808594 L 39.761719 -31.808594 Z M 39.761719 -127.238281 "/></g></g></g><g fill="#00ffff" fill-opacity="1"><g transform="translate(1924.972129, 207.76777)"><g><path d="M 167 -159.046875 L 128.828125 -159.046875 C 124.453125 -159.046875 120.476562 -157.457031 117.296875 -154.273438 L 58.449219 -95.425781 L 39.761719 -95.425781 L 39.761719 -159.046875 L 7.953125 -159.046875 L 7.953125 0 L 39.761719 0 L 39.761719 -63.617188 L 58.449219 -63.617188 L 117.296875 -4.769531 C 120.476562 -1.589844 124.453125 0 128.828125 0 L 167 0 L 167 -31.808594 L 135.1875 -31.808594 L 87.476562 -79.523438 L 135.1875 -127.238281 L 167 -127.238281 Z M 167 -159.046875 "/></g></g></g><g fill="#00ffff" fill-opacity="1"><g transform="translate(2131.33394, 207.76777)"><g><path d="M 167 -159.046875 L 39.761719 -159.046875 C 22.265625 -159.046875 7.953125 -144.730469 7.953125 -127.238281 L 7.953125 -31.808594 C 7.953125 -14.3125 22.265625 0 39.761719 0 L 167 0 L 167 -31.808594 L 39.761719 -31.808594 L 39.761719 -63.617188 L 167 -63.617188 L 167 -95.425781 L 39.761719 -95.425781 L 39.761719 -127.238281 L 167 -127.238281 Z M 167 -159.046875 "/></g></g></g><g fill="#00ffff" fill-opacity="1"><g transform="translate(2337.695752, 207.76777)"><g><path d="M 39.761719 0 L 39.761719 -104.769531 L 139.761719 -4.769531 C 142.742188 -1.789062 146.71875 0 151.09375 0 C 159.839844 0 167 -7.15625 167 -15.90625 L 167 -159.046875 L 135.1875 -159.046875 L 135.1875 -54.273438 L 35.1875 -154.273438 C 32.207031 -157.257812 28.230469 -159.046875 23.855469 -159.046875 C 15.109375 -159.046875 7.953125 -151.890625 7.953125 -143.140625 L 7.953125 0 Z M 39.761719 0 "/></g></g></g><g fill="#ffffff" fill-opacity="1"><g transform="translate(349.445691, 204.972652)"><g><path d="M 87.476562 0 C 94.433594 0 101.589844 -2.585938 107.355469 -7.554688 L 161.035156 -53.679688 C 164.8125 -57.058594 166.800781 -61.234375 166.800781 -66.402344 L 167 -159.046875 L 135.1875 -159.046875 L 135.1875 -73.558594 L 87.476562 -32.40625 L 39.761719 -73.558594 L 39.761719 -159.046875 L 7.953125 -159.046875 L 7.953125 -66.402344 C 7.953125 -61.429688 10.140625 -57.058594 13.917969 -53.679688 L 67.59375 -7.554688 C 73.558594 -2.585938 80.515625 0 87.476562 0 Z M 87.476562 0 "/></g></g></g><g fill="#ffffff" fill-opacity="1"><g transform="translate(555.807534, 204.972652)"><g><path d="M 167 0 L 167 -31.808594 L 103.378906 -31.808594 L 103.378906 -127.238281 L 167 -127.238281 L 167 -159.046875 L 7.953125 -159.046875 L 7.953125 -127.238281 L 71.570312 -127.238281 L 71.570312 -31.808594 L 7.953125 -31.808594 L 7.953125 0 Z M 167 0 "/></g></g></g><g fill="#ffffff" fill-opacity="1"><g transform="translate(762.169376, 204.972652)"><g><path d="M 39.761719 0 L 39.761719 -104.769531 L 139.761719 -4.769531 C 142.742188 -1.789062 146.71875 0 151.09375 0 C 159.839844 0 167 -7.15625 167 -15.90625 L 167 -159.046875 L 135.1875 -159.046875 L 135.1875 -54.273438 L 35.1875 -154.273438 C 32.207031 -157.257812 28.230469 -159.046875 23.855469 -159.046875 C 15.109375 -159.046875 7.953125 -151.890625 7.953125 -143.140625 L 7.953125 0 Z M 39.761719 0 "/></g></g></g><g fill="#ffffff" fill-opacity="1"><g transform="translate(968.53125, 204.972652)"><g><path d="M 135.1875 0 C 152.683594 0 167 -14.3125 167 -31.808594 L 167 -159.046875 L 135.1875 -159.046875 L 135.1875 -31.808594 L 39.761719 -31.808594 L 39.761719 -159.046875 L 7.953125 -159.046875 L 7.953125 -31.808594 C 7.953125 -14.3125 22.265625 0 39.761719 0 Z M 135.1875 0 "/></g></g></g><g fill="#ffffff" fill-opacity="1"><g transform="translate(1174.893061, 204.972652)"><g><path d="M 39.761719 -159.046875 C 22.265625 -159.046875 7.953125 -144.730469 7.953125 -127.238281 L 7.953125 0 L 39.761719 0 L 39.761719 -127.238281 L 71.570312 -127.238281 L 71.570312 0 L 103.378906 0 L 103.378906 -127.238281 L 135.1875 -127.238281 L 135.1875 0 L 167 0 L 167 -127.238281 C 167 -144.730469 152.683594 -159.046875 135.1875 -159.046875 Z M 39.761719 -159.046875 "/></g></g></g><g fill="#ffffff" fill-opacity="1"><g transform="translate(1381.254872, 204.972652)"><g/></g></g><g fill="#ffffff" fill-opacity="1"><g transform="translate(1500.141517, 204.972652)"><g><path d="M 167 -159.046875 L 7.953125 -159.046875 L 7.953125 -127.238281 L 71.570312 -127.238281 L 71.570312 0 L 103.378906 0 L 103.378906 -127.238281 L 167 -127.238281 Z M 167 -159.046875 "/></g></g></g><g fill="#ffffff" fill-opacity="1"><g transform="translate(1706.503328, 204.972652)"><g><path d="M 135.1875 0 C 152.882812 0 167 -14.511719 167 -31.808594 L 167 -127.238281 C 167 -144.730469 152.683594 -159.046875 135.1875 -159.046875 L 39.761719 -159.046875 C 22.265625 -159.046875 7.953125 -144.730469 7.953125 -127.238281 L 7.953125 -31.808594 C 7.953125 -14.3125 22.265625 0 39.761719 0 Z M 39.761719 -127.238281 L 135.1875 -127.238281 L 135.1875 -31.808594 L 39.761719 -31.808594 Z M 39.761719 -127.238281 "/></g></g></g><g fill="#ffffff" fill-opacity="1"><g transform="translate(1912.86514, 204.972652)"><g><path d="M 167 -159.046875 L 128.828125 -159.046875 C 124.453125 -159.046875 120.476562 -157.457031 117.296875 -154.273438 L 58.449219 -95.425781 L 39.761719 -95.425781 L 39.761719 -159.046875 L 7.953125 -159.046875 L 7.953125 0 L 39.761719 0 L 39.761719 -63.617188 L 58.449219 -63.617188 L 117.296875 -4.769531 C 120.476562 -1.589844 124.453125 0 128.828125 0 L 167 0 L 167 -31.808594 L 135.1875 -31.808594 L 87.476562 -79.523438 L 135.1875 -127.238281 L 167 -127.238281 Z M 167 -159.046875 "/></g></g></g><g fill="#ffffff" fill-opacity="1"><g transform="translate(2119.226951, 204.972652)"><g><path d="M 167 -159.046875 L 39.761719 -159.046875 C 22.265625 -159.046875 7.953125 -144.730469 7.953125 -127.238281 L 7.953125 -31.808594 C 7.953125 -14.3125 22.265625 0 39.761719 0 L 167 0 L 167 -31.808594 L 39.761719 -31.808594 L 39.761719 -63.617188 L 167 -63.617188 L 167 -95.425781 L 39.761719 -95.425781 L 39.761719 -127.238281 L 167 -127.238281 Z M 167 -159.046875 "/></g></g></g><g fill="#ffffff" fill-opacity="1"><g transform="translate(2325.588762, 204.972652)"><g><path d="M 39.761719 0 L 39.761719 -104.769531 L 139.761719 -4.769531 C 142.742188 -1.789062 146.71875 0 151.09375 0 C 159.839844 0 167 -7.15625 167 -15.90625 L 167 -159.046875 L 135.1875 -159.046875 L 135.1875 -54.273438 L 35.1875 -154.273438 C 32.207031 -157.257812 28.230469 -159.046875 23.855469 -159.046875 C 15.109375 -159.046875 7.953125 -151.890625 7.953125 -143.140625 L 7.953125 0 Z M 39.761719 0 "/></g></g></g></svg>