<?xml version="1.0" encoding="utf-8"?>
<!-- Generator: Adobe Illustrator 27.3.1, SVG Export Plug-In . SVG Version: 6.00 Build 0)  -->
<svg version="1.1" id="Ebene_1" xmlns="http://www.w3.org/2000/svg" xmlns:xlink="http://www.w3.org/1999/xlink" x="0px" y="0px"
	 viewBox="0 0 127.2 78" style="enable-background:new 0 0 127.2 78;" xml:space="preserve">
<style type="text/css">
	.st0{fill:#00AEEF;}
	.st1{fill:#EC008C;}
	.st2{fill:#FFFFFF;}
</style>
<path id="Pfad_79" class="st0" d="M0,0v50.9l66.2,13.6l-9.4,9.6l31.8-5.5l23.2,4l12.4-64.2L0,0z"/>
<path id="Pfad_80" class="st1" d="M3,3.9v50.9l66.2,13.6L59.7,78l31.8-5.5l23.2,4l12.4-64.2L3,3.9z"/>
<path id="Pfad_81" class="st2" d="M2,2v50.9l66.2,13.6l-9.4,9.6l31.8-5.5l23.2,4l12.4-64.2L2,2z"/>
<g>
	<path d="M37.8,15.8c-0.1,0.1-0.1,0.2-0.2,0.2c-0.1,0-0.1,0.1-0.2,0.1s-0.2,0-0.3-0.1c-0.1-0.1-0.2-0.2-0.4-0.2
		c-0.1-0.1-0.3-0.2-0.5-0.2c-0.2-0.1-0.4-0.1-0.7-0.1c-0.3,0-0.5,0-0.7,0.1c-0.2,0.1-0.4,0.2-0.5,0.3c-0.1,0.1-0.2,0.3-0.3,0.5
		c-0.1,0.2-0.1,0.4-0.1,0.6c0,0.2,0.1,0.4,0.2,0.5c0.1,0.1,0.3,0.3,0.4,0.4c0.2,0.1,0.4,0.2,0.6,0.3c0.2,0.1,0.5,0.2,0.7,0.3
		c0.2,0.1,0.5,0.2,0.7,0.3c0.2,0.1,0.4,0.3,0.6,0.4c0.2,0.2,0.3,0.4,0.4,0.6c0.1,0.2,0.2,0.6,0.2,0.9c0,0.5-0.1,1-0.3,1.4
		s-0.4,0.8-0.7,1.2c-0.3,0.3-0.7,0.6-1.2,0.8s-1,0.3-1.5,0.3c-0.3,0-0.6,0-0.9-0.1c-0.3-0.1-0.6-0.2-0.8-0.3s-0.5-0.3-0.7-0.4
		c-0.2-0.2-0.4-0.3-0.6-0.5l0.6-0.9c0.1-0.1,0.1-0.1,0.2-0.2c0.1,0,0.2-0.1,0.2-0.1c0.1,0,0.1,0,0.2,0.1c0.1,0,0.2,0.1,0.2,0.2
		s0.2,0.1,0.3,0.2c0.1,0.1,0.2,0.2,0.3,0.2c0.1,0.1,0.3,0.1,0.4,0.2c0.2,0,0.4,0.1,0.6,0.1c0.5,0,0.9-0.1,1.2-0.4
		c0.3-0.3,0.4-0.7,0.4-1.2c0-0.2-0.1-0.4-0.2-0.6s-0.2-0.3-0.4-0.4c-0.2-0.1-0.4-0.2-0.6-0.3c-0.2-0.1-0.5-0.2-0.7-0.2
		c-0.2-0.1-0.5-0.2-0.7-0.3c-0.2-0.1-0.4-0.3-0.6-0.4c-0.2-0.2-0.3-0.4-0.4-0.7c-0.1-0.3-0.2-0.6-0.2-1c0-0.4,0.1-0.9,0.2-1.3
		s0.4-0.8,0.7-1.1s0.7-0.5,1.1-0.7c0.4-0.2,0.9-0.3,1.4-0.3c0.3,0,0.5,0,0.8,0.1c0.3,0.1,0.5,0.1,0.7,0.2s0.4,0.2,0.6,0.4
		c0.2,0.1,0.3,0.3,0.5,0.5L37.8,15.8z"/>
	<path d="M39.2,22.6c0,0,0-0.1,0-0.1c0,0,0-0.1,0-0.2s0-0.2,0-0.3c0-0.1,0-0.3,0.1-0.5l0.4-3.2h-0.7c-0.1,0-0.1,0-0.2-0.1
		c0,0-0.1-0.1-0.1-0.2c0,0,0,0,0,0c0,0,0,0,0-0.1c0,0,0-0.1,0-0.2c0-0.1,0-0.2,0-0.4L40,17l0.6-2c0-0.1,0.1-0.2,0.1-0.2
		c0.1-0.1,0.2-0.1,0.2-0.1h0.9L41.6,17h1.7l-0.1,1.2h-1.7L41,21.3c0,0.2,0,0.3-0.1,0.5c0,0.1,0,0.2,0,0.3c0,0.1,0,0.1,0,0.1
		s0,0,0,0.1c0,0.2,0,0.3,0.1,0.4s0.2,0.2,0.4,0.2c0.1,0,0.2,0,0.3,0c0.1,0,0.1-0.1,0.2-0.1c0.1,0,0.1-0.1,0.1-0.1s0.1,0,0.1,0
		c0.1,0,0.1,0,0.1,0s0.1,0.1,0.1,0.1l0.4,0.8c-0.3,0.2-0.5,0.4-0.9,0.5s-0.6,0.2-0.9,0.2c-0.5,0-0.9-0.1-1.2-0.4
		S39.2,23.1,39.2,22.6z"/>
	<path d="M49.2,24.1h-0.9c-0.2,0-0.4,0-0.4-0.1c-0.1-0.1-0.1-0.2-0.1-0.4l0.1-1c-0.3,0.5-0.7,0.9-1.1,1.2s-0.8,0.4-1.3,0.4
		c-0.3,0-0.5-0.1-0.8-0.2c-0.2-0.1-0.4-0.3-0.6-0.5c-0.2-0.2-0.3-0.5-0.4-0.8c-0.1-0.3-0.2-0.7-0.2-1.1s0.1-0.8,0.2-1.3
		c0.1-0.4,0.3-0.8,0.5-1.1c0.2-0.4,0.4-0.7,0.7-1s0.6-0.6,0.9-0.8c0.3-0.2,0.7-0.4,1.1-0.5c0.4-0.1,0.8-0.2,1.3-0.2
		c0.3,0,0.6,0,1,0.1s0.6,0.1,1,0.3L49.2,24.1z M46,22.8c0.2,0,0.4-0.1,0.6-0.2c0.2-0.1,0.4-0.3,0.5-0.5c0.2-0.2,0.3-0.5,0.5-0.8
		s0.3-0.6,0.4-1l0.3-2.2c-0.1,0-0.2,0-0.3,0c-0.4,0-0.7,0.1-1.1,0.3c-0.3,0.2-0.6,0.4-0.9,0.7c-0.2,0.3-0.4,0.7-0.6,1
		c-0.1,0.4-0.2,0.8-0.2,1.3c0,0.5,0.1,0.9,0.2,1.1S45.8,22.8,46,22.8z"/>
	<path d="M53,26.1c-0.1,0.2-0.3,0.4-0.6,0.4h-1.3l1.6-2.9l-1.8-6.6h1.4c0.1,0,0.2,0,0.3,0.1c0.1,0.1,0.1,0.1,0.1,0.2l0.9,3.7
		c0,0.1,0,0.2,0.1,0.4c0,0.1,0,0.2,0,0.4c0.1-0.1,0.1-0.2,0.2-0.4c0.1-0.1,0.1-0.2,0.2-0.4l1.8-3.7c0-0.1,0.1-0.2,0.2-0.2
		c0.1-0.1,0.2-0.1,0.3-0.1h1.4L53,26.1z"/>
	<path d="M61.1,22.6c0,0,0-0.1,0-0.1c0,0,0-0.1,0-0.2c0-0.1,0-0.2,0-0.3s0-0.3,0.1-0.5l0.4-3.2h-0.7c-0.1,0-0.1,0-0.2-0.1
		c0,0-0.1-0.1-0.1-0.2c0,0,0,0,0,0c0,0,0,0,0-0.1c0,0,0-0.1,0-0.2c0-0.1,0-0.2,0-0.4l1.1-0.2l0.6-2c0-0.1,0.1-0.2,0.1-0.2
		c0.1-0.1,0.2-0.1,0.2-0.1h0.9L63.4,17h1.7L65,18.2h-1.7l-0.4,3.1c0,0.2,0,0.3-0.1,0.5c0,0.1,0,0.2,0,0.3c0,0.1,0,0.1,0,0.1
		c0,0,0,0,0,0.1c0,0.2,0,0.3,0.1,0.4c0.1,0.1,0.2,0.2,0.4,0.2c0.1,0,0.2,0,0.3,0s0.1-0.1,0.2-0.1c0.1,0,0.1-0.1,0.1-0.1s0.1,0,0.1,0
		c0.1,0,0.1,0,0.1,0s0.1,0.1,0.1,0.1l0.4,0.8c-0.3,0.2-0.5,0.4-0.9,0.5c-0.3,0.1-0.6,0.2-0.9,0.2c-0.5,0-0.9-0.1-1.2-0.4
		C61.3,23.5,61.1,23.1,61.1,22.6z"/>
	<path d="M67.9,16.9c-0.1,0.8-0.2,1.5-0.2,2s-0.1,1-0.2,1.4c0,0.4-0.1,0.7-0.1,0.9s0,0.4-0.1,0.5s0,0.2,0,0.2c0,0,0,0.1,0,0.1
		c0,0.3,0.1,0.5,0.2,0.7c0.1,0.1,0.3,0.2,0.5,0.2c0.2,0,0.4-0.1,0.6-0.2c0.2-0.1,0.4-0.2,0.6-0.4s0.3-0.4,0.5-0.7
		c0.2-0.3,0.3-0.6,0.4-0.9l0.4-3.7h1.7l-0.9,7.2h-0.9c-0.1,0-0.2,0-0.2,0C70.2,24,70.1,24,70,24c-0.1,0-0.1-0.1-0.1-0.2
		c0-0.1-0.1-0.1-0.1-0.2v0l0-0.9c-0.4,0.5-0.8,0.9-1.2,1.1s-0.9,0.4-1.3,0.4c-0.3,0-0.5,0-0.7-0.1c-0.2-0.1-0.4-0.2-0.6-0.4
		s-0.3-0.4-0.4-0.7c-0.1-0.3-0.1-0.6-0.1-0.9c0-0.1,0-0.2,0-0.3c0-0.1,0-0.2,0-0.3l0.5-4.6H67.9z"/>
	<path d="M72.9,24.1l0.9-7.2h0.9c0.2,0,0.3,0,0.4,0.1c0.1,0.1,0.2,0.2,0.2,0.4l0,0.9c0.4-0.5,0.8-0.9,1.2-1.2s0.9-0.4,1.4-0.4
		c0.3,0,0.5,0,0.7,0.1s0.4,0.2,0.6,0.4s0.3,0.4,0.4,0.7c0.1,0.3,0.1,0.6,0.1,0.9c0,0.1,0,0.2,0,0.3s0,0.2,0,0.3L79,24.1h-1.7
		c0.1-0.8,0.2-1.5,0.2-2c0.1-0.5,0.1-1,0.2-1.4s0.1-0.6,0.1-0.9s0-0.4,0.1-0.5s0-0.2,0-0.2c0,0,0-0.1,0-0.1c0-0.3-0.1-0.5-0.2-0.7
		s-0.3-0.2-0.5-0.2c-0.2,0-0.4,0.1-0.6,0.2s-0.4,0.3-0.6,0.5c-0.2,0.2-0.4,0.5-0.5,0.7c-0.2,0.3-0.3,0.6-0.4,1l-0.4,3.5H72.9z"/>
	<path d="M86.5,18.6c0,0.3-0.1,0.6-0.2,0.9c-0.1,0.3-0.4,0.5-0.7,0.7s-0.8,0.4-1.3,0.5c-0.6,0.2-1.3,0.3-2.2,0.4v0.1
		c0,1.1,0.5,1.7,1.4,1.7c0.2,0,0.4,0,0.5-0.1c0.2,0,0.3-0.1,0.4-0.1c0.1-0.1,0.2-0.1,0.3-0.2s0.2-0.1,0.3-0.2
		c0.1-0.1,0.2-0.1,0.2-0.1c0.1,0,0.2-0.1,0.3-0.1c0.1,0,0.1,0,0.2,0c0.1,0,0.1,0.1,0.1,0.1l0.4,0.5c-0.2,0.2-0.5,0.5-0.7,0.6
		c-0.2,0.2-0.5,0.3-0.7,0.4c-0.2,0.1-0.5,0.2-0.8,0.3c-0.3,0.1-0.6,0.1-0.9,0.1c-0.4,0-0.8-0.1-1.1-0.2c-0.3-0.1-0.6-0.3-0.9-0.6
		c-0.2-0.3-0.4-0.6-0.6-0.9c-0.1-0.4-0.2-0.8-0.2-1.2c0-0.4,0-0.7,0.1-1.1c0.1-0.4,0.2-0.7,0.4-1c0.2-0.3,0.3-0.6,0.6-0.9
		c0.2-0.3,0.5-0.5,0.8-0.7c0.3-0.2,0.6-0.4,0.9-0.5c0.3-0.1,0.7-0.2,1.1-0.2c0.4,0,0.7,0.1,1,0.2s0.5,0.2,0.7,0.4
		c0.2,0.2,0.3,0.4,0.4,0.6C86.5,18.2,86.5,18.4,86.5,18.6z M84.2,18c-0.2,0-0.5,0-0.7,0.1c-0.2,0.1-0.4,0.2-0.5,0.4
		c-0.2,0.2-0.3,0.4-0.4,0.6c-0.1,0.2-0.2,0.5-0.3,0.8c0.6-0.1,1-0.2,1.4-0.3c0.4-0.1,0.6-0.2,0.8-0.3c0.2-0.1,0.3-0.2,0.4-0.4
		s0.1-0.3,0.1-0.4c0-0.1,0-0.1,0-0.2s-0.1-0.1-0.1-0.2c-0.1-0.1-0.1-0.1-0.2-0.1C84.4,18,84.3,18,84.2,18z"/>
	<path d="M92,24.1c-0.2,0-0.4,0-0.4-0.1c-0.1-0.1-0.1-0.2-0.1-0.4l0.1-1.1c-0.3,0.5-0.7,0.9-1.2,1.2c-0.4,0.3-0.9,0.5-1.4,0.5
		c-0.3,0-0.6-0.1-0.8-0.2s-0.5-0.3-0.6-0.5c-0.2-0.2-0.3-0.5-0.4-0.8C87.1,22.4,87,22,87,21.5c0-0.4,0-0.8,0.1-1.2s0.2-0.8,0.4-1.1
		s0.3-0.7,0.5-1c0.2-0.3,0.4-0.5,0.7-0.8c0.3-0.2,0.5-0.4,0.8-0.5c0.3-0.1,0.6-0.2,0.9-0.2c0.3,0,0.6,0.1,0.9,0.2
		c0.3,0.1,0.5,0.3,0.7,0.5l0.5-3.8h1.7L93,24.1H92z M89.7,22.8c0.2,0,0.4-0.1,0.6-0.2c0.2-0.1,0.4-0.3,0.6-0.5
		c0.2-0.2,0.4-0.5,0.5-0.8s0.3-0.6,0.4-1l0.2-1.7c-0.2-0.2-0.3-0.3-0.5-0.4s-0.4-0.1-0.6-0.1c-0.3,0-0.6,0.1-0.8,0.3
		c-0.3,0.2-0.5,0.4-0.6,0.7c-0.2,0.3-0.3,0.7-0.4,1s-0.1,0.8-0.1,1.2c0,0.5,0.1,0.9,0.2,1.1C89.1,22.7,89.4,22.8,89.7,22.8z"/>
	<path d="M30.4,39.1h-0.9c-0.2,0-0.4,0-0.4-0.1c-0.1-0.1-0.1-0.2-0.1-0.4l0.1-1c-0.3,0.5-0.7,0.9-1.1,1.2c-0.4,0.3-0.8,0.4-1.3,0.4
		c-0.3,0-0.5-0.1-0.8-0.2c-0.2-0.1-0.4-0.3-0.6-0.5c-0.2-0.2-0.3-0.5-0.4-0.8c-0.1-0.3-0.2-0.7-0.2-1.1s0.1-0.8,0.2-1.3
		c0.1-0.4,0.3-0.8,0.5-1.1c0.2-0.4,0.4-0.7,0.7-1s0.6-0.6,0.9-0.8c0.3-0.2,0.7-0.4,1.1-0.5s0.8-0.2,1.3-0.2c0.3,0,0.6,0,1,0.1
		s0.6,0.1,1,0.3L30.4,39.1z M27.3,37.8c0.2,0,0.4-0.1,0.6-0.2c0.2-0.1,0.4-0.3,0.5-0.5c0.2-0.2,0.3-0.5,0.5-0.8
		c0.1-0.3,0.3-0.6,0.4-1l0.3-2.2c-0.1,0-0.2,0-0.4,0c-0.4,0-0.7,0.1-1.1,0.3c-0.3,0.2-0.6,0.4-0.9,0.7c-0.2,0.3-0.4,0.7-0.6,1
		c-0.1,0.4-0.2,0.8-0.2,1.3c0,0.5,0.1,0.9,0.2,1.1S27,37.8,27.3,37.8z"/>
	<path d="M32,39.1l0.9-7.2h0.9c0.2,0,0.3,0,0.4,0.1c0.1,0.1,0.2,0.2,0.2,0.4l0,0.9c0.4-0.5,0.8-0.9,1.2-1.2s0.9-0.4,1.4-0.4
		c0.3,0,0.5,0,0.7,0.1c0.2,0.1,0.4,0.2,0.6,0.4c0.2,0.2,0.3,0.4,0.4,0.7c0.1,0.3,0.1,0.6,0.1,0.9c0,0.1,0,0.2,0,0.3
		c0,0.1,0,0.2,0,0.3L38,39.1h-1.7c0.1-0.8,0.2-1.5,0.2-2c0.1-0.5,0.1-1,0.2-1.4s0.1-0.6,0.1-0.9s0-0.4,0.1-0.5s0-0.2,0-0.2
		c0,0,0-0.1,0-0.1c0-0.3-0.1-0.5-0.2-0.7s-0.3-0.2-0.5-0.2c-0.2,0-0.4,0.1-0.6,0.2c-0.2,0.1-0.4,0.3-0.6,0.5
		c-0.2,0.2-0.4,0.5-0.5,0.7c-0.2,0.3-0.3,0.6-0.4,1l-0.4,3.5H32z"/>
	<path d="M44.5,39.1c-0.2,0-0.4,0-0.4-0.1c-0.1-0.1-0.1-0.2-0.1-0.4l0.1-1.1c-0.3,0.5-0.7,0.9-1.2,1.2c-0.4,0.3-0.9,0.5-1.4,0.5
		c-0.3,0-0.6-0.1-0.8-0.2c-0.2-0.1-0.5-0.3-0.6-0.5c-0.2-0.2-0.3-0.5-0.4-0.8s-0.1-0.7-0.1-1.2c0-0.4,0-0.8,0.1-1.2
		c0.1-0.4,0.2-0.8,0.4-1.1c0.2-0.3,0.3-0.7,0.5-1s0.4-0.5,0.7-0.8c0.3-0.2,0.5-0.4,0.8-0.5c0.3-0.1,0.6-0.2,0.9-0.2
		c0.3,0,0.6,0.1,0.9,0.2c0.3,0.1,0.5,0.3,0.7,0.5l0.5-3.8h1.7l-1.3,10.4H44.5z M42.1,37.8c0.2,0,0.4-0.1,0.6-0.2
		c0.2-0.1,0.4-0.3,0.6-0.5c0.2-0.2,0.4-0.5,0.5-0.8s0.3-0.6,0.4-1l0.2-1.7c-0.2-0.2-0.3-0.3-0.5-0.4c-0.2-0.1-0.4-0.1-0.6-0.1
		c-0.3,0-0.6,0.1-0.8,0.3c-0.3,0.2-0.5,0.4-0.6,0.7c-0.2,0.3-0.3,0.7-0.4,1s-0.1,0.8-0.1,1.2c0,0.5,0.1,0.9,0.2,1.1
		C41.6,37.7,41.8,37.8,42.1,37.8z"/>
	<path d="M52.4,33.2l-0.7,5.6l-0.4,1.3c-0.1,0.2-0.2,0.4-0.3,0.5s-0.3,0.2-0.6,0.2h-0.7l0.9-7.6l-0.6-0.1c-0.1,0-0.2-0.1-0.3-0.1
		s-0.1-0.1-0.1-0.2c0,0,0,0,0,0c0,0,0,0,0-0.1c0,0,0-0.1,0-0.2c0-0.1,0-0.2,0.1-0.4h1l0.1-0.5c0.1-0.4,0.2-0.8,0.3-1.1
		c0.2-0.3,0.4-0.6,0.6-0.8c0.3-0.2,0.5-0.4,0.9-0.5c0.3-0.1,0.7-0.2,1.1-0.2c0.3,0,0.6,0,0.8,0.1l-0.2,0.9c0,0.1,0,0.1-0.1,0.1
		S54.4,30,54.3,30s-0.1,0-0.2,0c-0.1,0-0.1,0-0.2,0c-0.2,0-0.4,0-0.5,0.1c-0.2,0.1-0.3,0.1-0.4,0.2c-0.1,0.1-0.2,0.3-0.3,0.4
		c-0.1,0.2-0.1,0.4-0.2,0.7L52.5,32h1.6L54,33.2H52.4z"/>
	<path d="M56.9,39.2c-0.4,0-0.8-0.1-1.1-0.2c-0.3-0.1-0.6-0.3-0.9-0.6s-0.4-0.6-0.6-0.9c-0.1-0.4-0.2-0.8-0.2-1.3
		c0-0.6,0.1-1.2,0.3-1.7c0.2-0.5,0.5-1,0.8-1.4c0.3-0.4,0.7-0.7,1.2-0.9c0.5-0.2,0.9-0.3,1.5-0.3c0.4,0,0.8,0.1,1.1,0.2
		c0.3,0.1,0.6,0.3,0.9,0.6c0.2,0.3,0.4,0.6,0.6,0.9c0.1,0.4,0.2,0.8,0.2,1.3c0,0.6-0.1,1.2-0.3,1.7s-0.5,1-0.8,1.4
		c-0.3,0.4-0.7,0.7-1.2,0.9C57.9,39.1,57.5,39.2,56.9,39.2z M57.1,37.9c0.3,0,0.6-0.1,0.8-0.2c0.2-0.2,0.4-0.4,0.6-0.7
		c0.2-0.3,0.3-0.6,0.4-1c0.1-0.4,0.1-0.8,0.1-1.2c0-0.6-0.1-1-0.3-1.3s-0.5-0.4-0.9-0.4c-0.3,0-0.6,0.1-0.8,0.2
		c-0.2,0.2-0.4,0.4-0.6,0.7c-0.2,0.3-0.3,0.6-0.4,1c-0.1,0.4-0.1,0.8-0.1,1.2c0,0.6,0.1,1,0.3,1.3C56.4,37.7,56.7,37.9,57.1,37.9z"
		/>
	<path d="M61.5,39.1l1.3-10.4h1.7l-1.3,10.4H61.5z"/>
	<path d="M65,39.1l1.3-10.4h1.7l-1.3,10.4H65z"/>
	<path d="M71.1,39.2c-0.4,0-0.8-0.1-1.1-0.2c-0.3-0.1-0.6-0.3-0.9-0.6s-0.4-0.6-0.6-0.9c-0.1-0.4-0.2-0.8-0.2-1.3
		c0-0.6,0.1-1.2,0.3-1.7c0.2-0.5,0.5-1,0.8-1.4c0.3-0.4,0.7-0.7,1.2-0.9c0.5-0.2,0.9-0.3,1.5-0.3c0.4,0,0.8,0.1,1.1,0.2
		c0.3,0.1,0.6,0.3,0.9,0.6c0.2,0.3,0.4,0.6,0.6,0.9c0.1,0.4,0.2,0.8,0.2,1.3c0,0.6-0.1,1.2-0.3,1.7s-0.5,1-0.8,1.4
		c-0.3,0.4-0.7,0.7-1.2,0.9C72.1,39.1,71.6,39.2,71.1,39.2z M71.2,37.9c0.3,0,0.6-0.1,0.8-0.2c0.2-0.2,0.4-0.4,0.6-0.7
		c0.2-0.3,0.3-0.6,0.4-1c0.1-0.4,0.1-0.8,0.1-1.2c0-0.6-0.1-1-0.3-1.3s-0.5-0.4-0.9-0.4c-0.3,0-0.6,0.1-0.8,0.2
		c-0.2,0.2-0.4,0.4-0.6,0.7c-0.2,0.3-0.3,0.6-0.4,1c-0.1,0.4-0.1,0.8-0.1,1.2c0,0.6,0.1,1,0.3,1.3C70.5,37.7,70.8,37.9,71.2,37.9z"
		/>
	<path d="M75.7,31.9H77c0.1,0,0.2,0,0.3,0.1c0.1,0.1,0.1,0.1,0.1,0.2l0.4,3.8c0,0.2,0,0.4,0,0.6c0,0.2,0,0.4,0,0.6
		c0.1-0.2,0.1-0.4,0.2-0.6s0.2-0.4,0.2-0.6l1.6-3.8c0-0.1,0.1-0.2,0.2-0.2c0.1-0.1,0.2-0.1,0.3-0.1h0.7c0.1,0,0.2,0,0.3,0.1
		c0.1,0.1,0.1,0.1,0.1,0.2l0.6,3.8c0,0.2,0.1,0.4,0.1,0.6s0,0.4,0.1,0.6c0.1-0.2,0.1-0.4,0.2-0.6s0.1-0.4,0.2-0.6l1.4-3.8
		c0-0.1,0.1-0.2,0.2-0.2s0.2-0.1,0.3-0.1h1.3l-3,7.2h-1.3c-0.1,0-0.2-0.1-0.3-0.3l-0.7-4.2c0-0.2,0-0.4-0.1-0.5
		c0,0.1-0.1,0.2-0.1,0.3c0,0.1-0.1,0.2-0.1,0.3l-1.7,4.1c-0.1,0.2-0.2,0.3-0.4,0.3h-1.3L75.7,31.9z"/>
	<path d="M91,31.9c-0.1,0.8-0.2,1.5-0.2,2s-0.1,1-0.2,1.4c0,0.4-0.1,0.7-0.1,0.9s0,0.4-0.1,0.5s0,0.2,0,0.2c0,0,0,0.1,0,0.1
		c0,0.3,0.1,0.5,0.2,0.7c0.1,0.1,0.3,0.2,0.5,0.2c0.2,0,0.4-0.1,0.6-0.2c0.2-0.1,0.4-0.2,0.6-0.4s0.3-0.4,0.5-0.7
		c0.2-0.3,0.3-0.6,0.4-0.9l0.4-3.7h1.7l-0.9,7.2h-0.9c-0.1,0-0.2,0-0.2,0c-0.1,0-0.1-0.1-0.2-0.1c-0.1,0-0.1-0.1-0.1-0.2
		c0-0.1-0.1-0.1-0.1-0.2v0l0-0.9c-0.4,0.5-0.8,0.9-1.2,1.1s-0.9,0.4-1.3,0.4c-0.3,0-0.5,0-0.7-0.1c-0.2-0.1-0.4-0.2-0.6-0.4
		s-0.3-0.4-0.4-0.7c-0.1-0.3-0.1-0.6-0.1-0.9c0-0.1,0-0.2,0-0.3c0-0.1,0-0.2,0-0.3l0.5-4.6H91z"/>
	<path d="M100.8,33.3c-0.1,0.1-0.1,0.1-0.1,0.2c0,0-0.1,0-0.2,0c-0.1,0-0.2,0-0.2-0.1c-0.1,0-0.2-0.1-0.3-0.2s-0.2-0.1-0.4-0.2
		S99.2,33,99,33c-0.4,0-0.7,0.1-0.8,0.2c-0.2,0.2-0.3,0.4-0.3,0.6c0,0.1,0,0.3,0.1,0.4s0.2,0.2,0.3,0.3s0.3,0.1,0.4,0.2
		c0.2,0.1,0.3,0.1,0.5,0.2c0.2,0.1,0.4,0.2,0.5,0.2s0.3,0.2,0.4,0.3c0.1,0.1,0.2,0.3,0.3,0.5c0.1,0.2,0.1,0.4,0.1,0.7
		c0,0.3-0.1,0.7-0.2,1c-0.1,0.3-0.3,0.6-0.6,0.8S99.3,38.9,99,39c-0.4,0.1-0.8,0.2-1.2,0.2c-0.2,0-0.4,0-0.7-0.1
		c-0.2,0-0.4-0.1-0.6-0.2c-0.2-0.1-0.4-0.2-0.5-0.3c-0.2-0.1-0.3-0.2-0.4-0.3l0.4-0.7c0.1-0.1,0.1-0.1,0.2-0.2s0.2-0.1,0.3-0.1
		c0.1,0,0.2,0,0.3,0.1c0.1,0.1,0.2,0.1,0.3,0.2s0.2,0.1,0.4,0.2S97.7,38,98,38c0.2,0,0.4,0,0.5-0.1c0.1-0.1,0.3-0.1,0.4-0.2
		c0.1-0.1,0.2-0.2,0.2-0.3c0.1-0.1,0.1-0.2,0.1-0.4c0-0.2,0-0.3-0.1-0.4c-0.1-0.1-0.2-0.2-0.3-0.3s-0.3-0.1-0.5-0.2S97.9,36,97.7,36
		s-0.3-0.1-0.5-0.2c-0.2-0.1-0.3-0.2-0.4-0.3c-0.1-0.1-0.2-0.3-0.3-0.5c-0.1-0.2-0.1-0.4-0.1-0.7c0-0.3,0.1-0.6,0.2-0.9
		c0.1-0.3,0.3-0.6,0.5-0.8c0.2-0.2,0.5-0.4,0.9-0.6c0.3-0.1,0.7-0.2,1.2-0.2c0.5,0,0.9,0.1,1.2,0.2s0.6,0.4,0.9,0.6L100.8,33.3z"/>
	<path d="M36,54.2c-0.4,0-0.8-0.1-1.1-0.2s-0.6-0.3-0.9-0.6s-0.4-0.6-0.6-0.9c-0.1-0.4-0.2-0.8-0.2-1.3c0-0.6,0.1-1.2,0.3-1.7
		c0.2-0.5,0.5-1,0.8-1.4c0.3-0.4,0.7-0.7,1.2-0.9c0.5-0.2,0.9-0.3,1.5-0.3c0.4,0,0.8,0.1,1.1,0.2s0.6,0.3,0.9,0.6
		c0.2,0.3,0.4,0.6,0.6,0.9c0.1,0.4,0.2,0.8,0.2,1.3c0,0.6-0.1,1.2-0.3,1.7s-0.5,1-0.8,1.4c-0.3,0.4-0.7,0.7-1.2,0.9
		C37,54.1,36.5,54.2,36,54.2z M36.1,52.9c0.3,0,0.6-0.1,0.8-0.2c0.2-0.2,0.4-0.4,0.6-0.7c0.2-0.3,0.3-0.6,0.4-1
		c0.1-0.4,0.1-0.8,0.1-1.2c0-0.6-0.1-1-0.3-1.3s-0.5-0.4-0.9-0.4c-0.3,0-0.6,0.1-0.8,0.2c-0.2,0.2-0.4,0.4-0.6,0.7
		c-0.2,0.3-0.3,0.6-0.4,1c-0.1,0.4-0.1,0.8-0.1,1.2c0,0.6,0.1,1,0.3,1.3C35.4,52.7,35.7,52.9,36.1,52.9z"/>
	<path d="M40.4,54.1l0.9-7.2h0.9c0.2,0,0.3,0,0.4,0.1c0.1,0.1,0.2,0.2,0.2,0.4l0,0.9c0.4-0.5,0.8-0.9,1.2-1.2s0.9-0.4,1.4-0.4
		c0.3,0,0.5,0,0.7,0.1s0.4,0.2,0.6,0.4s0.3,0.4,0.4,0.7C47,48.3,47,48.6,47,49c0,0.1,0,0.2,0,0.3c0,0.1,0,0.2,0,0.3l-0.5,4.6h-1.7
		c0.1-0.8,0.2-1.5,0.2-2c0.1-0.5,0.1-1,0.2-1.4c0-0.4,0.1-0.6,0.1-0.9s0-0.4,0.1-0.5s0-0.2,0-0.2c0,0,0-0.1,0-0.1
		c0-0.3-0.1-0.5-0.2-0.7c-0.1-0.1-0.3-0.2-0.5-0.2c-0.2,0-0.4,0.1-0.6,0.2c-0.2,0.1-0.4,0.3-0.6,0.5c-0.2,0.2-0.4,0.5-0.5,0.7
		c-0.2,0.3-0.3,0.6-0.4,1l-0.4,3.5H40.4z"/>
	<path d="M58.6,44l-0.2,1.5h-2.8l-1.1,8.6h-1.8l1.1-8.6h-2.8l0.2-1.5H58.6z"/>
	<path d="M57.6,46.9h1.3c0.1,0,0.2,0,0.3,0.1c0.1,0.1,0.1,0.1,0.1,0.2l0.4,3.8c0,0.2,0,0.4,0,0.6c0,0.2,0,0.4,0,0.6
		c0.1-0.2,0.1-0.4,0.2-0.6s0.2-0.4,0.2-0.6l1.6-3.8c0-0.1,0.1-0.2,0.2-0.2c0.1-0.1,0.2-0.1,0.3-0.1h0.7c0.1,0,0.2,0,0.3,0.1
		c0.1,0.1,0.1,0.1,0.1,0.2l0.6,3.8c0,0.2,0.1,0.4,0.1,0.6s0,0.4,0.1,0.6c0.1-0.2,0.1-0.4,0.2-0.6s0.1-0.4,0.2-0.6l1.4-3.8
		c0-0.1,0.1-0.2,0.2-0.2s0.2-0.1,0.3-0.1h1.3l-3,7.2h-1.3c-0.1,0-0.2-0.1-0.3-0.3l-0.7-4.2c0-0.2,0-0.4-0.1-0.5
		c0,0.1-0.1,0.2-0.1,0.3c0,0.1-0.1,0.2-0.1,0.3l-1.7,4.1c-0.1,0.2-0.2,0.3-0.4,0.3h-1.3L57.6,46.9z"/>
	<path d="M70.5,46.9l-0.9,7.2h-1.7l0.9-7.2H70.5z M70.9,44.8c0,0.1,0,0.3-0.1,0.4c-0.1,0.1-0.1,0.2-0.2,0.3
		c-0.1,0.1-0.2,0.2-0.3,0.2s-0.3,0.1-0.4,0.1c-0.1,0-0.3,0-0.4-0.1c-0.1-0.1-0.2-0.1-0.3-0.2c-0.1-0.1-0.2-0.2-0.2-0.3
		c-0.1-0.1-0.1-0.3-0.1-0.4c0-0.1,0-0.3,0.1-0.4c0.1-0.1,0.1-0.3,0.2-0.4c0.1-0.1,0.2-0.2,0.3-0.2c0.1-0.1,0.3-0.1,0.4-0.1
		c0.1,0,0.3,0,0.4,0.1c0.1,0.1,0.2,0.1,0.3,0.2c0.1,0.1,0.2,0.2,0.2,0.3S70.9,44.7,70.9,44.8z"/>
	<path d="M72,52.6c0,0,0-0.1,0-0.1c0,0,0-0.1,0-0.2c0-0.1,0-0.2,0-0.3s0-0.3,0.1-0.5l0.4-3.2h-0.7c-0.1,0-0.1,0-0.2-0.1
		c0,0-0.1-0.1-0.1-0.2c0,0,0,0,0,0c0,0,0,0,0-0.1c0,0,0-0.1,0-0.2c0-0.1,0-0.2,0-0.4l1.1-0.2l0.6-2c0-0.1,0.1-0.2,0.1-0.2
		c0.1-0.1,0.2-0.1,0.2-0.1h0.9L74.4,47h1.7l-0.1,1.2h-1.7l-0.4,3.1c0,0.2,0,0.3-0.1,0.5c0,0.1,0,0.2,0,0.3c0,0.1,0,0.1,0,0.1
		c0,0,0,0,0,0.1c0,0.2,0,0.3,0.1,0.4c0.1,0.1,0.2,0.2,0.4,0.2c0.1,0,0.2,0,0.3,0s0.1-0.1,0.2-0.1c0.1,0,0.1-0.1,0.1-0.1s0.1,0,0.1,0
		c0.1,0,0.1,0,0.1,0s0.1,0.1,0.1,0.1l0.4,0.8c-0.3,0.2-0.5,0.4-0.9,0.5c-0.3,0.1-0.6,0.2-0.9,0.2c-0.5,0-0.9-0.1-1.2-0.4
		C72.2,53.5,72,53.1,72,52.6z"/>
	<path d="M77,52.6c0,0,0-0.1,0-0.1c0,0,0-0.1,0-0.2c0-0.1,0-0.2,0-0.3s0-0.3,0.1-0.5l0.4-3.2h-0.7c-0.1,0-0.1,0-0.2-0.1
		c0,0-0.1-0.1-0.1-0.2c0,0,0,0,0,0c0,0,0,0,0-0.1c0,0,0-0.1,0-0.2c0-0.1,0-0.2,0-0.4l1.1-0.2l0.6-2c0-0.1,0.1-0.2,0.1-0.2
		c0.1-0.1,0.2-0.1,0.2-0.1h0.9L79.3,47h1.7l-0.1,1.2h-1.7l-0.4,3.1c0,0.2,0,0.3-0.1,0.5c0,0.1,0,0.2,0,0.3c0,0.1,0,0.1,0,0.1
		c0,0,0,0,0,0.1c0,0.2,0,0.3,0.1,0.4c0.1,0.1,0.2,0.2,0.4,0.2c0.1,0,0.2,0,0.3,0s0.1-0.1,0.2-0.1c0.1,0,0.1-0.1,0.1-0.1s0.1,0,0.1,0
		c0.1,0,0.1,0,0.1,0s0.1,0.1,0.1,0.1l0.4,0.8c-0.3,0.2-0.5,0.4-0.9,0.5c-0.3,0.1-0.6,0.2-0.9,0.2c-0.5,0-0.9-0.1-1.2-0.4
		C77.1,53.5,77,53.1,77,52.6z"/>
	<path d="M87.3,48.6c0,0.3-0.1,0.6-0.2,0.9c-0.1,0.3-0.4,0.5-0.7,0.7s-0.8,0.4-1.3,0.5c-0.6,0.2-1.3,0.3-2.2,0.4v0.1
		c0,1.1,0.5,1.7,1.4,1.7c0.2,0,0.4,0,0.5-0.1c0.2,0,0.3-0.1,0.4-0.1c0.1-0.1,0.2-0.1,0.3-0.2s0.2-0.1,0.3-0.2
		c0.1-0.1,0.2-0.1,0.2-0.1c0.1,0,0.2-0.1,0.3-0.1c0.1,0,0.1,0,0.2,0c0.1,0,0.1,0.1,0.1,0.1l0.4,0.5c-0.2,0.2-0.5,0.5-0.7,0.6
		c-0.2,0.2-0.5,0.3-0.7,0.4c-0.2,0.1-0.5,0.2-0.8,0.3c-0.3,0.1-0.6,0.1-0.9,0.1c-0.4,0-0.8-0.1-1.1-0.2c-0.3-0.1-0.6-0.3-0.9-0.6
		c-0.2-0.3-0.4-0.6-0.6-0.9c-0.1-0.4-0.2-0.8-0.2-1.2c0-0.4,0-0.7,0.1-1.1c0.1-0.4,0.2-0.7,0.4-1c0.2-0.3,0.3-0.6,0.6-0.9
		c0.2-0.3,0.5-0.5,0.8-0.7c0.3-0.2,0.6-0.4,0.9-0.5c0.3-0.1,0.7-0.2,1.1-0.2c0.4,0,0.7,0.1,1,0.2s0.5,0.2,0.7,0.4
		c0.2,0.2,0.3,0.4,0.4,0.6C87.3,48.2,87.3,48.4,87.3,48.6z M85,48c-0.2,0-0.5,0-0.7,0.1c-0.2,0.1-0.4,0.2-0.5,0.4
		c-0.2,0.2-0.3,0.4-0.4,0.6c-0.1,0.2-0.2,0.5-0.3,0.8c0.6-0.1,1-0.2,1.4-0.3c0.4-0.1,0.6-0.2,0.8-0.3c0.2-0.1,0.3-0.2,0.4-0.4
		s0.1-0.3,0.1-0.4c0-0.1,0-0.1,0-0.2s-0.1-0.1-0.1-0.2c-0.1-0.1-0.1-0.1-0.2-0.1C85.2,48,85.1,48,85,48z"/>
	<path d="M87.9,54.1l0.9-7.2h0.9c0.2,0,0.3,0,0.4,0.1c0.1,0.1,0.2,0.2,0.2,0.4c0,0,0,0.1,0,0.2c0,0.1,0,0.2,0,0.4c0,0.2,0,0.4,0,0.7
		c0.3-0.6,0.6-1,1-1.3c0.3-0.3,0.7-0.5,1.1-0.5c0.2,0,0.4,0,0.6,0.1l-0.3,1.7c-0.2-0.1-0.5-0.1-0.7-0.1c-0.4,0-0.8,0.2-1.1,0.6
		s-0.6,1-0.8,1.9l-0.4,3.1H87.9z"/>
</g>
</svg>
