<?xml version="1.0" encoding="utf-8"?>
<!-- Generator: Adobe Illustrator 26.0.2, SVG Export Plug-In . SVG Version: 6.00 Build 0)  -->
<svg version="1.1" id="Ebene_1" xmlns="http://www.w3.org/2000/svg" xmlns:xlink="http://www.w3.org/1999/xlink" x="0px" y="0px"
	 viewBox="0 0 173.3 144" style="enable-background:new 0 0 173.3 144;" xml:space="preserve">
<style type="text/css">
	.st0{fill:#EC008C;}
	.st1{fill:#00AEEF;}
	.st2{fill:#231F20;}
	.st3{clip-path:url(#SVGID_00000029042685450512639590000004445097699449652882_);}
	.st4{clip-path:url(#SVGID_00000147212862560701861110000006142288976726452411_);}
	.st5{enable-background:new    ;}
	.st6{fill:#FFFFFF;}
	.st7{clip-path:url(#SVGID_00000078741022557233890330000007549393793059207863_);}
	.st8{clip-path:url(#SVGID_00000164514046320438689220000009000918133322072759_);}
</style>
<g id="Gruppe_149" transform="translate(-979 -2601.012)">
	<path id="Pfad_87" class="st0" d="M1018.9,2613.9l4.3,34l-44.1,6.2l37,25.7l-11.8,40.5l46-26.8l17.9,44.9l17.2-39l42.7,12.2
		l-13.6-35.5l35.9-28.3l-35.9-3.6l7.6-30.4l-33.1,12.3l-16.3-25.2l-22.4,25.2L1018.9,2613.9z"/>
	<path id="Pfad_88" class="st1" d="M1020.8,2620.4l4.3,34l-44.1,6.2l37,25.7l-11.8,40.5l46-26.8l17.9,44.9l17.2-39l42.7,12.2
		l-13.6-35.5l35.9-28.3l-35.9-3.6l7.6-30.4l-33.1,12.3l-16.3-25.2l-22.4,25.2L1020.8,2620.4z"/>
	<path id="Pfad_89" class="st2" d="M1018.9,2617.4l4.3,34l-44.1,6.2l37,25.7l-11.8,40.5l46-26.8l17.9,44.9l17.2-39l42.7,12.2
		l-13.6-35.5l35.9-28.3l-35.9-3.6l7.6-30.4l-33.1,12.3l-16.3-25.2l-22.4,25.2L1018.9,2617.4z"/>
	<g id="Gruppe_148" transform="translate(1179.793 2701.823)">
		<g id="Gruppe_44" transform="translate(-165 -60)">
			<g>
				<g>
					<defs>
						<rect id="SVGID_1_" x="0" y="0" width="108.8" height="54.8"/>
					</defs>
					<clipPath id="SVGID_00000151542074861596837550000001559750351262506938_">
						<use xlink:href="#SVGID_1_"  style="overflow:visible;"/>
					</clipPath>
					<g id="Gruppe_43" style="clip-path:url(#SVGID_00000151542074861596837550000001559750351262506938_);">
						<g id="Gruppe_36" transform="translate(22.316)">
							<g id="Gruppe_35">
								<g>
									<g>
										<defs>
											<rect id="SVGID_00000039854057625757553480000016935208687273593241_" x="0" y="0" width="60.2" height="22.3"/>
										</defs>
										<clipPath id="SVGID_00000065773061738418099880000009235730254270258868_">
											<use xlink:href="#SVGID_00000039854057625757553480000016935208687273593241_"  style="overflow:visible;"/>
										</clipPath>
										<g id="Gruppe_34" style="clip-path:url(#SVGID_00000065773061738418099880000009235730254270258868_);">
											<g class="st5">
												<path class="st6" d="M7.7,17.4l-0.6-1.3c0,0,0-0.1-0.1-0.1l-3.4,0.4c-0.1,0-0.1,0-0.1,0.1l-0.2,1.4
													c0,0.1-0.1,0.2-0.2,0.2L2,18.3c-0.1,0-0.1,0-0.2,0s0-0.1,0-0.2l1.6-9c0-0.1,0.1-0.2,0.2-0.2l1.5-0.2
													c0.1,0,0.2,0,0.3,0.1l3.9,8.3c0,0,0,0,0,0.1c0,0.1,0,0.2-0.2,0.2L8,17.5C7.9,17.5,7.8,17.5,7.7,17.4z M3.9,15.3l2.6-0.3
													c0.1,0,0.1,0,0.1-0.1l-1.9-4.2c0,0,0,0-0.1,0c0,0,0,0-0.1,0.1L3.9,15.3C3.8,15.2,3.9,15.3,3.9,15.3z"/>
												<path class="st6" d="M10.7,17L9.6,8.4c0-0.1,0-0.2,0.2-0.2L10.8,8C11,8,11,8,11.1,8.2l1,7.5c0,0.1,0,0.1,0.1,0.1
													l4.3-0.5c0.1,0,0.2,0,0.2,0.2l0.1,0.9c0,0.1,0,0.2-0.2,0.2l-5.6,0.7C10.8,17.2,10.7,17.1,10.7,17z"/>
												<path class="st6" d="M22.9,15.4L20.7,12c0,0,0,0-0.1,0l-1.5,0.2c-0.1,0-0.1,0-0.1,0.1l0.5,3.6c0,0.1,0,0.2-0.2,0.2
													l-1.1,0.1c-0.1,0-0.2,0-0.2-0.2l-1.1-8.6c0-0.1,0-0.2,0.2-0.2l3.5-0.5c0.5-0.1,1,0,1.4,0.1c0.4,0.2,0.8,0.4,1.1,0.8
													C23.4,8,23.5,8.5,23.6,9c0.1,0.6,0,1.1-0.3,1.6c-0.3,0.5-0.6,0.8-1.1,1c0,0,0,0,0,0.1c0,0,0,0,0,0.1l2.3,3.5l0,0.1
													c0,0.1,0,0.1-0.2,0.2l-1.1,0.1C23,15.6,23,15.5,22.9,15.4z M18.6,8.4l0.3,2.5c0,0.1,0,0.1,0.1,0.1l1.9-0.2
													c0.4-0.1,0.7-0.2,1-0.5c0.2-0.3,0.3-0.6,0.3-1c-0.1-0.4-0.2-0.7-0.5-0.9C21.3,8.1,21,8,20.6,8L18.6,8.4
													C18.6,8.3,18.6,8.3,18.6,8.4z"/>
												<path class="st6" d="M30.9,6.7l-4.3,0.6c-0.1,0-0.1,0-0.1,0.1l0.3,2.4c0,0.1,0,0.1,0.1,0.1l2.9-0.4c0.1,0,0.2,0,0.2,0.2
													l0.1,0.9c0,0.1,0,0.2-0.2,0.2L27,11.1c-0.1,0-0.1,0-0.1,0.1l0.3,2.5c0,0.1,0,0.1,0.1,0.1l4.3-0.6c0.1,0,0.2,0,0.2,0.2
													l0.1,0.9c0,0.1,0,0.2-0.2,0.2l-5.7,0.7c-0.1,0-0.2,0-0.2-0.2l-1.1-8.6c0-0.1,0-0.2,0.2-0.2l5.7-0.7c0.1,0,0.2,0,0.2,0.2
													L31,6.5C31.1,6.6,31,6.7,30.9,6.7z"/>
												<path class="st6" d="M39,13.4l-0.6-1.3c0,0,0-0.1-0.1-0.1l-3.4,0.4c-0.1,0-0.1,0-0.1,0.1l-0.2,1.4
													c0,0.1-0.1,0.2-0.2,0.2l-1.2,0.2c-0.1,0-0.1,0-0.2,0c0,0,0-0.1,0-0.2l1.6-9c0-0.1,0.1-0.2,0.2-0.2l1.5-0.2
													c0.1,0,0.2,0,0.3,0.1l3.9,8.3c0,0,0,0,0,0.1c0,0.1,0,0.2-0.2,0.2l-1.2,0.2C39.1,13.5,39,13.5,39,13.4z M35.2,11.2
													l2.6-0.3c0.1,0,0.1,0,0.1-0.1L36,6.6c0,0,0,0-0.1,0c0,0,0,0-0.1,0.1L35.2,11.2C35.1,11.2,35.1,11.2,35.2,11.2z"/>
											</g>
											<g class="st5">
												<path class="st6" d="M41.9,12.9l-1.1-8.6c0-0.1,0-0.2,0.2-0.2l3.1-0.4c0.6-0.1,1.2,0,1.7,0.1c0.5,0.2,0.9,0.4,1.2,0.8
													c0.3,0.4,0.5,0.8,0.6,1.4L48,9.7c0.1,0.5,0,1-0.2,1.4s-0.5,0.8-1,1.1c-0.4,0.3-1,0.5-1.6,0.5l-3.1,0.4
													C42,13.1,41.9,13.1,41.9,12.9z M43.4,11.6l1.8-0.2c0.5-0.1,0.8-0.2,1-0.6c0.2-0.3,0.3-0.7,0.3-1.2L46,6.4
													c-0.1-0.5-0.3-0.9-0.6-1.1C45.2,5,44.8,4.9,44.3,5l-1.8,0.2c-0.1,0-0.1,0-0.1,0.1L43.4,11.6
													C43.3,11.6,43.3,11.7,43.4,11.6z"/>
											</g>
											<g class="st5">
												<path class="st6" d="M51.7,11.7l-0.4-3.4c0,0,0-0.1,0-0.1l-3.3-4.7c0,0,0-0.1-0.1-0.1c0-0.1,0-0.1,0.2-0.2L49.2,3
													c0.1,0,0.2,0,0.3,0.1l2.2,3.3c0,0,0,0,0.1,0c0,0,0,0,0,0l1.3-3.8c0-0.1,0.1-0.2,0.2-0.2l1.2-0.2c0.1,0,0.2,0,0.2,0.1
													c0,0,0,0.1,0,0.1l-2,5.4c0,0.1,0,0.1,0,0.1l0.4,3.4c0,0.1,0,0.2-0.2,0.2l-1.1,0.1C51.7,11.9,51.7,11.8,51.7,11.7z"/>
											</g>
										</g>
									</g>
								</g>
							</g>
						</g>
						<g id="Gruppe_39" transform="translate(0 9.472)">
							<g id="Gruppe_38">
								<g>
									<g>
										<defs>
											<rect id="SVGID_00000170961330892461497960000011041018668329225882_" x="0" y="0" width="108.8" height="34"/>
										</defs>
										<clipPath id="SVGID_00000093142156517807241020000014640714482306532528_">
											<use xlink:href="#SVGID_00000170961330892461497960000011041018668329225882_"  style="overflow:visible;"/>
										</clipPath>
										<g id="Gruppe_37" style="clip-path:url(#SVGID_00000093142156517807241020000014640714482306532528_);">
											<g class="st5">
												<path class="st6" d="M2.9,16l2.4-0.3c0.1,0,0.2,0,0.2,0.1c0.1,0.1,0.1,0.1,0.1,0.2l1.5,11.9c0,0.1,0,0.2-0.1,0.2
													c-0.1,0.1-0.1,0.1-0.2,0.1l-2.3,0.3c-0.1,0-0.2,0-0.2-0.1c-0.1-0.1-0.1-0.1-0.1-0.2L3,18.9c0,0,0-0.1,0-0.1
													c0,0-0.1,0-0.1,0l-1.5,0.4l-0.1,0c-0.2,0-0.3-0.1-0.3-0.3l-0.2-1.7c0-0.2,0.1-0.3,0.2-0.4l1.4-0.7
													C2.6,16.1,2.7,16,2.9,16z"/>
												<path class="st6" d="M16.6,22.7c0.1,0.6,0,1.2-0.1,1.9c-0.2,0.8-0.6,1.5-1.3,2s-1.4,0.9-2.4,1c-0.9,0.1-1.8,0-2.6-0.4
													c-0.8-0.4-1.4-0.9-1.8-1.7c-0.2-0.4-0.4-0.9-0.5-1.4l0,0c0-0.2,0.1-0.3,0.3-0.3l2.4-0.3c0.2,0,0.3,0.1,0.4,0.3
													c0.1,0.3,0.2,0.6,0.3,0.7c0.3,0.5,0.7,0.6,1.2,0.6c0.5-0.1,0.9-0.3,1-0.8c0.1-0.3,0.2-0.7,0.1-1.2
													c-0.1-0.5-0.2-0.9-0.4-1.2c-0.3-0.4-0.7-0.6-1.2-0.5c-0.1,0-0.3,0.1-0.4,0.2c-0.1,0.1-0.3,0.2-0.5,0.4
													c-0.1,0.1-0.1,0.1-0.2,0.1c-0.1,0-0.2,0-0.3-0.1l-1.3-1.5c-0.1-0.1-0.1-0.2-0.1-0.2c0-0.1,0-0.2,0.1-0.3l2.4-2.3
													c0,0,0.1-0.1,0-0.1s-0.1,0-0.1,0l-3.7,0.5c-0.1,0-0.2,0-0.2-0.1s-0.1-0.1-0.1-0.2l-0.2-1.9c0-0.1,0-0.2,0.1-0.2
													s0.1-0.1,0.2-0.1l7.6-1c0.1,0,0.2,0,0.2,0.1c0.1,0.1,0.1,0.1,0.1,0.2l0.3,2.1c0,0.2,0,0.3-0.1,0.4l-1.9,1.9
													c0,0,0,0,0,0.1c0,0,0,0.1,0.1,0.1c0.9,0.1,1.7,0.6,2.2,1.5C16.3,21.4,16.5,22,16.6,22.7z"/>
												<path class="st6" d="M19.5,25.6c-0.9-0.7-1.4-1.7-1.6-3l-0.6-4.4c-0.2-1.3,0.1-2.4,0.8-3.2c0.7-0.9,1.7-1.4,3.1-1.5
													c1.4-0.2,2.5,0.1,3.4,0.7c0.9,0.7,1.4,1.6,1.6,2.9l0.6,4.4c0.2,1.3-0.1,2.4-0.8,3.3c-0.7,0.9-1.7,1.4-3.1,1.6
													C21.5,26.5,20.4,26.3,19.5,25.6z M23.6,23.2c0.2-0.3,0.3-0.7,0.3-1.2l-0.6-4.6c-0.1-0.5-0.2-0.9-0.6-1.1
													C22.4,16.1,22,16,21.6,16c-0.4,0.1-0.8,0.2-1,0.6c-0.2,0.3-0.3,0.7-0.2,1.2l0.6,4.6c0.1,0.5,0.2,0.9,0.5,1.1
													c0.3,0.2,0.7,0.3,1.1,0.3C23,23.7,23.4,23.5,23.6,23.2z"/>
												<path class="st6" d="M33.3,23.8c-0.9-0.7-1.4-1.7-1.6-3l-0.6-4.4c-0.2-1.3,0.1-2.4,0.8-3.2c0.7-0.9,1.7-1.4,3.1-1.5
													c1.4-0.2,2.5,0.1,3.4,0.7c0.9,0.7,1.4,1.6,1.6,2.9l0.6,4.4c0.2,1.3-0.1,2.4-0.8,3.3c-0.7,0.9-1.7,1.4-3.1,1.6
													C35.3,24.7,34.2,24.5,33.3,23.8z M37.4,21.4c0.2-0.3,0.3-0.7,0.3-1.2L37,15.6c-0.1-0.5-0.2-0.9-0.6-1.1
													c-0.3-0.2-0.7-0.3-1.1-0.3c-0.4,0.1-0.8,0.2-1,0.6c-0.2,0.3-0.3,0.7-0.2,1.2l0.6,4.6c0.1,0.5,0.2,0.9,0.5,1.1
													c0.3,0.2,0.7,0.3,1.1,0.3C36.8,21.9,37.1,21.8,37.4,21.4z"/>
												<path class="st6" d="M43.5,22.5c-0.9-0.7-1.4-1.7-1.6-3l-0.6-4.4c-0.2-1.3,0.1-2.4,0.8-3.2c0.7-0.9,1.7-1.4,3.1-1.5
													c1.4-0.2,2.5,0.1,3.4,0.7c0.9,0.7,1.4,1.6,1.6,2.9l0.6,4.4c0.2,1.3-0.1,2.4-0.8,3.3c-0.7,0.9-1.7,1.4-3.1,1.6
													C45.5,23.4,44.4,23.2,43.5,22.5z M47.6,20.1c0.2-0.3,0.3-0.7,0.3-1.2l-0.6-4.6c-0.1-0.5-0.2-0.9-0.5-1.1
													c-0.3-0.2-0.7-0.3-1.1-0.3c-0.4,0.1-0.8,0.2-1,0.6c-0.2,0.3-0.3,0.7-0.2,1.2l0.6,4.6c0.1,0.5,0.2,0.9,0.5,1.1
													c0.3,0.2,0.7,0.3,1.1,0.3C47,20.6,47.3,20.4,47.6,20.1z"/>
												<path class="st6" d="M53.7,21.2c-0.9-0.7-1.4-1.7-1.6-3l-0.6-4.4c-0.2-1.3,0.1-2.4,0.8-3.2C53,9.8,54,9.3,55.4,9.1
													s2.5,0.1,3.4,0.7c0.9,0.7,1.4,1.6,1.6,2.9l0.6,4.4c0.2,1.3-0.1,2.4-0.8,3.3c-0.7,0.9-1.7,1.4-3.1,1.6
													C55.7,22.1,54.6,21.9,53.7,21.2z M57.7,18.8c0.2-0.3,0.3-0.7,0.3-1.2L57.4,13c-0.1-0.5-0.2-0.9-0.5-1.1
													c-0.3-0.2-0.7-0.3-1.1-0.3c-0.4,0.1-0.8,0.2-1,0.6c-0.2,0.3-0.3,0.7-0.2,1.2l0.6,4.6c0.1,0.5,0.2,0.9,0.5,1.1
													c0.3,0.2,0.7,0.3,1.1,0.3S57.5,19.1,57.7,18.8z"/>
											</g>
											<g class="st5">
												<path class="st6" d="M66.7,20.4c-0.1-0.1-0.1-0.1-0.1-0.2L65,8.3c0-0.1,0-0.2,0.1-0.2C65.1,8,65.2,8,65.3,7.9l2.2-0.3
													c0.2,0,0.3,0,0.4,0.2l4.8,6.1c0,0,0.1,0.1,0.1,0c0,0,0-0.1,0-0.1L72,7.4c0-0.1,0-0.2,0.1-0.2s0.1-0.1,0.2-0.1l2.3-0.3
													c0.1,0,0.2,0,0.2,0.1s0.1,0.1,0.1,0.2l1.5,11.9c0,0.1,0,0.2-0.1,0.2c-0.1,0.1-0.1,0.1-0.2,0.1l-2.2,0.3
													c-0.2,0-0.3,0-0.4-0.2l-4.8-6.2c0-0.1-0.1-0.1-0.1-0.1c0,0-0.1,0.1,0,0.1l0.9,6.6c0,0.1,0,0.2-0.1,0.2
													c-0.1,0.1-0.1,0.1-0.2,0.1l-2.3,0.3C66.8,20.5,66.7,20.4,66.7,20.4z"/>
											</g>
											<g class="st5">
												<path class="st6" d="M85.6,7.8c-0.1,0.1-0.1,0.1-0.2,0.1L80,8.6c-0.1,0-0.1,0.1-0.1,0.1l0.3,2.1c0,0.1,0.1,0.1,0.1,0.1
													l3.4-0.4c0.1,0,0.2,0,0.2,0.1c0.1,0.1,0.1,0.1,0.1,0.2l0.2,1.9c0,0.1,0,0.2-0.1,0.2c-0.1,0.1-0.1,0.1-0.2,0.1l-3.4,0.4
													c-0.1,0-0.1,0.1-0.1,0.1l0.6,4.6c0,0.1,0,0.2-0.1,0.2c-0.1,0.1-0.1,0.1-0.2,0.1l-2.3,0.3c-0.1,0-0.2,0-0.2-0.1
													c-0.1-0.1-0.1-0.1-0.1-0.2L76.6,6.8c0-0.1,0-0.2,0.1-0.2c0.1-0.1,0.1-0.1,0.2-0.1l8.2-1.1c0.1,0,0.2,0,0.2,0.1
													c0.1,0.1,0.1,0.1,0.1,0.2l0.2,1.9C85.7,7.7,85.7,7.7,85.6,7.8z"/>
											</g>
											<g class="st5">
												<path class="st6" d="M95.7,4.1c0.1,0.1,0.1,0.1,0.1,0.2L96,6.2c0,0.1,0,0.2-0.1,0.2c-0.1,0.1-0.1,0.1-0.2,0.1l-3,0.4
													c-0.1,0-0.1,0.1-0.1,0.1l1.2,9.5c0,0.1,0,0.2-0.1,0.2c-0.1,0.1-0.1,0.1-0.2,0.1l-2.3,0.3c-0.1,0-0.2,0-0.2-0.1
													c-0.1-0.1-0.1-0.1-0.1-0.2l-1.2-9.5c0-0.1-0.1-0.1-0.1-0.1l-2.9,0.4c-0.1,0-0.2,0-0.2-0.1c-0.1-0.1-0.1-0.1-0.1-0.2
													l-0.2-1.9c0-0.1,0-0.2,0.1-0.2c0.1-0.1,0.1-0.1,0.2-0.1l9.1-1.2C95.5,4,95.6,4.1,95.7,4.1z"/>
											</g>
											<g class="st5">
												<path class="st6" d="M99,16.1c-0.7-0.2-1.2-0.4-1.6-0.8c-0.4-0.4-0.6-0.8-0.7-1.4l0-0.1c0-0.1,0-0.2,0.1-0.2
													c0.1-0.1,0.1-0.1,0.2-0.1l2.2-0.3c0.2,0,0.3,0,0.3,0.1l0,0.1c0,0.2,0.2,0.4,0.4,0.5c0.3,0.1,0.6,0.2,1,0.1
													c0.3,0,0.6-0.1,0.8-0.3c0.2-0.1,0.3-0.3,0.2-0.5s-0.1-0.3-0.4-0.4c-0.2-0.1-0.6-0.1-1.1-0.1c-0.8,0-1.4-0.1-1.9-0.3
													c-0.6-0.2-1.1-0.4-1.6-0.8c-0.4-0.3-0.7-0.8-0.7-1.5c-0.1-0.9,0.1-1.7,0.8-2.3c0.6-0.6,1.6-1,2.7-1.2
													c0.8-0.1,1.5-0.1,2.1,0.1c0.6,0.2,1.1,0.5,1.5,0.9c0.4,0.4,0.6,0.9,0.7,1.5c0,0.1,0,0.1-0.1,0.2c-0.1,0-0.1,0.1-0.2,0.1
													l-2.1,0.3c-0.2,0-0.3,0-0.3-0.1l0-0.1c0-0.2-0.2-0.4-0.4-0.5c-0.2-0.1-0.5-0.1-0.9-0.1c-0.3,0-0.6,0.1-0.8,0.3
													c-0.2,0.1-0.3,0.3-0.3,0.5c0,0.2,0.2,0.3,0.4,0.4c0.2,0.1,0.6,0.1,1.2,0.1c0.7,0.1,1.2,0.1,1.5,0.2
													c0.8,0.1,1.4,0.4,1.8,0.7c0.5,0.4,0.7,0.9,0.8,1.5c0.1,0.9-0.2,1.7-0.8,2.3c-0.7,0.6-1.6,1-2.9,1.1
													C100.5,16.3,99.7,16.2,99,16.1z"/>
											</g>
										</g>
									</g>
								</g>
							</g>
						</g>
						<g id="Gruppe_42" transform="translate(29.95 33.322)">
							<g id="Gruppe_41">
								<g>
									<g>
										<defs>
											<rect id="SVGID_00000096768857047960816630000003829576768499165583_" x="0" y="0" width="53.5" height="21.5"/>
										</defs>
										<clipPath id="SVGID_00000135685689792108874840000012887389733446247840_">
											<use xlink:href="#SVGID_00000096768857047960816630000003829576768499165583_"  style="overflow:visible;"/>
										</clipPath>
										<g id="Gruppe_40" style="clip-path:url(#SVGID_00000135685689792108874840000012887389733446247840_);">
											<g class="st5">
												<path class="st6" d="M2.3,17.2L1.2,8.6c0-0.1,0-0.2,0.2-0.2l1.1-0.1c0.1,0,0.2,0,0.3,0.1l2.4,3c0,0,0,0,0.1,0
													c0,0,0,0,0,0l1.6-3.5c0-0.1,0.1-0.2,0.2-0.2l1.1-0.1c0.1,0,0.2,0,0.2,0.2l1.1,8.6c0,0.1,0,0.2-0.2,0.2l-1.1,0.1
													c-0.1,0-0.2,0-0.2-0.2l-0.8-6.1c0,0,0-0.1,0-0.1s0,0-0.1,0L6,13c0,0.1-0.1,0.2-0.2,0.2l-0.5,0.1c-0.1,0-0.2,0-0.3-0.1
													l-1.9-2.3c0,0,0,0-0.1,0s0,0,0,0.1L3.8,17c0,0.1,0,0.2-0.2,0.2l-1.1,0.1C2.4,17.4,2.3,17.3,2.3,17.2z"/>
												<path class="st6" d="M11.5,16l-1.1-8.6c0-0.1,0-0.2,0.2-0.2L11.6,7c0.1,0,0.2,0,0.2,0.2l1.1,8.6c0,0.1,0,0.2-0.2,0.2
													l-1.1,0.1C11.5,16.2,11.5,16.1,11.5,16z"/>
												<path class="st6" d="M14.8,15.6l-1.1-8.6c0-0.1,0-0.2,0.2-0.2l1-0.1c0.1,0,0.2,0,0.3,0.1l4.4,5.4c0,0,0,0,0.1,0
													c0,0,0,0,0-0.1l-0.8-5.8c0-0.1,0-0.2,0.2-0.2l1.1-0.1c0.1,0,0.2,0,0.2,0.2l1.1,8.6c0,0.1,0,0.2-0.2,0.2l-1.1,0.1
													c-0.1,0-0.2,0-0.3-0.1l-4.4-5.5c0,0,0,0-0.1,0s0,0,0,0.1l0.8,5.9c0,0.1,0,0.2-0.2,0.2l-1.1,0.1
													C14.9,15.8,14.9,15.7,14.8,15.6z"/>
												<path class="st6" d="M28.4,5.1l0.1,0.9c0,0.1,0,0.2-0.2,0.2L26,6.5c-0.1,0-0.1,0-0.1,0.1l1,7.4c0,0.1,0,0.2-0.2,0.2
													l-1.1,0.1c-0.1,0-0.2,0-0.2-0.2l-1-7.4c0-0.1,0-0.1-0.1-0.1L22.1,7c-0.1,0-0.2,0-0.2-0.2l-0.1-0.9c0-0.1,0-0.2,0.2-0.2
													l6.2-0.8C28.3,4.9,28.4,4.9,28.4,5.1z"/>
												<path class="st6" d="M35.8,5.2l-4.3,0.6c-0.1,0-0.1,0-0.1,0.1l0.3,2.4c0,0.1,0,0.1,0.1,0.1l2.9-0.4c0.1,0,0.2,0,0.2,0.2
													L35,9c0,0.1,0,0.2-0.2,0.2L32,9.6c-0.1,0-0.1,0-0.1,0.1l0.3,2.5c0,0.1,0,0.1,0.1,0.1l4.3-0.6c0.1,0,0.2,0,0.2,0.2
													l0.1,0.9c0,0.1,0,0.2-0.2,0.2l-5.7,0.7c-0.1,0-0.2,0-0.2-0.2l-1.1-8.6c0-0.1,0-0.2,0.2-0.2l5.7-0.7c0.1,0,0.2,0,0.2,0.2
													L36,5C36,5.1,35.9,5.2,35.8,5.2z"/>
												<path class="st6" d="M38.5,12.5l-1.1-8.6c0-0.1,0-0.2,0.2-0.2l3.1-0.4c0.6-0.1,1.2,0,1.7,0.1s0.9,0.4,1.2,0.8
													C43.8,4.5,44,5,44.1,5.5l0.5,3.7c0.1,0.5,0,1-0.2,1.4c-0.2,0.4-0.5,0.8-1,1.1c-0.4,0.3-1,0.5-1.6,0.5l-3.1,0.4
													C38.6,12.7,38.5,12.6,38.5,12.5z M39.9,11.2l1.8-0.2c0.5-0.1,0.8-0.2,1-0.6c0.2-0.3,0.3-0.7,0.3-1.2l-0.4-3.3
													c-0.1-0.5-0.2-0.9-0.6-1.1c-0.3-0.3-0.7-0.3-1.2-0.3l-1.8,0.2c-0.1,0-0.1,0-0.1,0.1L39.9,11.2
													C39.8,11.2,39.9,11.2,39.9,11.2z"/>
												<path class="st6" d="M46.7,8.4l-0.9-5.6c0-0.1,0-0.2,0.2-0.2l1.1-0.1c0.1,0,0.2,0,0.2,0.2l0.6,5.6c0,0.1,0,0.2-0.2,0.2
													l-0.8,0.1C46.8,8.5,46.7,8.5,46.7,8.4z M46.9,11.3c-0.2-0.2-0.4-0.4-0.4-0.7c0-0.3,0-0.5,0.2-0.7
													c0.2-0.2,0.4-0.3,0.7-0.4c0.3,0,0.5,0,0.8,0.2c0.2,0.2,0.4,0.4,0.4,0.7c0,0.3,0,0.5-0.2,0.7c-0.2,0.2-0.4,0.3-0.7,0.4
													C47.4,11.5,47.1,11.5,46.9,11.3z"/>
											</g>
										</g>
									</g>
								</g>
							</g>
						</g>
					</g>
				</g>
			</g>
		</g>
	</g>
</g>
</svg>
