<svg xmlns="http://www.w3.org/2000/svg" xmlns:xlink="http://www.w3.org/1999/xlink" width="3800" zoomAndPan="magnify" viewBox="0 0 2850 239.999995" height="320" preserveAspectRatio="xMidYMid meet" version="1.0"><defs><g/></defs><g fill="#ff00ff" fill-opacity="1"><g transform="translate(47.67034, 202.177534)"><g><path d="M 87.476562 0 C 94.433594 0 101.589844 -2.585938 107.355469 -7.554688 L 161.035156 -53.679688 C 164.8125 -57.058594 166.800781 -61.234375 166.800781 -66.402344 L 167 -159.046875 L 135.1875 -159.046875 L 135.1875 -73.558594 L 87.476562 -32.40625 L 39.761719 -73.558594 L 39.761719 -159.046875 L 7.953125 -159.046875 L 7.953125 -66.402344 C 7.953125 -61.429688 10.140625 -57.058594 13.917969 -53.679688 L 67.59375 -7.554688 C 73.558594 -2.585938 80.515625 0 87.476562 0 Z M 87.476562 0 "/></g></g></g><g fill="#ff00ff" fill-opacity="1"><g transform="translate(254.032183, 202.177534)"><g><path d="M 167 0 L 167 -31.808594 L 103.378906 -31.808594 L 103.378906 -127.238281 L 167 -127.238281 L 167 -159.046875 L 7.953125 -159.046875 L 7.953125 -127.238281 L 71.570312 -127.238281 L 71.570312 -31.808594 L 7.953125 -31.808594 L 7.953125 0 Z M 167 0 "/></g></g></g><g fill="#ff00ff" fill-opacity="1"><g transform="translate(460.394025, 202.177534)"><g><path d="M 39.761719 0 L 39.761719 -104.769531 L 139.761719 -4.769531 C 142.742188 -1.789062 146.71875 0 151.09375 0 C 159.839844 0 167 -7.15625 167 -15.90625 L 167 -159.046875 L 135.1875 -159.046875 L 135.1875 -54.273438 L 35.1875 -154.273438 C 32.207031 -157.257812 28.230469 -159.046875 23.855469 -159.046875 C 15.109375 -159.046875 7.953125 -151.890625 7.953125 -143.140625 L 7.953125 0 Z M 39.761719 0 "/></g></g></g><g fill="#ff00ff" fill-opacity="1"><g transform="translate(666.755899, 202.177534)"><g><path d="M 135.1875 0 C 152.882812 0 167 -14.511719 167 -31.808594 L 167 -127.238281 C 167 -144.730469 152.683594 -159.046875 135.1875 -159.046875 L 39.761719 -159.046875 C 22.265625 -159.046875 7.953125 -144.730469 7.953125 -127.238281 L 7.953125 -31.808594 C 7.953125 -14.3125 22.265625 0 39.761719 0 Z M 39.761719 -127.238281 L 135.1875 -127.238281 L 135.1875 -31.808594 L 39.761719 -31.808594 Z M 39.761719 -127.238281 "/></g></g></g><g fill="#ff00ff" fill-opacity="1"><g transform="translate(873.11771, 202.177534)"><g><path d="M 39.761719 0 L 39.761719 -31.808594 L 7.953125 -31.808594 L 7.953125 0 Z M 39.761719 0 "/></g></g></g><g fill="#ff00ff" fill-opacity="1"><g transform="translate(952.243008, 202.177534)"><g><path d="M 167 -159.046875 L 39.761719 -159.046875 C 22.265625 -159.046875 7.953125 -144.730469 7.953125 -127.238281 L 7.953125 -31.808594 C 7.953125 -14.3125 22.265625 0 39.761719 0 L 167 0 L 167 -31.808594 L 39.761719 -31.808594 L 39.761719 -63.617188 L 167 -63.617188 L 167 -95.425781 L 39.761719 -95.425781 L 39.761719 -127.238281 L 167 -127.238281 Z M 167 -159.046875 "/></g></g></g><g fill="#ff00ff" fill-opacity="1"><g transform="translate(1158.60482, 202.177534)"><g><path d="M 167 0 L 167 -31.808594 L 39.761719 -31.808594 L 39.761719 -127.238281 L 167 -127.238281 L 167 -159.046875 L 39.761719 -159.046875 C 22.265625 -159.046875 7.953125 -144.730469 7.953125 -127.238281 L 7.953125 -31.808594 C 7.953125 -14.3125 22.265625 0 39.761719 0 Z M 167 0 "/></g></g></g><g fill="#ff00ff" fill-opacity="1"><g transform="translate(1364.966631, 202.177534)"><g><path d="M 135.1875 0 C 152.882812 0 167 -14.511719 167 -31.808594 L 167 -127.238281 C 167 -144.730469 152.683594 -159.046875 135.1875 -159.046875 L 39.761719 -159.046875 C 22.265625 -159.046875 7.953125 -144.730469 7.953125 -127.238281 L 7.953125 -31.808594 C 7.953125 -14.3125 22.265625 0 39.761719 0 Z M 39.761719 -127.238281 L 135.1875 -127.238281 L 135.1875 -31.808594 L 39.761719 -31.808594 Z M 39.761719 -127.238281 "/></g></g></g><g fill="#ff00ff" fill-opacity="1"><g transform="translate(1571.328442, 202.177534)"><g><path d="M 167 0 L 167 -31.808594 L 39.761719 -31.808594 L 39.761719 -159.046875 L 7.953125 -159.046875 L 7.953125 -31.808594 C 7.953125 -14.3125 22.265625 0 39.761719 0 Z M 167 0 "/></g></g></g><g fill="#ff00ff" fill-opacity="1"><g transform="translate(1777.690254, 202.177534)"><g><path d="M 135.1875 0 C 152.882812 0 167 -14.511719 167 -31.808594 L 167 -127.238281 C 167 -144.730469 152.683594 -159.046875 135.1875 -159.046875 L 39.761719 -159.046875 C 22.265625 -159.046875 7.953125 -144.730469 7.953125 -127.238281 L 7.953125 -31.808594 C 7.953125 -14.3125 22.265625 0 39.761719 0 Z M 39.761719 -127.238281 L 135.1875 -127.238281 L 135.1875 -31.808594 L 39.761719 -31.808594 Z M 39.761719 -127.238281 "/></g></g></g><g fill="#ff00ff" fill-opacity="1"><g transform="translate(1984.052065, 202.177534)"><g><path d="M 167 -159.046875 L 39.761719 -159.046875 C 22.265625 -159.046875 7.953125 -144.730469 7.953125 -127.238281 L 7.953125 -31.808594 C 7.953125 -14.3125 22.265625 0 39.761719 0 L 135.1875 0 C 152.882812 0 167 -14.511719 167 -31.808594 L 167 -95.425781 L 71.570312 -95.425781 L 71.570312 -63.617188 L 135.1875 -63.617188 L 135.1875 -31.808594 L 39.761719 -31.808594 L 39.761719 -127.238281 L 167 -127.238281 Z M 167 -159.046875 "/></g></g></g><g fill="#ff00ff" fill-opacity="1"><g transform="translate(2190.414001, 202.177534)"><g><path d="M 167 0 L 167 -31.808594 L 103.378906 -31.808594 L 103.378906 -127.238281 L 167 -127.238281 L 167 -159.046875 L 7.953125 -159.046875 L 7.953125 -127.238281 L 71.570312 -127.238281 L 71.570312 -31.808594 L 7.953125 -31.808594 L 7.953125 0 Z M 167 0 "/></g></g></g><g fill="#ff00ff" fill-opacity="1"><g transform="translate(2396.775812, 202.177534)"><g><path d="M 167 0 L 167 -31.808594 L 39.761719 -31.808594 L 39.761719 -127.238281 L 167 -127.238281 L 167 -159.046875 L 39.761719 -159.046875 C 22.265625 -159.046875 7.953125 -144.730469 7.953125 -127.238281 L 7.953125 -31.808594 C 7.953125 -14.3125 22.265625 0 39.761719 0 Z M 167 0 "/></g></g></g><g fill="#ff00ff" fill-opacity="1"><g transform="translate(2603.137623, 202.177534)"><g><path d="M 135.1875 0 C 152.882812 0 167 -14.511719 167 -31.808594 L 167 -127.238281 C 167 -144.730469 152.683594 -159.046875 135.1875 -159.046875 L 39.761719 -159.046875 C 22.265625 -159.046875 7.953125 -144.730469 7.953125 -127.238281 L 7.953125 -31.808594 C 7.953125 -14.3125 22.265625 0 39.761719 0 Z M 39.761719 -127.238281 L 135.1875 -127.238281 L 135.1875 -31.808594 L 39.761719 -31.808594 Z M 39.761719 -127.238281 "/></g></g></g><g fill="#00ffff" fill-opacity="1"><g transform="translate(71.88432, 207.76777)"><g><path d="M 87.476562 0 C 94.433594 0 101.589844 -2.585938 107.355469 -7.554688 L 161.035156 -53.679688 C 164.8125 -57.058594 166.800781 -61.234375 166.800781 -66.402344 L 167 -159.046875 L 135.1875 -159.046875 L 135.1875 -73.558594 L 87.476562 -32.40625 L 39.761719 -73.558594 L 39.761719 -159.046875 L 7.953125 -159.046875 L 7.953125 -66.402344 C 7.953125 -61.429688 10.140625 -57.058594 13.917969 -53.679688 L 67.59375 -7.554688 C 73.558594 -2.585938 80.515625 0 87.476562 0 Z M 87.476562 0 "/></g></g></g><g fill="#00ffff" fill-opacity="1"><g transform="translate(278.246162, 207.76777)"><g><path d="M 167 0 L 167 -31.808594 L 103.378906 -31.808594 L 103.378906 -127.238281 L 167 -127.238281 L 167 -159.046875 L 7.953125 -159.046875 L 7.953125 -127.238281 L 71.570312 -127.238281 L 71.570312 -31.808594 L 7.953125 -31.808594 L 7.953125 0 Z M 167 0 "/></g></g></g><g fill="#00ffff" fill-opacity="1"><g transform="translate(484.608004, 207.76777)"><g><path d="M 39.761719 0 L 39.761719 -104.769531 L 139.761719 -4.769531 C 142.742188 -1.789062 146.71875 0 151.09375 0 C 159.839844 0 167 -7.15625 167 -15.90625 L 167 -159.046875 L 135.1875 -159.046875 L 135.1875 -54.273438 L 35.1875 -154.273438 C 32.207031 -157.257812 28.230469 -159.046875 23.855469 -159.046875 C 15.109375 -159.046875 7.953125 -151.890625 7.953125 -143.140625 L 7.953125 0 Z M 39.761719 0 "/></g></g></g><g fill="#00ffff" fill-opacity="1"><g transform="translate(690.969878, 207.76777)"><g><path d="M 135.1875 0 C 152.882812 0 167 -14.511719 167 -31.808594 L 167 -127.238281 C 167 -144.730469 152.683594 -159.046875 135.1875 -159.046875 L 39.761719 -159.046875 C 22.265625 -159.046875 7.953125 -144.730469 7.953125 -127.238281 L 7.953125 -31.808594 C 7.953125 -14.3125 22.265625 0 39.761719 0 Z M 39.761719 -127.238281 L 135.1875 -127.238281 L 135.1875 -31.808594 L 39.761719 -31.808594 Z M 39.761719 -127.238281 "/></g></g></g><g fill="#00ffff" fill-opacity="1"><g transform="translate(897.331689, 207.76777)"><g><path d="M 39.761719 0 L 39.761719 -31.808594 L 7.953125 -31.808594 L 7.953125 0 Z M 39.761719 0 "/></g></g></g><g fill="#00ffff" fill-opacity="1"><g transform="translate(976.456987, 207.76777)"><g><path d="M 167 -159.046875 L 39.761719 -159.046875 C 22.265625 -159.046875 7.953125 -144.730469 7.953125 -127.238281 L 7.953125 -31.808594 C 7.953125 -14.3125 22.265625 0 39.761719 0 L 167 0 L 167 -31.808594 L 39.761719 -31.808594 L 39.761719 -63.617188 L 167 -63.617188 L 167 -95.425781 L 39.761719 -95.425781 L 39.761719 -127.238281 L 167 -127.238281 Z M 167 -159.046875 "/></g></g></g><g fill="#00ffff" fill-opacity="1"><g transform="translate(1182.818799, 207.76777)"><g><path d="M 167 0 L 167 -31.808594 L 39.761719 -31.808594 L 39.761719 -127.238281 L 167 -127.238281 L 167 -159.046875 L 39.761719 -159.046875 C 22.265625 -159.046875 7.953125 -144.730469 7.953125 -127.238281 L 7.953125 -31.808594 C 7.953125 -14.3125 22.265625 0 39.761719 0 Z M 167 0 "/></g></g></g><g fill="#00ffff" fill-opacity="1"><g transform="translate(1389.18061, 207.76777)"><g><path d="M 135.1875 0 C 152.882812 0 167 -14.511719 167 -31.808594 L 167 -127.238281 C 167 -144.730469 152.683594 -159.046875 135.1875 -159.046875 L 39.761719 -159.046875 C 22.265625 -159.046875 7.953125 -144.730469 7.953125 -127.238281 L 7.953125 -31.808594 C 7.953125 -14.3125 22.265625 0 39.761719 0 Z M 39.761719 -127.238281 L 135.1875 -127.238281 L 135.1875 -31.808594 L 39.761719 -31.808594 Z M 39.761719 -127.238281 "/></g></g></g><g fill="#00ffff" fill-opacity="1"><g transform="translate(1595.542421, 207.76777)"><g><path d="M 167 0 L 167 -31.808594 L 39.761719 -31.808594 L 39.761719 -159.046875 L 7.953125 -159.046875 L 7.953125 -31.808594 C 7.953125 -14.3125 22.265625 0 39.761719 0 Z M 167 0 "/></g></g></g><g fill="#00ffff" fill-opacity="1"><g transform="translate(1801.904233, 207.76777)"><g><path d="M 135.1875 0 C 152.882812 0 167 -14.511719 167 -31.808594 L 167 -127.238281 C 167 -144.730469 152.683594 -159.046875 135.1875 -159.046875 L 39.761719 -159.046875 C 22.265625 -159.046875 7.953125 -144.730469 7.953125 -127.238281 L 7.953125 -31.808594 C 7.953125 -14.3125 22.265625 0 39.761719 0 Z M 39.761719 -127.238281 L 135.1875 -127.238281 L 135.1875 -31.808594 L 39.761719 -31.808594 Z M 39.761719 -127.238281 "/></g></g></g><g fill="#00ffff" fill-opacity="1"><g transform="translate(2008.266044, 207.76777)"><g><path d="M 167 -159.046875 L 39.761719 -159.046875 C 22.265625 -159.046875 7.953125 -144.730469 7.953125 -127.238281 L 7.953125 -31.808594 C 7.953125 -14.3125 22.265625 0 39.761719 0 L 135.1875 0 C 152.882812 0 167 -14.511719 167 -31.808594 L 167 -95.425781 L 71.570312 -95.425781 L 71.570312 -63.617188 L 135.1875 -63.617188 L 135.1875 -31.808594 L 39.761719 -31.808594 L 39.761719 -127.238281 L 167 -127.238281 Z M 167 -159.046875 "/></g></g></g><g fill="#00ffff" fill-opacity="1"><g transform="translate(2214.62798, 207.76777)"><g><path d="M 167 0 L 167 -31.808594 L 103.378906 -31.808594 L 103.378906 -127.238281 L 167 -127.238281 L 167 -159.046875 L 7.953125 -159.046875 L 7.953125 -127.238281 L 71.570312 -127.238281 L 71.570312 -31.808594 L 7.953125 -31.808594 L 7.953125 0 Z M 167 0 "/></g></g></g><g fill="#00ffff" fill-opacity="1"><g transform="translate(2420.989791, 207.76777)"><g><path d="M 167 0 L 167 -31.808594 L 39.761719 -31.808594 L 39.761719 -127.238281 L 167 -127.238281 L 167 -159.046875 L 39.761719 -159.046875 C 22.265625 -159.046875 7.953125 -144.730469 7.953125 -127.238281 L 7.953125 -31.808594 C 7.953125 -14.3125 22.265625 0 39.761719 0 Z M 167 0 "/></g></g></g><g fill="#00ffff" fill-opacity="1"><g transform="translate(2627.351603, 207.76777)"><g><path d="M 135.1875 0 C 152.882812 0 167 -14.511719 167 -31.808594 L 167 -127.238281 C 167 -144.730469 152.683594 -159.046875 135.1875 -159.046875 L 39.761719 -159.046875 C 22.265625 -159.046875 7.953125 -144.730469 7.953125 -127.238281 L 7.953125 -31.808594 C 7.953125 -14.3125 22.265625 0 39.761719 0 Z M 39.761719 -127.238281 L 135.1875 -127.238281 L 135.1875 -31.808594 L 39.761719 -31.808594 Z M 39.761719 -127.238281 "/></g></g></g><g fill="#ffffff" fill-opacity="1"><g transform="translate(59.77733, 204.972652)"><g><path d="M 87.476562 0 C 94.433594 0 101.589844 -2.585938 107.355469 -7.554688 L 161.035156 -53.679688 C 164.8125 -57.058594 166.800781 -61.234375 166.800781 -66.402344 L 167 -159.046875 L 135.1875 -159.046875 L 135.1875 -73.558594 L 87.476562 -32.40625 L 39.761719 -73.558594 L 39.761719 -159.046875 L 7.953125 -159.046875 L 7.953125 -66.402344 C 7.953125 -61.429688 10.140625 -57.058594 13.917969 -53.679688 L 67.59375 -7.554688 C 73.558594 -2.585938 80.515625 0 87.476562 0 Z M 87.476562 0 "/></g></g></g><g fill="#ffffff" fill-opacity="1"><g transform="translate(266.139172, 204.972652)"><g><path d="M 167 0 L 167 -31.808594 L 103.378906 -31.808594 L 103.378906 -127.238281 L 167 -127.238281 L 167 -159.046875 L 7.953125 -159.046875 L 7.953125 -127.238281 L 71.570312 -127.238281 L 71.570312 -31.808594 L 7.953125 -31.808594 L 7.953125 0 Z M 167 0 "/></g></g></g><g fill="#ffffff" fill-opacity="1"><g transform="translate(472.501015, 204.972652)"><g><path d="M 39.761719 0 L 39.761719 -104.769531 L 139.761719 -4.769531 C 142.742188 -1.789062 146.71875 0 151.09375 0 C 159.839844 0 167 -7.15625 167 -15.90625 L 167 -159.046875 L 135.1875 -159.046875 L 135.1875 -54.273438 L 35.1875 -154.273438 C 32.207031 -157.257812 28.230469 -159.046875 23.855469 -159.046875 C 15.109375 -159.046875 7.953125 -151.890625 7.953125 -143.140625 L 7.953125 0 Z M 39.761719 0 "/></g></g></g><g fill="#ffffff" fill-opacity="1"><g transform="translate(678.862888, 204.972652)"><g><path d="M 135.1875 0 C 152.882812 0 167 -14.511719 167 -31.808594 L 167 -127.238281 C 167 -144.730469 152.683594 -159.046875 135.1875 -159.046875 L 39.761719 -159.046875 C 22.265625 -159.046875 7.953125 -144.730469 7.953125 -127.238281 L 7.953125 -31.808594 C 7.953125 -14.3125 22.265625 0 39.761719 0 Z M 39.761719 -127.238281 L 135.1875 -127.238281 L 135.1875 -31.808594 L 39.761719 -31.808594 Z M 39.761719 -127.238281 "/></g></g></g><g fill="#ffffff" fill-opacity="1"><g transform="translate(885.2247, 204.972652)"><g><path d="M 39.761719 0 L 39.761719 -31.808594 L 7.953125 -31.808594 L 7.953125 0 Z M 39.761719 0 "/></g></g></g><g fill="#ffffff" fill-opacity="1"><g transform="translate(964.349998, 204.972652)"><g><path d="M 167 -159.046875 L 39.761719 -159.046875 C 22.265625 -159.046875 7.953125 -144.730469 7.953125 -127.238281 L 7.953125 -31.808594 C 7.953125 -14.3125 22.265625 0 39.761719 0 L 167 0 L 167 -31.808594 L 39.761719 -31.808594 L 39.761719 -63.617188 L 167 -63.617188 L 167 -95.425781 L 39.761719 -95.425781 L 39.761719 -127.238281 L 167 -127.238281 Z M 167 -159.046875 "/></g></g></g><g fill="#ffffff" fill-opacity="1"><g transform="translate(1170.711809, 204.972652)"><g><path d="M 167 0 L 167 -31.808594 L 39.761719 -31.808594 L 39.761719 -127.238281 L 167 -127.238281 L 167 -159.046875 L 39.761719 -159.046875 C 22.265625 -159.046875 7.953125 -144.730469 7.953125 -127.238281 L 7.953125 -31.808594 C 7.953125 -14.3125 22.265625 0 39.761719 0 Z M 167 0 "/></g></g></g><g fill="#ffffff" fill-opacity="1"><g transform="translate(1377.073621, 204.972652)"><g><path d="M 135.1875 0 C 152.882812 0 167 -14.511719 167 -31.808594 L 167 -127.238281 C 167 -144.730469 152.683594 -159.046875 135.1875 -159.046875 L 39.761719 -159.046875 C 22.265625 -159.046875 7.953125 -144.730469 7.953125 -127.238281 L 7.953125 -31.808594 C 7.953125 -14.3125 22.265625 0 39.761719 0 Z M 39.761719 -127.238281 L 135.1875 -127.238281 L 135.1875 -31.808594 L 39.761719 -31.808594 Z M 39.761719 -127.238281 "/></g></g></g><g fill="#ffffff" fill-opacity="1"><g transform="translate(1583.435432, 204.972652)"><g><path d="M 167 0 L 167 -31.808594 L 39.761719 -31.808594 L 39.761719 -159.046875 L 7.953125 -159.046875 L 7.953125 -31.808594 C 7.953125 -14.3125 22.265625 0 39.761719 0 Z M 167 0 "/></g></g></g><g fill="#ffffff" fill-opacity="1"><g transform="translate(1789.797243, 204.972652)"><g><path d="M 135.1875 0 C 152.882812 0 167 -14.511719 167 -31.808594 L 167 -127.238281 C 167 -144.730469 152.683594 -159.046875 135.1875 -159.046875 L 39.761719 -159.046875 C 22.265625 -159.046875 7.953125 -144.730469 7.953125 -127.238281 L 7.953125 -31.808594 C 7.953125 -14.3125 22.265625 0 39.761719 0 Z M 39.761719 -127.238281 L 135.1875 -127.238281 L 135.1875 -31.808594 L 39.761719 -31.808594 Z M 39.761719 -127.238281 "/></g></g></g><g fill="#ffffff" fill-opacity="1"><g transform="translate(1996.159055, 204.972652)"><g><path d="M 167 -159.046875 L 39.761719 -159.046875 C 22.265625 -159.046875 7.953125 -144.730469 7.953125 -127.238281 L 7.953125 -31.808594 C 7.953125 -14.3125 22.265625 0 39.761719 0 L 135.1875 0 C 152.882812 0 167 -14.511719 167 -31.808594 L 167 -95.425781 L 71.570312 -95.425781 L 71.570312 -63.617188 L 135.1875 -63.617188 L 135.1875 -31.808594 L 39.761719 -31.808594 L 39.761719 -127.238281 L 167 -127.238281 Z M 167 -159.046875 "/></g></g></g><g fill="#ffffff" fill-opacity="1"><g transform="translate(2202.52099, 204.972652)"><g><path d="M 167 0 L 167 -31.808594 L 103.378906 -31.808594 L 103.378906 -127.238281 L 167 -127.238281 L 167 -159.046875 L 7.953125 -159.046875 L 7.953125 -127.238281 L 71.570312 -127.238281 L 71.570312 -31.808594 L 7.953125 -31.808594 L 7.953125 0 Z M 167 0 "/></g></g></g><g fill="#ffffff" fill-opacity="1"><g transform="translate(2408.882802, 204.972652)"><g><path d="M 167 0 L 167 -31.808594 L 39.761719 -31.808594 L 39.761719 -127.238281 L 167 -127.238281 L 167 -159.046875 L 39.761719 -159.046875 C 22.265625 -159.046875 7.953125 -144.730469 7.953125 -127.238281 L 7.953125 -31.808594 C 7.953125 -14.3125 22.265625 0 39.761719 0 Z M 167 0 "/></g></g></g><g fill="#ffffff" fill-opacity="1"><g transform="translate(2615.244613, 204.972652)"><g><path d="M 135.1875 0 C 152.882812 0 167 -14.511719 167 -31.808594 L 167 -127.238281 C 167 -144.730469 152.683594 -159.046875 135.1875 -159.046875 L 39.761719 -159.046875 C 22.265625 -159.046875 7.953125 -144.730469 7.953125 -127.238281 L 7.953125 -31.808594 C 7.953125 -14.3125 22.265625 0 39.761719 0 Z M 39.761719 -127.238281 L 135.1875 -127.238281 L 135.1875 -31.808594 L 39.761719 -31.808594 Z M 39.761719 -127.238281 "/></g></g></g></svg>