<?xml version="1.0" encoding="utf-8"?>
<!-- Generator: Adobe Illustrator 26.0.2, SVG Export Plug-In . SVG Version: 6.00 Build 0)  -->
<svg version="1.1" id="Ebene_1" xmlns="http://www.w3.org/2000/svg" xmlns:xlink="http://www.w3.org/1999/xlink" x="0px" y="0px"
	 viewBox="0 0 652.4 45" style="enable-background:new 0 0 652.4 45;" xml:space="preserve">
<style type="text/css">
	.st0{fill:#EC008C;}
	.st1{fill:#00AEEF;}
	.st2{fill:#FFFFFF;}
</style>
<g>
	<path class="st0" d="M42.9,31.9h2.9c-2.1,8.6-8.8,12.9-20.3,12.9H5l2.5-11.7H28c1.6,0,2.7-0.4,3.1-1.2h-2.9
		c0.1-0.2,0.2-0.3,0.2-0.5c0.2-0.8-0.7-1.2-2.7-1.2h-2.9C11,30.2,6.1,25.9,7.9,17.2C8,17,8,16.7,8.1,16.4H11
		C13.2,8,19.9,3.8,31.3,3.8h20.5l-2.5,11.7H28.8c-1.4,0-2.4,0.3-2.9,0.9h-2.9c-0.2,0.2-0.3,0.5-0.4,0.8c-0.2,0.8,0.7,1.2,2.7,1.2
		h2.9c11.7,0,16.7,4.3,14.9,12.9L42.9,31.9z"/>
	<path class="st0" d="M54.8,17.3l2.9-13.5h14.6l-2.9,13.5h-2.9l-1.5,7c-0.7,3.2-0.6,5.5,0.2,6.9h2.9c0.7,1.2,2,1.8,3.8,1.8
		c1.8,0,3.3-0.6,4.5-1.8h-2.9c1.4-1.4,2.5-3.8,3.2-6.9l1.5-7h2.9l2.9-13.5h14.6l-2.9,13.5h-2.9l-1.5,7c-0.5,2.6-1.3,4.9-2.2,6.9h2.9
		c-4,9-11.6,13.6-22.7,13.6c-11.1,0-16.7-4.5-16.9-13.6h-2.9c0-2.1,0.2-4.4,0.8-6.9l1.5-7H54.8z"/>
	<path class="st0" d="M124.9,31.9h2.9c-2.6,0.8-5.5,1.2-8.9,1.2h-5.9l-2.5,11.7H95.9l2.8-12.9h-2.9L99,16.4h2.9l2.7-12.7h20.5
		C136.1,3.8,141,8,140,16.4H137c-0.1,0.6-0.2,1.3-0.4,2C135.2,25.4,131.3,29.9,124.9,31.9z M113.7,16.4l-1.1,4.9h5.9
		c2,0,3.1-1,3.5-2.9c0.2-0.8,0.2-1.5-0.1-2h2.9c-0.3-0.6-1.1-0.9-2.2-0.9h-5.9l-0.2,0.9H113.7z"/>
	<path class="st0" d="M154.3,32.2h2.9l-0.2,0.9h20.5l-2.5,11.7h-35.2l2.7-12.6h-2.9l3.1-14.8h2.9l2.9-13.6h35.2l-2.5,11.7h-20.5
		l-0.4,1.9h-2.9l-0.2,1h20.5l-2.5,11.7h-20.5L154.3,32.2z"/>
	<path class="st0" d="M213.4,31.9h2.9l2.8,12.9h-14.6l-2.5-11.7h-3.8l-2.5,11.7H181l2.8-12.9h-2.9l3.3-15.3h2.9l2.7-12.8h20.5
		c11,0,15.9,4.3,14.8,12.8h-2.9c-0.1,0.6-0.2,1.2-0.3,1.8c-1.2,5.7-4.1,9.8-8.7,12.2L213.4,31.9z M198.8,16.6l-1,4.7h5.9
		c2,0,3.1-1,3.5-2.9c0.2-0.7,0.1-1.3,0-1.8h2.9c-0.3-0.7-1-1.1-2.3-1.1h-5.9l-0.2,1.1H198.8z"/>
	<path class="st0" d="M239.4,32.4h2.9l-2.6,12.5H225l2.7-12.5h-2.9l3.3-15.6h2.9l2.8-13h35.2l-2.5,11.7h-20.5l-0.3,1.3h-2.9
		l-0.4,1.7h20.5l-2.5,11.7h-20.5L239.4,32.4z"/>
	<path class="st0" d="M279.9,17.3l8.3-13.5h12.6l2.1,13.5h-2.9l2.5,15.9h2.9l1.8,11.7h-15.8l-0.3-2.9h-10.8l-1.6,2.9H263l7.1-11.7
		h-2.9l9.8-15.9H279.9z M287.3,30.2l-0.4-5.9l-3.1,5.9H287.3z"/>
	<path class="st0" d="M351,31.9h2.9c-2.1,8.6-8.8,12.9-20.3,12.9h-20.5l2.5-11.7h20.5c1.6,0,2.7-0.4,3.1-1.2h-2.9
		c0.1-0.2,0.2-0.3,0.2-0.5c0.2-0.8-0.7-1.2-2.7-1.2h-2.9c-11.7,0-16.7-4.3-14.8-12.9c0.1-0.3,0.1-0.5,0.2-0.8h2.9
		C321.3,8,328,3.8,339.4,3.8h20.5l-2.5,11.7h-20.5c-1.4,0-2.4,0.3-2.9,0.9H331c-0.2,0.2-0.3,0.5-0.4,0.8c-0.2,0.8,0.7,1.2,2.7,1.2
		h2.9c11.7,0,16.7,4.3,14.9,12.9L351,31.9z"/>
	<path class="st0" d="M383.4,31.2h2.9l-2.9,13.6h-14.6l2.9-13.6h-2.9l3-14h2.9l0.4-1.8h-11.7l2.5-11.7h38.1l-2.5,11.7h-11.7
		l-0.4,1.8h-2.9L383.4,31.2z"/>
	<path class="st0" d="M418.2,33.1l-2.5,11.7h-14.6l2.5-11.7H418.2z"/>
	<path class="st0" d="M464.9,18.5c0,0.9-0.1,1.8-0.2,2.8h-14.7c0.1-1.1,0-2-0.2-2.8h2.9c-0.5-2-1.9-3-4.2-3s-4.1,1-5.5,3H440
		c-1,1.4-1.7,3.4-2.2,5.8c-0.5,2.1-0.6,3.8-0.4,5.2h2.9c0.4,2.4,1.8,3.6,4.3,3.6c2.5,0,4.5-1.2,5.9-3.6h-2.9c0.4-0.6,0.7-1.4,1-2.2
		h14.7c-0.2,0.8-0.5,1.5-0.7,2.2h2.9c-3.8,10.2-11.6,15.4-23.4,15.4s-17.5-5.1-16.9-15.4h-2.9c0.1-1.6,0.3-3.3,0.7-5.2
		c0.4-2.1,1-4,1.7-5.8h2.9c3.9-9.8,11.6-14.7,23.2-14.7c11.6,0,17.2,4.9,16.9,14.7H464.9z"/>
	<path class="st0" d="M482.4,17.3l8.3-13.5h12.6l2.1,13.5h-2.9l2.5,15.9h2.9l1.8,11.7h-15.8l-0.3-2.9h-10.8l-1.6,2.9h-15.8l7.1-11.7
		h-2.9l9.8-15.9H482.4z M489.8,30.2l-0.4-5.9l-3.1,5.9H489.8z"/>
	<path class="st0" d="M547.9,31.9h2.9l2.8,12.9H539l-2.5-11.7h-3.8l-2.5,11.7h-14.6l2.8-12.9h-2.9l3.3-15.3h2.9l2.7-12.8h20.5
		c11,0,15.9,4.3,14.8,12.8h-2.9c-0.1,0.6-0.2,1.2-0.3,1.8c-1.2,5.7-4.1,9.8-8.7,12.2L547.9,31.9z M533.3,16.6l-1,4.7h5.9
		c2,0,3.1-1,3.5-2.9c0.2-0.7,0.1-1.3,0-1.8h2.9c-0.3-0.7-1-1.1-2.3-1.1h-5.9l-0.2,1.1H533.3z"/>
	<path class="st0" d="M599.6,31.7h2.9c-4.1,8.7-11.6,13.1-22.5,13.1h-20.5l2.8-13.1h-2.9l2.7-12.7h2.9l3.3-15.2h20.5
		c11.8,0,17.4,5.1,16.9,15.2h-2.9c-0.1,1.6-0.3,3.4-0.7,5.3C601.5,27.1,600.7,29.5,599.6,31.7z M574.1,31.7h2.9l-0.3,1.4h5.9
		c1.5,0,2.9-0.5,4-1.4h-2.9c1.7-1.4,3-3.9,3.7-7.4c0.5-2.1,0.6-3.9,0.3-5.3h2.9c-0.4-2.3-1.8-3.5-4.3-3.5h-5.9l-0.8,3.5h-2.9
		L574.1,31.7z"/>
	<path class="st0" d="M644.4,31.9h2.9c-2.1,8.6-8.8,12.9-20.3,12.9h-20.5l2.5-11.7h20.5c1.6,0,2.7-0.4,3.1-1.2h-2.9
		c0.1-0.2,0.2-0.3,0.2-0.5c0.2-0.8-0.7-1.2-2.7-1.2h-2.9c-11.7,0-16.7-4.3-14.8-12.9c0.1-0.3,0.1-0.5,0.2-0.8h2.9
		c2.1-8.4,8.9-12.7,20.3-12.7h20.5l-2.5,11.7h-20.5c-1.4,0-2.4,0.3-2.9,0.9h-2.9c-0.2,0.2-0.3,0.5-0.4,0.8c-0.2,0.8,0.7,1.2,2.7,1.2
		h2.9c11.7,0,16.7,4.3,14.9,12.9L644.4,31.9z"/>
</g>
<g>
	<path class="st1" d="M38.9,27.9h2.9c-2.1,8.6-8.8,12.9-20.3,12.9H1l2.5-11.7H24c1.6,0,2.7-0.4,3.1-1.2h-2.9
		c0.1-0.2,0.2-0.3,0.2-0.5c0.2-0.8-0.7-1.2-2.7-1.2h-2.9C7,26.2,2.1,21.9,3.9,13.2C4,13,4,12.7,4.1,12.4H7C9.2,4,15.9-0.2,27.3-0.2
		h20.5l-2.5,11.7H24.8c-1.4,0-2.4,0.3-2.9,0.9h-2.9c-0.2,0.2-0.3,0.5-0.4,0.8c-0.2,0.8,0.7,1.2,2.7,1.2h2.9
		c11.7,0,16.7,4.3,14.9,12.9L38.9,27.9z"/>
	<path class="st1" d="M50.8,13.3l2.9-13.5h14.6l-2.9,13.5h-2.9l-1.5,7c-0.7,3.2-0.6,5.5,0.2,6.9h2.9c0.7,1.2,2,1.8,3.8,1.8
		c1.8,0,3.3-0.6,4.5-1.8h-2.9c1.4-1.4,2.5-3.8,3.2-6.9l1.5-7h2.9l2.9-13.5h14.6l-2.9,13.5h-2.9l-1.5,7c-0.5,2.6-1.3,4.9-2.2,6.9h2.9
		c-4,9-11.6,13.6-22.7,13.6c-11.1,0-16.7-4.5-16.9-13.6h-2.9c0-2.1,0.2-4.4,0.8-6.9l1.5-7H50.8z"/>
	<path class="st1" d="M120.9,27.9h2.9c-2.6,0.8-5.5,1.2-8.9,1.2h-5.9l-2.5,11.7H91.9l2.8-12.9h-2.9L95,12.4H98l2.7-12.7h20.5
		C132.1-0.2,137,4,136,12.4H133c-0.1,0.6-0.2,1.3-0.4,2C131.2,21.4,127.3,25.9,120.9,27.9z M109.7,12.4l-1.1,4.9h5.9
		c2,0,3.1-1,3.5-2.9c0.2-0.8,0.2-1.5-0.1-2h2.9c-0.3-0.6-1.1-0.9-2.2-0.9h-5.9l-0.2,0.9H109.7z"/>
	<path class="st1" d="M150.3,28.2h2.9l-0.2,0.9h20.5l-2.5,11.7h-35.2l2.7-12.6h-2.9l3.1-14.8h2.9l2.9-13.6h35.2l-2.5,11.7h-20.5
		l-0.4,1.9h-2.9l-0.2,1h20.5l-2.5,11.7h-20.5L150.3,28.2z"/>
	<path class="st1" d="M209.4,27.9h2.9l2.8,12.9h-14.6l-2.5-11.7h-3.8l-2.5,11.7H177l2.8-12.9h-2.9l3.3-15.3h2.9l2.7-12.8h20.5
		c11,0,15.9,4.3,14.8,12.8h-2.9c-0.1,0.6-0.2,1.2-0.3,1.8c-1.2,5.7-4.1,9.8-8.7,12.2L209.4,27.9z M194.8,12.6l-1,4.7h5.9
		c2,0,3.1-1,3.5-2.9c0.2-0.7,0.1-1.3,0-1.8h2.9c-0.3-0.7-1-1.1-2.3-1.1h-5.9l-0.2,1.1H194.8z"/>
	<path class="st1" d="M235.4,28.4h2.9l-2.6,12.5H221l2.7-12.5h-2.9l3.3-15.6h2.9l2.8-13h35.2l-2.5,11.7h-20.5l-0.3,1.3h-2.9
		l-0.4,1.7h20.5l-2.5,11.7h-20.5L235.4,28.4z"/>
	<path class="st1" d="M275.9,13.3l8.3-13.5h12.6l2.1,13.5h-2.9l2.5,15.9h2.9l1.8,11.7h-15.8l-0.3-2.9h-10.8l-1.6,2.9H259l7.1-11.7
		h-2.9l9.8-15.9H275.9z M283.3,26.2l-0.4-5.9l-3.1,5.9H283.3z"/>
	<path class="st1" d="M347,27.9h2.9c-2.1,8.6-8.8,12.9-20.3,12.9h-20.5l2.5-11.7h20.5c1.6,0,2.7-0.4,3.1-1.2h-2.9
		c0.1-0.2,0.2-0.3,0.2-0.5c0.2-0.8-0.7-1.2-2.7-1.2h-2.9c-11.7,0-16.7-4.3-14.8-12.9c0.1-0.3,0.1-0.5,0.2-0.8h2.9
		C317.3,4,324-0.2,335.4-0.2h20.5l-2.5,11.7h-20.5c-1.4,0-2.4,0.3-2.9,0.9H327c-0.2,0.2-0.3,0.5-0.4,0.8c-0.2,0.8,0.7,1.2,2.7,1.2
		h2.9c11.7,0,16.7,4.3,14.9,12.9L347,27.9z"/>
	<path class="st1" d="M379.4,27.2h2.9l-2.9,13.6h-14.6l2.9-13.6h-2.9l3-14h2.9l0.4-1.8h-11.7l2.5-11.7h38.1l-2.5,11.7h-11.7
		l-0.4,1.8h-2.9L379.4,27.2z"/>
	<path class="st1" d="M414.2,29.1l-2.5,11.7h-14.6l2.5-11.7H414.2z"/>
	<path class="st1" d="M460.9,14.5c0,0.9-0.1,1.8-0.2,2.8h-14.7c0.1-1.1,0-2-0.2-2.8h2.9c-0.5-2-1.9-3-4.2-3s-4.1,1-5.5,3H436
		c-1,1.4-1.7,3.4-2.2,5.8c-0.5,2.1-0.6,3.8-0.4,5.2h2.9c0.4,2.4,1.8,3.6,4.3,3.6c2.5,0,4.5-1.2,5.9-3.6h-2.9c0.4-0.6,0.7-1.4,1-2.2
		h14.7c-0.2,0.8-0.5,1.5-0.7,2.2h2.9c-3.8,10.2-11.6,15.4-23.4,15.4s-17.5-5.1-16.9-15.4h-2.9c0.1-1.6,0.3-3.3,0.7-5.2
		c0.4-2.1,1-4,1.7-5.8h2.9c3.9-9.8,11.6-14.7,23.2-14.7c11.6,0,17.2,4.9,16.9,14.7H460.9z"/>
	<path class="st1" d="M478.4,13.3l8.3-13.5h12.6l2.1,13.5h-2.9l2.5,15.9h2.9l1.8,11.7h-15.8l-0.3-2.9h-10.8l-1.6,2.9h-15.8l7.1-11.7
		h-2.9l9.8-15.9H478.4z M485.8,26.2l-0.4-5.9l-3.1,5.9H485.8z"/>
	<path class="st1" d="M543.9,27.9h2.9l2.8,12.9H535l-2.5-11.7h-3.8l-2.5,11.7h-14.6l2.8-12.9h-2.9l3.3-15.3h2.9l2.7-12.8h20.5
		c11,0,15.9,4.3,14.8,12.8h-2.9c-0.1,0.6-0.2,1.2-0.3,1.8c-1.2,5.7-4.1,9.8-8.7,12.2L543.9,27.9z M529.3,12.6l-1,4.7h5.9
		c2,0,3.1-1,3.5-2.9c0.2-0.7,0.1-1.3,0-1.8h2.9c-0.3-0.7-1-1.1-2.3-1.1h-5.9l-0.2,1.1H529.3z"/>
	<path class="st1" d="M595.6,27.7h2.9c-4.1,8.7-11.6,13.1-22.5,13.1h-20.5l2.8-13.1h-2.9l2.7-12.7h2.9l3.3-15.2h20.5
		c11.8,0,17.4,5.1,16.9,15.2h-2.9c-0.1,1.6-0.3,3.4-0.7,5.3C597.5,23.1,596.7,25.5,595.6,27.7z M570.1,27.7h2.9l-0.3,1.4h5.9
		c1.5,0,2.9-0.5,4-1.4h-2.9c1.7-1.4,3-3.9,3.7-7.4c0.5-2.1,0.6-3.9,0.3-5.3h2.9c-0.4-2.3-1.8-3.5-4.3-3.5h-5.9l-0.8,3.5h-2.9
		L570.1,27.7z"/>
	<path class="st1" d="M640.4,27.9h2.9c-2.1,8.6-8.8,12.9-20.3,12.9h-20.5l2.5-11.7h20.5c1.6,0,2.7-0.4,3.1-1.2h-2.9
		c0.1-0.2,0.2-0.3,0.2-0.5c0.2-0.8-0.7-1.2-2.7-1.2h-2.9c-11.7,0-16.7-4.3-14.8-12.9c0.1-0.3,0.1-0.5,0.2-0.8h2.9
		c2.1-8.4,8.9-12.7,20.3-12.7h20.5l-2.5,11.7h-20.5c-1.4,0-2.4,0.3-2.9,0.9h-2.9c-0.2,0.2-0.3,0.5-0.4,0.8c-0.2,0.8,0.7,1.2,2.7,1.2
		h2.9c11.7,0,16.7,4.3,14.9,12.9L640.4,27.9z"/>
</g>
<g>
	<g>
		<path class="st2" d="M40.9,29.9h2.9c-2.1,8.6-8.8,12.9-20.3,12.9H3l2.5-11.7H26c1.6,0,2.7-0.4,3.1-1.2h-2.9
			c0.1-0.2,0.2-0.3,0.2-0.5c0.2-0.8-0.7-1.2-2.7-1.2h-2.9C9,28.2,4.1,23.9,5.9,15.2C6,15,6,14.7,6.1,14.4H9
			C11.2,6,17.9,1.8,29.3,1.8h20.5l-2.5,11.7H26.8c-1.4,0-2.4,0.3-2.9,0.9h-2.9c-0.2,0.2-0.3,0.5-0.4,0.8c-0.2,0.8,0.7,1.2,2.7,1.2
			h2.9c11.7,0,16.7,4.3,14.9,12.9L40.9,29.9z"/>
	</g>
	<g>
		<path class="st2" d="M52.8,15.3l2.9-13.5h14.6l-2.9,13.5h-2.9l-1.5,7c-0.7,3.2-0.6,5.5,0.2,6.9h2.9c0.7,1.2,2,1.8,3.8,1.8
			c1.8,0,3.3-0.6,4.5-1.8h-2.9c1.4-1.4,2.5-3.8,3.2-6.9l1.5-7h2.9l2.9-13.5h14.6l-2.9,13.5h-2.9l-1.5,7c-0.5,2.6-1.3,4.9-2.2,6.9
			h2.9c-4,9-11.6,13.6-22.7,13.6c-11.1,0-16.7-4.5-16.9-13.6h-2.9c0-2.1,0.2-4.4,0.8-6.9l1.5-7H52.8z"/>
	</g>
	<g>
		<path class="st2" d="M122.9,29.9h2.9c-2.6,0.8-5.5,1.2-8.9,1.2h-5.9l-2.5,11.7H93.9l2.8-12.9h-2.9L97,14.4h2.9l2.7-12.7h20.5
			C134.1,1.8,139,6,138,14.4H135c-0.1,0.6-0.2,1.3-0.4,2C133.2,23.4,129.3,27.9,122.9,29.9z M111.7,14.4l-1.1,4.9h5.9
			c2,0,3.1-1,3.5-2.9c0.2-0.8,0.2-1.5-0.1-2h2.9c-0.3-0.6-1.1-0.9-2.2-0.9h-5.9l-0.2,0.9H111.7z"/>
	</g>
	<g>
		<path class="st2" d="M152.3,30.2h2.9l-0.2,0.9h20.5l-2.5,11.7h-35.2l2.7-12.6h-2.9l3.1-14.8h2.9l2.9-13.6h35.2l-2.5,11.7h-20.5
			l-0.4,1.9h-2.9l-0.2,1h20.5l-2.5,11.7h-20.5L152.3,30.2z"/>
	</g>
	<g>
		<path class="st2" d="M211.4,29.9h2.9l2.8,12.9h-14.6l-2.5-11.7h-3.8l-2.5,11.7H179l2.8-12.9h-2.9l3.3-15.3h2.9l2.7-12.8h20.5
			c11,0,15.9,4.3,14.8,12.8h-2.9c-0.1,0.6-0.2,1.2-0.3,1.8c-1.2,5.7-4.1,9.8-8.7,12.2L211.4,29.9z M196.8,14.6l-1,4.7h5.9
			c2,0,3.1-1,3.5-2.9c0.2-0.7,0.1-1.3,0-1.8h2.9c-0.3-0.7-1-1.1-2.3-1.1h-5.9l-0.2,1.1H196.8z"/>
	</g>
	<g>
		<path class="st2" d="M237.4,30.4h2.9l-2.6,12.5H223l2.7-12.5h-2.9l3.3-15.6h2.9l2.8-13h35.2l-2.5,11.7h-20.5l-0.3,1.3h-2.9
			l-0.4,1.7h20.5l-2.5,11.7h-20.5L237.4,30.4z"/>
	</g>
	<g>
		<path class="st2" d="M277.9,15.3l8.3-13.5h12.6l2.1,13.5h-2.9l2.5,15.9h2.9l1.8,11.7h-15.8l-0.3-2.9h-10.8l-1.6,2.9H261l7.1-11.7
			h-2.9l9.8-15.9H277.9z M285.3,28.2l-0.4-5.9l-3.1,5.9H285.3z"/>
	</g>
	<g>
		<path class="st2" d="M349,29.9h2.9c-2.1,8.6-8.8,12.9-20.3,12.9h-20.5l2.5-11.7h20.5c1.6,0,2.7-0.4,3.1-1.2h-2.9
			c0.1-0.2,0.2-0.3,0.2-0.5c0.2-0.8-0.7-1.2-2.7-1.2h-2.9c-11.7,0-16.7-4.3-14.8-12.9c0.1-0.3,0.1-0.5,0.2-0.8h2.9
			C319.3,6,326,1.8,337.4,1.8h20.5l-2.5,11.7h-20.5c-1.4,0-2.4,0.3-2.9,0.9H329c-0.2,0.2-0.3,0.5-0.4,0.8c-0.2,0.8,0.7,1.2,2.7,1.2
			h2.9c11.7,0,16.7,4.3,14.9,12.9L349,29.9z"/>
	</g>
	<g>
		<path class="st2" d="M381.4,29.2h2.9l-2.9,13.6h-14.6l2.9-13.6h-2.9l3-14h2.9l0.4-1.8h-11.7l2.5-11.7h38.1l-2.5,11.7h-11.7
			l-0.4,1.8h-2.9L381.4,29.2z"/>
	</g>
	<g>
		<path class="st2" d="M416.2,31.1l-2.5,11.7h-14.6l2.5-11.7H416.2z"/>
	</g>
	<g>
		<path class="st2" d="M462.9,16.5c0,0.9-0.1,1.8-0.2,2.8h-14.7c0.1-1.1,0-2-0.2-2.8h2.9c-0.5-2-1.9-3-4.2-3s-4.1,1-5.5,3H438
			c-1,1.4-1.7,3.4-2.2,5.8c-0.4,2.1-0.6,3.8-0.4,5.2h2.9c0.4,2.4,1.8,3.6,4.3,3.6c2.5,0,4.5-1.2,5.9-3.6h-2.9c0.4-0.6,0.7-1.4,1-2.2
			h14.7c-0.2,0.8-0.5,1.5-0.7,2.2h2.9c-3.8,10.2-11.6,15.4-23.4,15.4s-17.5-5.1-16.9-15.4h-2.9c0.1-1.6,0.3-3.3,0.7-5.2
			c0.4-2.1,1-4,1.7-5.8h2.9c3.9-9.8,11.6-14.7,23.2-14.7c11.6,0,17.2,4.9,16.9,14.7H462.9z"/>
	</g>
	<g>
		<path class="st2" d="M480.4,15.3l8.3-13.5h12.6l2.1,13.5h-2.9l2.5,15.9h2.9l1.8,11.7h-15.8l-0.3-2.9h-10.8l-1.6,2.9h-15.8
			l7.1-11.7h-2.9l9.8-15.9H480.4z M487.8,28.2l-0.4-5.9l-3.1,5.9H487.8z"/>
	</g>
	<g>
		<path class="st2" d="M545.9,29.9h2.9l2.8,12.9H537l-2.5-11.7h-3.8l-2.5,11.7h-14.6l2.8-12.9h-2.9l3.3-15.3h2.9l2.7-12.8h20.5
			c11,0,15.9,4.3,14.8,12.8h-2.9c-0.1,0.6-0.2,1.2-0.3,1.8c-1.2,5.7-4.1,9.8-8.7,12.2L545.9,29.9z M531.3,14.6l-1,4.7h5.9
			c2,0,3.1-1,3.5-2.9c0.2-0.7,0.1-1.3,0-1.8h2.9c-0.3-0.7-1-1.1-2.3-1.1h-5.9l-0.2,1.1H531.3z"/>
	</g>
	<g>
		<path class="st2" d="M597.6,29.7h2.9c-4.1,8.7-11.6,13.1-22.5,13.1h-20.5l2.8-13.1h-2.9l2.7-12.7h2.9l3.3-15.2h20.5
			c11.8,0,17.4,5.1,16.9,15.2h-2.9c-0.1,1.6-0.3,3.4-0.7,5.3C599.5,25.1,598.7,27.5,597.6,29.7z M572.1,29.7h2.9l-0.3,1.4h5.9
			c1.5,0,2.9-0.5,4-1.4h-2.9c1.7-1.4,3-3.9,3.7-7.4c0.5-2.1,0.6-3.9,0.3-5.3h2.9c-0.4-2.3-1.8-3.5-4.3-3.5h-5.9l-0.8,3.5h-2.9
			L572.1,29.7z"/>
	</g>
	<g>
		<path class="st2" d="M642.4,29.9h2.9c-2.1,8.6-8.8,12.9-20.3,12.9h-20.5l2.5-11.7h20.5c1.6,0,2.7-0.4,3.1-1.2h-2.9
			c0.1-0.2,0.2-0.3,0.2-0.5c0.2-0.8-0.7-1.2-2.7-1.2h-2.9c-11.7,0-16.7-4.3-14.8-12.9c0.1-0.3,0.1-0.5,0.2-0.8h2.9
			c2.1-8.4,8.9-12.7,20.3-12.7h20.5l-2.5,11.7h-20.5c-1.4,0-2.4,0.3-2.9,0.9h-2.9c-0.2,0.2-0.3,0.5-0.4,0.8
			c-0.2,0.8,0.7,1.2,2.7,1.2h2.9c11.7,0,16.7,4.3,14.9,12.9L642.4,29.9z"/>
	</g>
</g>
</svg>
